G04 #@! TF.GenerationSoftware,KiCad,Pcbnew,(5.1.5)-3*
G04 #@! TF.CreationDate,2020-10-16T19:19:18-07:00*
G04 #@! TF.ProjectId,teensy4_ramps,7465656e-7379-4345-9f72-616d70732e6b,rev?*
G04 #@! TF.SameCoordinates,Original*
G04 #@! TF.FileFunction,Paste,Top*
G04 #@! TF.FilePolarity,Positive*
%FSLAX46Y46*%
G04 Gerber Fmt 4.6, Leading zero omitted, Abs format (unit mm)*
G04 Created by KiCad (PCBNEW (5.1.5)-3) date 2020-10-16 19:19:18*
%MOMM*%
%LPD*%
G04 APERTURE LIST*
%ADD10R,0.600000X0.450000*%
%ADD11C,0.100000*%
%ADD12R,0.650000X1.060000*%
%ADD13R,1.500000X4.200000*%
%ADD14R,1.700000X2.000000*%
%ADD15R,2.000000X0.500000*%
%ADD16R,2.500000X1.800000*%
G04 APERTURE END LIST*
D10*
X130786600Y-97637600D03*
X128686600Y-97637600D03*
D11*
G36*
X143580704Y-92063604D02*
G01*
X143604973Y-92067204D01*
X143628771Y-92073165D01*
X143651871Y-92081430D01*
X143674049Y-92091920D01*
X143695093Y-92104533D01*
X143714798Y-92119147D01*
X143732977Y-92135623D01*
X143749453Y-92153802D01*
X143764067Y-92173507D01*
X143776680Y-92194551D01*
X143787170Y-92216729D01*
X143795435Y-92239829D01*
X143801396Y-92263627D01*
X143804996Y-92287896D01*
X143806200Y-92312400D01*
X143806200Y-93412400D01*
X143804996Y-93436904D01*
X143801396Y-93461173D01*
X143795435Y-93484971D01*
X143787170Y-93508071D01*
X143776680Y-93530249D01*
X143764067Y-93551293D01*
X143749453Y-93570998D01*
X143732977Y-93589177D01*
X143714798Y-93605653D01*
X143695093Y-93620267D01*
X143674049Y-93632880D01*
X143651871Y-93643370D01*
X143628771Y-93651635D01*
X143604973Y-93657596D01*
X143580704Y-93661196D01*
X143556200Y-93662400D01*
X141456200Y-93662400D01*
X141431696Y-93661196D01*
X141407427Y-93657596D01*
X141383629Y-93651635D01*
X141360529Y-93643370D01*
X141338351Y-93632880D01*
X141317307Y-93620267D01*
X141297602Y-93605653D01*
X141279423Y-93589177D01*
X141262947Y-93570998D01*
X141248333Y-93551293D01*
X141235720Y-93530249D01*
X141225230Y-93508071D01*
X141216965Y-93484971D01*
X141211004Y-93461173D01*
X141207404Y-93436904D01*
X141206200Y-93412400D01*
X141206200Y-92312400D01*
X141207404Y-92287896D01*
X141211004Y-92263627D01*
X141216965Y-92239829D01*
X141225230Y-92216729D01*
X141235720Y-92194551D01*
X141248333Y-92173507D01*
X141262947Y-92153802D01*
X141279423Y-92135623D01*
X141297602Y-92119147D01*
X141317307Y-92104533D01*
X141338351Y-92091920D01*
X141360529Y-92081430D01*
X141383629Y-92073165D01*
X141407427Y-92067204D01*
X141431696Y-92063604D01*
X141456200Y-92062400D01*
X143556200Y-92062400D01*
X143580704Y-92063604D01*
G37*
G36*
X139980704Y-92063604D02*
G01*
X140004973Y-92067204D01*
X140028771Y-92073165D01*
X140051871Y-92081430D01*
X140074049Y-92091920D01*
X140095093Y-92104533D01*
X140114798Y-92119147D01*
X140132977Y-92135623D01*
X140149453Y-92153802D01*
X140164067Y-92173507D01*
X140176680Y-92194551D01*
X140187170Y-92216729D01*
X140195435Y-92239829D01*
X140201396Y-92263627D01*
X140204996Y-92287896D01*
X140206200Y-92312400D01*
X140206200Y-93412400D01*
X140204996Y-93436904D01*
X140201396Y-93461173D01*
X140195435Y-93484971D01*
X140187170Y-93508071D01*
X140176680Y-93530249D01*
X140164067Y-93551293D01*
X140149453Y-93570998D01*
X140132977Y-93589177D01*
X140114798Y-93605653D01*
X140095093Y-93620267D01*
X140074049Y-93632880D01*
X140051871Y-93643370D01*
X140028771Y-93651635D01*
X140004973Y-93657596D01*
X139980704Y-93661196D01*
X139956200Y-93662400D01*
X137856200Y-93662400D01*
X137831696Y-93661196D01*
X137807427Y-93657596D01*
X137783629Y-93651635D01*
X137760529Y-93643370D01*
X137738351Y-93632880D01*
X137717307Y-93620267D01*
X137697602Y-93605653D01*
X137679423Y-93589177D01*
X137662947Y-93570998D01*
X137648333Y-93551293D01*
X137635720Y-93530249D01*
X137625230Y-93508071D01*
X137616965Y-93484971D01*
X137611004Y-93461173D01*
X137607404Y-93436904D01*
X137606200Y-93412400D01*
X137606200Y-92312400D01*
X137607404Y-92287896D01*
X137611004Y-92263627D01*
X137616965Y-92239829D01*
X137625230Y-92216729D01*
X137635720Y-92194551D01*
X137648333Y-92173507D01*
X137662947Y-92153802D01*
X137679423Y-92135623D01*
X137697602Y-92119147D01*
X137717307Y-92104533D01*
X137738351Y-92091920D01*
X137760529Y-92081430D01*
X137783629Y-92073165D01*
X137807427Y-92067204D01*
X137831696Y-92063604D01*
X137856200Y-92062400D01*
X139956200Y-92062400D01*
X139980704Y-92063604D01*
G37*
D12*
X126415800Y-94452800D03*
X127365800Y-94452800D03*
X125465800Y-94452800D03*
X125465800Y-92252800D03*
X126415800Y-92252800D03*
X127365800Y-92252800D03*
D11*
G36*
X124093358Y-89952310D02*
G01*
X124107676Y-89954434D01*
X124121717Y-89957951D01*
X124135346Y-89962828D01*
X124148431Y-89969017D01*
X124160847Y-89976458D01*
X124172473Y-89985081D01*
X124183198Y-89994802D01*
X124192919Y-90005527D01*
X124201542Y-90017153D01*
X124208983Y-90029569D01*
X124215172Y-90042654D01*
X124220049Y-90056283D01*
X124223566Y-90070324D01*
X124225690Y-90084642D01*
X124226400Y-90099100D01*
X124226400Y-90444100D01*
X124225690Y-90458558D01*
X124223566Y-90472876D01*
X124220049Y-90486917D01*
X124215172Y-90500546D01*
X124208983Y-90513631D01*
X124201542Y-90526047D01*
X124192919Y-90537673D01*
X124183198Y-90548398D01*
X124172473Y-90558119D01*
X124160847Y-90566742D01*
X124148431Y-90574183D01*
X124135346Y-90580372D01*
X124121717Y-90585249D01*
X124107676Y-90588766D01*
X124093358Y-90590890D01*
X124078900Y-90591600D01*
X123783900Y-90591600D01*
X123769442Y-90590890D01*
X123755124Y-90588766D01*
X123741083Y-90585249D01*
X123727454Y-90580372D01*
X123714369Y-90574183D01*
X123701953Y-90566742D01*
X123690327Y-90558119D01*
X123679602Y-90548398D01*
X123669881Y-90537673D01*
X123661258Y-90526047D01*
X123653817Y-90513631D01*
X123647628Y-90500546D01*
X123642751Y-90486917D01*
X123639234Y-90472876D01*
X123637110Y-90458558D01*
X123636400Y-90444100D01*
X123636400Y-90099100D01*
X123637110Y-90084642D01*
X123639234Y-90070324D01*
X123642751Y-90056283D01*
X123647628Y-90042654D01*
X123653817Y-90029569D01*
X123661258Y-90017153D01*
X123669881Y-90005527D01*
X123679602Y-89994802D01*
X123690327Y-89985081D01*
X123701953Y-89976458D01*
X123714369Y-89969017D01*
X123727454Y-89962828D01*
X123741083Y-89957951D01*
X123755124Y-89954434D01*
X123769442Y-89952310D01*
X123783900Y-89951600D01*
X124078900Y-89951600D01*
X124093358Y-89952310D01*
G37*
G36*
X123123358Y-89952310D02*
G01*
X123137676Y-89954434D01*
X123151717Y-89957951D01*
X123165346Y-89962828D01*
X123178431Y-89969017D01*
X123190847Y-89976458D01*
X123202473Y-89985081D01*
X123213198Y-89994802D01*
X123222919Y-90005527D01*
X123231542Y-90017153D01*
X123238983Y-90029569D01*
X123245172Y-90042654D01*
X123250049Y-90056283D01*
X123253566Y-90070324D01*
X123255690Y-90084642D01*
X123256400Y-90099100D01*
X123256400Y-90444100D01*
X123255690Y-90458558D01*
X123253566Y-90472876D01*
X123250049Y-90486917D01*
X123245172Y-90500546D01*
X123238983Y-90513631D01*
X123231542Y-90526047D01*
X123222919Y-90537673D01*
X123213198Y-90548398D01*
X123202473Y-90558119D01*
X123190847Y-90566742D01*
X123178431Y-90574183D01*
X123165346Y-90580372D01*
X123151717Y-90585249D01*
X123137676Y-90588766D01*
X123123358Y-90590890D01*
X123108900Y-90591600D01*
X122813900Y-90591600D01*
X122799442Y-90590890D01*
X122785124Y-90588766D01*
X122771083Y-90585249D01*
X122757454Y-90580372D01*
X122744369Y-90574183D01*
X122731953Y-90566742D01*
X122720327Y-90558119D01*
X122709602Y-90548398D01*
X122699881Y-90537673D01*
X122691258Y-90526047D01*
X122683817Y-90513631D01*
X122677628Y-90500546D01*
X122672751Y-90486917D01*
X122669234Y-90472876D01*
X122667110Y-90458558D01*
X122666400Y-90444100D01*
X122666400Y-90099100D01*
X122667110Y-90084642D01*
X122669234Y-90070324D01*
X122672751Y-90056283D01*
X122677628Y-90042654D01*
X122683817Y-90029569D01*
X122691258Y-90017153D01*
X122699881Y-90005527D01*
X122709602Y-89994802D01*
X122720327Y-89985081D01*
X122731953Y-89976458D01*
X122744369Y-89969017D01*
X122757454Y-89962828D01*
X122771083Y-89957951D01*
X122785124Y-89954434D01*
X122799442Y-89952310D01*
X122813900Y-89951600D01*
X123108900Y-89951600D01*
X123123358Y-89952310D01*
G37*
G36*
X125612158Y-89956710D02*
G01*
X125626476Y-89958834D01*
X125640517Y-89962351D01*
X125654146Y-89967228D01*
X125667231Y-89973417D01*
X125679647Y-89980858D01*
X125691273Y-89989481D01*
X125701998Y-89999202D01*
X125711719Y-90009927D01*
X125720342Y-90021553D01*
X125727783Y-90033969D01*
X125733972Y-90047054D01*
X125738849Y-90060683D01*
X125742366Y-90074724D01*
X125744490Y-90089042D01*
X125745200Y-90103500D01*
X125745200Y-90398500D01*
X125744490Y-90412958D01*
X125742366Y-90427276D01*
X125738849Y-90441317D01*
X125733972Y-90454946D01*
X125727783Y-90468031D01*
X125720342Y-90480447D01*
X125711719Y-90492073D01*
X125701998Y-90502798D01*
X125691273Y-90512519D01*
X125679647Y-90521142D01*
X125667231Y-90528583D01*
X125654146Y-90534772D01*
X125640517Y-90539649D01*
X125626476Y-90543166D01*
X125612158Y-90545290D01*
X125597700Y-90546000D01*
X125252700Y-90546000D01*
X125238242Y-90545290D01*
X125223924Y-90543166D01*
X125209883Y-90539649D01*
X125196254Y-90534772D01*
X125183169Y-90528583D01*
X125170753Y-90521142D01*
X125159127Y-90512519D01*
X125148402Y-90502798D01*
X125138681Y-90492073D01*
X125130058Y-90480447D01*
X125122617Y-90468031D01*
X125116428Y-90454946D01*
X125111551Y-90441317D01*
X125108034Y-90427276D01*
X125105910Y-90412958D01*
X125105200Y-90398500D01*
X125105200Y-90103500D01*
X125105910Y-90089042D01*
X125108034Y-90074724D01*
X125111551Y-90060683D01*
X125116428Y-90047054D01*
X125122617Y-90033969D01*
X125130058Y-90021553D01*
X125138681Y-90009927D01*
X125148402Y-89999202D01*
X125159127Y-89989481D01*
X125170753Y-89980858D01*
X125183169Y-89973417D01*
X125196254Y-89967228D01*
X125209883Y-89962351D01*
X125223924Y-89958834D01*
X125238242Y-89956710D01*
X125252700Y-89956000D01*
X125597700Y-89956000D01*
X125612158Y-89956710D01*
G37*
G36*
X125612158Y-88986710D02*
G01*
X125626476Y-88988834D01*
X125640517Y-88992351D01*
X125654146Y-88997228D01*
X125667231Y-89003417D01*
X125679647Y-89010858D01*
X125691273Y-89019481D01*
X125701998Y-89029202D01*
X125711719Y-89039927D01*
X125720342Y-89051553D01*
X125727783Y-89063969D01*
X125733972Y-89077054D01*
X125738849Y-89090683D01*
X125742366Y-89104724D01*
X125744490Y-89119042D01*
X125745200Y-89133500D01*
X125745200Y-89428500D01*
X125744490Y-89442958D01*
X125742366Y-89457276D01*
X125738849Y-89471317D01*
X125733972Y-89484946D01*
X125727783Y-89498031D01*
X125720342Y-89510447D01*
X125711719Y-89522073D01*
X125701998Y-89532798D01*
X125691273Y-89542519D01*
X125679647Y-89551142D01*
X125667231Y-89558583D01*
X125654146Y-89564772D01*
X125640517Y-89569649D01*
X125626476Y-89573166D01*
X125612158Y-89575290D01*
X125597700Y-89576000D01*
X125252700Y-89576000D01*
X125238242Y-89575290D01*
X125223924Y-89573166D01*
X125209883Y-89569649D01*
X125196254Y-89564772D01*
X125183169Y-89558583D01*
X125170753Y-89551142D01*
X125159127Y-89542519D01*
X125148402Y-89532798D01*
X125138681Y-89522073D01*
X125130058Y-89510447D01*
X125122617Y-89498031D01*
X125116428Y-89484946D01*
X125111551Y-89471317D01*
X125108034Y-89457276D01*
X125105910Y-89442958D01*
X125105200Y-89428500D01*
X125105200Y-89133500D01*
X125105910Y-89119042D01*
X125108034Y-89104724D01*
X125111551Y-89090683D01*
X125116428Y-89077054D01*
X125122617Y-89063969D01*
X125130058Y-89051553D01*
X125138681Y-89039927D01*
X125148402Y-89029202D01*
X125159127Y-89019481D01*
X125170753Y-89010858D01*
X125183169Y-89003417D01*
X125196254Y-88997228D01*
X125209883Y-88992351D01*
X125223924Y-88988834D01*
X125238242Y-88986710D01*
X125252700Y-88986000D01*
X125597700Y-88986000D01*
X125612158Y-88986710D01*
G37*
G36*
X123986558Y-94757310D02*
G01*
X124000876Y-94759434D01*
X124014917Y-94762951D01*
X124028546Y-94767828D01*
X124041631Y-94774017D01*
X124054047Y-94781458D01*
X124065673Y-94790081D01*
X124076398Y-94799802D01*
X124086119Y-94810527D01*
X124094742Y-94822153D01*
X124102183Y-94834569D01*
X124108372Y-94847654D01*
X124113249Y-94861283D01*
X124116766Y-94875324D01*
X124118890Y-94889642D01*
X124119600Y-94904100D01*
X124119600Y-95199100D01*
X124118890Y-95213558D01*
X124116766Y-95227876D01*
X124113249Y-95241917D01*
X124108372Y-95255546D01*
X124102183Y-95268631D01*
X124094742Y-95281047D01*
X124086119Y-95292673D01*
X124076398Y-95303398D01*
X124065673Y-95313119D01*
X124054047Y-95321742D01*
X124041631Y-95329183D01*
X124028546Y-95335372D01*
X124014917Y-95340249D01*
X124000876Y-95343766D01*
X123986558Y-95345890D01*
X123972100Y-95346600D01*
X123627100Y-95346600D01*
X123612642Y-95345890D01*
X123598324Y-95343766D01*
X123584283Y-95340249D01*
X123570654Y-95335372D01*
X123557569Y-95329183D01*
X123545153Y-95321742D01*
X123533527Y-95313119D01*
X123522802Y-95303398D01*
X123513081Y-95292673D01*
X123504458Y-95281047D01*
X123497017Y-95268631D01*
X123490828Y-95255546D01*
X123485951Y-95241917D01*
X123482434Y-95227876D01*
X123480310Y-95213558D01*
X123479600Y-95199100D01*
X123479600Y-94904100D01*
X123480310Y-94889642D01*
X123482434Y-94875324D01*
X123485951Y-94861283D01*
X123490828Y-94847654D01*
X123497017Y-94834569D01*
X123504458Y-94822153D01*
X123513081Y-94810527D01*
X123522802Y-94799802D01*
X123533527Y-94790081D01*
X123545153Y-94781458D01*
X123557569Y-94774017D01*
X123570654Y-94767828D01*
X123584283Y-94762951D01*
X123598324Y-94759434D01*
X123612642Y-94757310D01*
X123627100Y-94756600D01*
X123972100Y-94756600D01*
X123986558Y-94757310D01*
G37*
G36*
X123986558Y-93787310D02*
G01*
X124000876Y-93789434D01*
X124014917Y-93792951D01*
X124028546Y-93797828D01*
X124041631Y-93804017D01*
X124054047Y-93811458D01*
X124065673Y-93820081D01*
X124076398Y-93829802D01*
X124086119Y-93840527D01*
X124094742Y-93852153D01*
X124102183Y-93864569D01*
X124108372Y-93877654D01*
X124113249Y-93891283D01*
X124116766Y-93905324D01*
X124118890Y-93919642D01*
X124119600Y-93934100D01*
X124119600Y-94229100D01*
X124118890Y-94243558D01*
X124116766Y-94257876D01*
X124113249Y-94271917D01*
X124108372Y-94285546D01*
X124102183Y-94298631D01*
X124094742Y-94311047D01*
X124086119Y-94322673D01*
X124076398Y-94333398D01*
X124065673Y-94343119D01*
X124054047Y-94351742D01*
X124041631Y-94359183D01*
X124028546Y-94365372D01*
X124014917Y-94370249D01*
X124000876Y-94373766D01*
X123986558Y-94375890D01*
X123972100Y-94376600D01*
X123627100Y-94376600D01*
X123612642Y-94375890D01*
X123598324Y-94373766D01*
X123584283Y-94370249D01*
X123570654Y-94365372D01*
X123557569Y-94359183D01*
X123545153Y-94351742D01*
X123533527Y-94343119D01*
X123522802Y-94333398D01*
X123513081Y-94322673D01*
X123504458Y-94311047D01*
X123497017Y-94298631D01*
X123490828Y-94285546D01*
X123485951Y-94271917D01*
X123482434Y-94257876D01*
X123480310Y-94243558D01*
X123479600Y-94229100D01*
X123479600Y-93934100D01*
X123480310Y-93919642D01*
X123482434Y-93905324D01*
X123485951Y-93891283D01*
X123490828Y-93877654D01*
X123497017Y-93864569D01*
X123504458Y-93852153D01*
X123513081Y-93840527D01*
X123522802Y-93829802D01*
X123533527Y-93820081D01*
X123545153Y-93811458D01*
X123557569Y-93804017D01*
X123570654Y-93797828D01*
X123584283Y-93792951D01*
X123598324Y-93789434D01*
X123612642Y-93787310D01*
X123627100Y-93786600D01*
X123972100Y-93786600D01*
X123986558Y-93787310D01*
G37*
D13*
X134562400Y-92532200D03*
X130962400Y-92532200D03*
D14*
X103398200Y-63454200D03*
X108848200Y-63454200D03*
X103398200Y-54554200D03*
X108848200Y-54554200D03*
D15*
X108948200Y-60604200D03*
X108948200Y-59804200D03*
X108948200Y-59004200D03*
X108948200Y-58204200D03*
X108948200Y-57404200D03*
D16*
X111429800Y-88747600D03*
X115429800Y-88747600D03*
D11*
G36*
X136965958Y-89240710D02*
G01*
X136980276Y-89242834D01*
X136994317Y-89246351D01*
X137007946Y-89251228D01*
X137021031Y-89257417D01*
X137033447Y-89264858D01*
X137045073Y-89273481D01*
X137055798Y-89283202D01*
X137065519Y-89293927D01*
X137074142Y-89305553D01*
X137081583Y-89317969D01*
X137087772Y-89331054D01*
X137092649Y-89344683D01*
X137096166Y-89358724D01*
X137098290Y-89373042D01*
X137099000Y-89387500D01*
X137099000Y-89682500D01*
X137098290Y-89696958D01*
X137096166Y-89711276D01*
X137092649Y-89725317D01*
X137087772Y-89738946D01*
X137081583Y-89752031D01*
X137074142Y-89764447D01*
X137065519Y-89776073D01*
X137055798Y-89786798D01*
X137045073Y-89796519D01*
X137033447Y-89805142D01*
X137021031Y-89812583D01*
X137007946Y-89818772D01*
X136994317Y-89823649D01*
X136980276Y-89827166D01*
X136965958Y-89829290D01*
X136951500Y-89830000D01*
X136606500Y-89830000D01*
X136592042Y-89829290D01*
X136577724Y-89827166D01*
X136563683Y-89823649D01*
X136550054Y-89818772D01*
X136536969Y-89812583D01*
X136524553Y-89805142D01*
X136512927Y-89796519D01*
X136502202Y-89786798D01*
X136492481Y-89776073D01*
X136483858Y-89764447D01*
X136476417Y-89752031D01*
X136470228Y-89738946D01*
X136465351Y-89725317D01*
X136461834Y-89711276D01*
X136459710Y-89696958D01*
X136459000Y-89682500D01*
X136459000Y-89387500D01*
X136459710Y-89373042D01*
X136461834Y-89358724D01*
X136465351Y-89344683D01*
X136470228Y-89331054D01*
X136476417Y-89317969D01*
X136483858Y-89305553D01*
X136492481Y-89293927D01*
X136502202Y-89283202D01*
X136512927Y-89273481D01*
X136524553Y-89264858D01*
X136536969Y-89257417D01*
X136550054Y-89251228D01*
X136563683Y-89246351D01*
X136577724Y-89242834D01*
X136592042Y-89240710D01*
X136606500Y-89240000D01*
X136951500Y-89240000D01*
X136965958Y-89240710D01*
G37*
G36*
X136965958Y-90210710D02*
G01*
X136980276Y-90212834D01*
X136994317Y-90216351D01*
X137007946Y-90221228D01*
X137021031Y-90227417D01*
X137033447Y-90234858D01*
X137045073Y-90243481D01*
X137055798Y-90253202D01*
X137065519Y-90263927D01*
X137074142Y-90275553D01*
X137081583Y-90287969D01*
X137087772Y-90301054D01*
X137092649Y-90314683D01*
X137096166Y-90328724D01*
X137098290Y-90343042D01*
X137099000Y-90357500D01*
X137099000Y-90652500D01*
X137098290Y-90666958D01*
X137096166Y-90681276D01*
X137092649Y-90695317D01*
X137087772Y-90708946D01*
X137081583Y-90722031D01*
X137074142Y-90734447D01*
X137065519Y-90746073D01*
X137055798Y-90756798D01*
X137045073Y-90766519D01*
X137033447Y-90775142D01*
X137021031Y-90782583D01*
X137007946Y-90788772D01*
X136994317Y-90793649D01*
X136980276Y-90797166D01*
X136965958Y-90799290D01*
X136951500Y-90800000D01*
X136606500Y-90800000D01*
X136592042Y-90799290D01*
X136577724Y-90797166D01*
X136563683Y-90793649D01*
X136550054Y-90788772D01*
X136536969Y-90782583D01*
X136524553Y-90775142D01*
X136512927Y-90766519D01*
X136502202Y-90756798D01*
X136492481Y-90746073D01*
X136483858Y-90734447D01*
X136476417Y-90722031D01*
X136470228Y-90708946D01*
X136465351Y-90695317D01*
X136461834Y-90681276D01*
X136459710Y-90666958D01*
X136459000Y-90652500D01*
X136459000Y-90357500D01*
X136459710Y-90343042D01*
X136461834Y-90328724D01*
X136465351Y-90314683D01*
X136470228Y-90301054D01*
X136476417Y-90287969D01*
X136483858Y-90275553D01*
X136492481Y-90263927D01*
X136502202Y-90253202D01*
X136512927Y-90243481D01*
X136524553Y-90234858D01*
X136536969Y-90227417D01*
X136550054Y-90221228D01*
X136563683Y-90216351D01*
X136577724Y-90212834D01*
X136592042Y-90210710D01*
X136606500Y-90210000D01*
X136951500Y-90210000D01*
X136965958Y-90210710D01*
G37*
G36*
X123123358Y-91730310D02*
G01*
X123137676Y-91732434D01*
X123151717Y-91735951D01*
X123165346Y-91740828D01*
X123178431Y-91747017D01*
X123190847Y-91754458D01*
X123202473Y-91763081D01*
X123213198Y-91772802D01*
X123222919Y-91783527D01*
X123231542Y-91795153D01*
X123238983Y-91807569D01*
X123245172Y-91820654D01*
X123250049Y-91834283D01*
X123253566Y-91848324D01*
X123255690Y-91862642D01*
X123256400Y-91877100D01*
X123256400Y-92222100D01*
X123255690Y-92236558D01*
X123253566Y-92250876D01*
X123250049Y-92264917D01*
X123245172Y-92278546D01*
X123238983Y-92291631D01*
X123231542Y-92304047D01*
X123222919Y-92315673D01*
X123213198Y-92326398D01*
X123202473Y-92336119D01*
X123190847Y-92344742D01*
X123178431Y-92352183D01*
X123165346Y-92358372D01*
X123151717Y-92363249D01*
X123137676Y-92366766D01*
X123123358Y-92368890D01*
X123108900Y-92369600D01*
X122813900Y-92369600D01*
X122799442Y-92368890D01*
X122785124Y-92366766D01*
X122771083Y-92363249D01*
X122757454Y-92358372D01*
X122744369Y-92352183D01*
X122731953Y-92344742D01*
X122720327Y-92336119D01*
X122709602Y-92326398D01*
X122699881Y-92315673D01*
X122691258Y-92304047D01*
X122683817Y-92291631D01*
X122677628Y-92278546D01*
X122672751Y-92264917D01*
X122669234Y-92250876D01*
X122667110Y-92236558D01*
X122666400Y-92222100D01*
X122666400Y-91877100D01*
X122667110Y-91862642D01*
X122669234Y-91848324D01*
X122672751Y-91834283D01*
X122677628Y-91820654D01*
X122683817Y-91807569D01*
X122691258Y-91795153D01*
X122699881Y-91783527D01*
X122709602Y-91772802D01*
X122720327Y-91763081D01*
X122731953Y-91754458D01*
X122744369Y-91747017D01*
X122757454Y-91740828D01*
X122771083Y-91735951D01*
X122785124Y-91732434D01*
X122799442Y-91730310D01*
X122813900Y-91729600D01*
X123108900Y-91729600D01*
X123123358Y-91730310D01*
G37*
G36*
X124093358Y-91730310D02*
G01*
X124107676Y-91732434D01*
X124121717Y-91735951D01*
X124135346Y-91740828D01*
X124148431Y-91747017D01*
X124160847Y-91754458D01*
X124172473Y-91763081D01*
X124183198Y-91772802D01*
X124192919Y-91783527D01*
X124201542Y-91795153D01*
X124208983Y-91807569D01*
X124215172Y-91820654D01*
X124220049Y-91834283D01*
X124223566Y-91848324D01*
X124225690Y-91862642D01*
X124226400Y-91877100D01*
X124226400Y-92222100D01*
X124225690Y-92236558D01*
X124223566Y-92250876D01*
X124220049Y-92264917D01*
X124215172Y-92278546D01*
X124208983Y-92291631D01*
X124201542Y-92304047D01*
X124192919Y-92315673D01*
X124183198Y-92326398D01*
X124172473Y-92336119D01*
X124160847Y-92344742D01*
X124148431Y-92352183D01*
X124135346Y-92358372D01*
X124121717Y-92363249D01*
X124107676Y-92366766D01*
X124093358Y-92368890D01*
X124078900Y-92369600D01*
X123783900Y-92369600D01*
X123769442Y-92368890D01*
X123755124Y-92366766D01*
X123741083Y-92363249D01*
X123727454Y-92358372D01*
X123714369Y-92352183D01*
X123701953Y-92344742D01*
X123690327Y-92336119D01*
X123679602Y-92326398D01*
X123669881Y-92315673D01*
X123661258Y-92304047D01*
X123653817Y-92291631D01*
X123647628Y-92278546D01*
X123642751Y-92264917D01*
X123639234Y-92250876D01*
X123637110Y-92236558D01*
X123636400Y-92222100D01*
X123636400Y-91877100D01*
X123637110Y-91862642D01*
X123639234Y-91848324D01*
X123642751Y-91834283D01*
X123647628Y-91820654D01*
X123653817Y-91807569D01*
X123661258Y-91795153D01*
X123669881Y-91783527D01*
X123679602Y-91772802D01*
X123690327Y-91763081D01*
X123701953Y-91754458D01*
X123714369Y-91747017D01*
X123727454Y-91740828D01*
X123741083Y-91735951D01*
X123755124Y-91732434D01*
X123769442Y-91730310D01*
X123783900Y-91729600D01*
X124078900Y-91729600D01*
X124093358Y-91730310D01*
G37*
G36*
X127944558Y-89952310D02*
G01*
X127958876Y-89954434D01*
X127972917Y-89957951D01*
X127986546Y-89962828D01*
X127999631Y-89969017D01*
X128012047Y-89976458D01*
X128023673Y-89985081D01*
X128034398Y-89994802D01*
X128044119Y-90005527D01*
X128052742Y-90017153D01*
X128060183Y-90029569D01*
X128066372Y-90042654D01*
X128071249Y-90056283D01*
X128074766Y-90070324D01*
X128076890Y-90084642D01*
X128077600Y-90099100D01*
X128077600Y-90444100D01*
X128076890Y-90458558D01*
X128074766Y-90472876D01*
X128071249Y-90486917D01*
X128066372Y-90500546D01*
X128060183Y-90513631D01*
X128052742Y-90526047D01*
X128044119Y-90537673D01*
X128034398Y-90548398D01*
X128023673Y-90558119D01*
X128012047Y-90566742D01*
X127999631Y-90574183D01*
X127986546Y-90580372D01*
X127972917Y-90585249D01*
X127958876Y-90588766D01*
X127944558Y-90590890D01*
X127930100Y-90591600D01*
X127635100Y-90591600D01*
X127620642Y-90590890D01*
X127606324Y-90588766D01*
X127592283Y-90585249D01*
X127578654Y-90580372D01*
X127565569Y-90574183D01*
X127553153Y-90566742D01*
X127541527Y-90558119D01*
X127530802Y-90548398D01*
X127521081Y-90537673D01*
X127512458Y-90526047D01*
X127505017Y-90513631D01*
X127498828Y-90500546D01*
X127493951Y-90486917D01*
X127490434Y-90472876D01*
X127488310Y-90458558D01*
X127487600Y-90444100D01*
X127487600Y-90099100D01*
X127488310Y-90084642D01*
X127490434Y-90070324D01*
X127493951Y-90056283D01*
X127498828Y-90042654D01*
X127505017Y-90029569D01*
X127512458Y-90017153D01*
X127521081Y-90005527D01*
X127530802Y-89994802D01*
X127541527Y-89985081D01*
X127553153Y-89976458D01*
X127565569Y-89969017D01*
X127578654Y-89962828D01*
X127592283Y-89957951D01*
X127606324Y-89954434D01*
X127620642Y-89952310D01*
X127635100Y-89951600D01*
X127930100Y-89951600D01*
X127944558Y-89952310D01*
G37*
G36*
X128914558Y-89952310D02*
G01*
X128928876Y-89954434D01*
X128942917Y-89957951D01*
X128956546Y-89962828D01*
X128969631Y-89969017D01*
X128982047Y-89976458D01*
X128993673Y-89985081D01*
X129004398Y-89994802D01*
X129014119Y-90005527D01*
X129022742Y-90017153D01*
X129030183Y-90029569D01*
X129036372Y-90042654D01*
X129041249Y-90056283D01*
X129044766Y-90070324D01*
X129046890Y-90084642D01*
X129047600Y-90099100D01*
X129047600Y-90444100D01*
X129046890Y-90458558D01*
X129044766Y-90472876D01*
X129041249Y-90486917D01*
X129036372Y-90500546D01*
X129030183Y-90513631D01*
X129022742Y-90526047D01*
X129014119Y-90537673D01*
X129004398Y-90548398D01*
X128993673Y-90558119D01*
X128982047Y-90566742D01*
X128969631Y-90574183D01*
X128956546Y-90580372D01*
X128942917Y-90585249D01*
X128928876Y-90588766D01*
X128914558Y-90590890D01*
X128900100Y-90591600D01*
X128605100Y-90591600D01*
X128590642Y-90590890D01*
X128576324Y-90588766D01*
X128562283Y-90585249D01*
X128548654Y-90580372D01*
X128535569Y-90574183D01*
X128523153Y-90566742D01*
X128511527Y-90558119D01*
X128500802Y-90548398D01*
X128491081Y-90537673D01*
X128482458Y-90526047D01*
X128475017Y-90513631D01*
X128468828Y-90500546D01*
X128463951Y-90486917D01*
X128460434Y-90472876D01*
X128458310Y-90458558D01*
X128457600Y-90444100D01*
X128457600Y-90099100D01*
X128458310Y-90084642D01*
X128460434Y-90070324D01*
X128463951Y-90056283D01*
X128468828Y-90042654D01*
X128475017Y-90029569D01*
X128482458Y-90017153D01*
X128491081Y-90005527D01*
X128500802Y-89994802D01*
X128511527Y-89985081D01*
X128523153Y-89976458D01*
X128535569Y-89969017D01*
X128548654Y-89962828D01*
X128562283Y-89957951D01*
X128576324Y-89954434D01*
X128590642Y-89952310D01*
X128605100Y-89951600D01*
X128900100Y-89951600D01*
X128914558Y-89952310D01*
G37*
G36*
X123986558Y-97043310D02*
G01*
X124000876Y-97045434D01*
X124014917Y-97048951D01*
X124028546Y-97053828D01*
X124041631Y-97060017D01*
X124054047Y-97067458D01*
X124065673Y-97076081D01*
X124076398Y-97085802D01*
X124086119Y-97096527D01*
X124094742Y-97108153D01*
X124102183Y-97120569D01*
X124108372Y-97133654D01*
X124113249Y-97147283D01*
X124116766Y-97161324D01*
X124118890Y-97175642D01*
X124119600Y-97190100D01*
X124119600Y-97485100D01*
X124118890Y-97499558D01*
X124116766Y-97513876D01*
X124113249Y-97527917D01*
X124108372Y-97541546D01*
X124102183Y-97554631D01*
X124094742Y-97567047D01*
X124086119Y-97578673D01*
X124076398Y-97589398D01*
X124065673Y-97599119D01*
X124054047Y-97607742D01*
X124041631Y-97615183D01*
X124028546Y-97621372D01*
X124014917Y-97626249D01*
X124000876Y-97629766D01*
X123986558Y-97631890D01*
X123972100Y-97632600D01*
X123627100Y-97632600D01*
X123612642Y-97631890D01*
X123598324Y-97629766D01*
X123584283Y-97626249D01*
X123570654Y-97621372D01*
X123557569Y-97615183D01*
X123545153Y-97607742D01*
X123533527Y-97599119D01*
X123522802Y-97589398D01*
X123513081Y-97578673D01*
X123504458Y-97567047D01*
X123497017Y-97554631D01*
X123490828Y-97541546D01*
X123485951Y-97527917D01*
X123482434Y-97513876D01*
X123480310Y-97499558D01*
X123479600Y-97485100D01*
X123479600Y-97190100D01*
X123480310Y-97175642D01*
X123482434Y-97161324D01*
X123485951Y-97147283D01*
X123490828Y-97133654D01*
X123497017Y-97120569D01*
X123504458Y-97108153D01*
X123513081Y-97096527D01*
X123522802Y-97085802D01*
X123533527Y-97076081D01*
X123545153Y-97067458D01*
X123557569Y-97060017D01*
X123570654Y-97053828D01*
X123584283Y-97048951D01*
X123598324Y-97045434D01*
X123612642Y-97043310D01*
X123627100Y-97042600D01*
X123972100Y-97042600D01*
X123986558Y-97043310D01*
G37*
G36*
X123986558Y-96073310D02*
G01*
X124000876Y-96075434D01*
X124014917Y-96078951D01*
X124028546Y-96083828D01*
X124041631Y-96090017D01*
X124054047Y-96097458D01*
X124065673Y-96106081D01*
X124076398Y-96115802D01*
X124086119Y-96126527D01*
X124094742Y-96138153D01*
X124102183Y-96150569D01*
X124108372Y-96163654D01*
X124113249Y-96177283D01*
X124116766Y-96191324D01*
X124118890Y-96205642D01*
X124119600Y-96220100D01*
X124119600Y-96515100D01*
X124118890Y-96529558D01*
X124116766Y-96543876D01*
X124113249Y-96557917D01*
X124108372Y-96571546D01*
X124102183Y-96584631D01*
X124094742Y-96597047D01*
X124086119Y-96608673D01*
X124076398Y-96619398D01*
X124065673Y-96629119D01*
X124054047Y-96637742D01*
X124041631Y-96645183D01*
X124028546Y-96651372D01*
X124014917Y-96656249D01*
X124000876Y-96659766D01*
X123986558Y-96661890D01*
X123972100Y-96662600D01*
X123627100Y-96662600D01*
X123612642Y-96661890D01*
X123598324Y-96659766D01*
X123584283Y-96656249D01*
X123570654Y-96651372D01*
X123557569Y-96645183D01*
X123545153Y-96637742D01*
X123533527Y-96629119D01*
X123522802Y-96619398D01*
X123513081Y-96608673D01*
X123504458Y-96597047D01*
X123497017Y-96584631D01*
X123490828Y-96571546D01*
X123485951Y-96557917D01*
X123482434Y-96543876D01*
X123480310Y-96529558D01*
X123479600Y-96515100D01*
X123479600Y-96220100D01*
X123480310Y-96205642D01*
X123482434Y-96191324D01*
X123485951Y-96177283D01*
X123490828Y-96163654D01*
X123497017Y-96150569D01*
X123504458Y-96138153D01*
X123513081Y-96126527D01*
X123522802Y-96115802D01*
X123533527Y-96106081D01*
X123545153Y-96097458D01*
X123557569Y-96090017D01*
X123570654Y-96083828D01*
X123584283Y-96078951D01*
X123598324Y-96075434D01*
X123612642Y-96073310D01*
X123627100Y-96072600D01*
X123972100Y-96072600D01*
X123986558Y-96073310D01*
G37*
G36*
X118836904Y-96047504D02*
G01*
X118861173Y-96051104D01*
X118884971Y-96057065D01*
X118908071Y-96065330D01*
X118930249Y-96075820D01*
X118951293Y-96088433D01*
X118970998Y-96103047D01*
X118989177Y-96119523D01*
X119005653Y-96137702D01*
X119020267Y-96157407D01*
X119032880Y-96178451D01*
X119043370Y-96200629D01*
X119051635Y-96223729D01*
X119057596Y-96247527D01*
X119061196Y-96271796D01*
X119062400Y-96296300D01*
X119062400Y-99121300D01*
X119061196Y-99145804D01*
X119057596Y-99170073D01*
X119051635Y-99193871D01*
X119043370Y-99216971D01*
X119032880Y-99239149D01*
X119020267Y-99260193D01*
X119005653Y-99279898D01*
X118989177Y-99298077D01*
X118970998Y-99314553D01*
X118951293Y-99329167D01*
X118930249Y-99341780D01*
X118908071Y-99352270D01*
X118884971Y-99360535D01*
X118861173Y-99366496D01*
X118836904Y-99370096D01*
X118812400Y-99371300D01*
X117712400Y-99371300D01*
X117687896Y-99370096D01*
X117663627Y-99366496D01*
X117639829Y-99360535D01*
X117616729Y-99352270D01*
X117594551Y-99341780D01*
X117573507Y-99329167D01*
X117553802Y-99314553D01*
X117535623Y-99298077D01*
X117519147Y-99279898D01*
X117504533Y-99260193D01*
X117491920Y-99239149D01*
X117481430Y-99216971D01*
X117473165Y-99193871D01*
X117467204Y-99170073D01*
X117463604Y-99145804D01*
X117462400Y-99121300D01*
X117462400Y-96296300D01*
X117463604Y-96271796D01*
X117467204Y-96247527D01*
X117473165Y-96223729D01*
X117481430Y-96200629D01*
X117491920Y-96178451D01*
X117504533Y-96157407D01*
X117519147Y-96137702D01*
X117535623Y-96119523D01*
X117553802Y-96103047D01*
X117573507Y-96088433D01*
X117594551Y-96075820D01*
X117616729Y-96065330D01*
X117639829Y-96057065D01*
X117663627Y-96051104D01*
X117687896Y-96047504D01*
X117712400Y-96046300D01*
X118812400Y-96046300D01*
X118836904Y-96047504D01*
G37*
G36*
X118836904Y-90972504D02*
G01*
X118861173Y-90976104D01*
X118884971Y-90982065D01*
X118908071Y-90990330D01*
X118930249Y-91000820D01*
X118951293Y-91013433D01*
X118970998Y-91028047D01*
X118989177Y-91044523D01*
X119005653Y-91062702D01*
X119020267Y-91082407D01*
X119032880Y-91103451D01*
X119043370Y-91125629D01*
X119051635Y-91148729D01*
X119057596Y-91172527D01*
X119061196Y-91196796D01*
X119062400Y-91221300D01*
X119062400Y-94046300D01*
X119061196Y-94070804D01*
X119057596Y-94095073D01*
X119051635Y-94118871D01*
X119043370Y-94141971D01*
X119032880Y-94164149D01*
X119020267Y-94185193D01*
X119005653Y-94204898D01*
X118989177Y-94223077D01*
X118970998Y-94239553D01*
X118951293Y-94254167D01*
X118930249Y-94266780D01*
X118908071Y-94277270D01*
X118884971Y-94285535D01*
X118861173Y-94291496D01*
X118836904Y-94295096D01*
X118812400Y-94296300D01*
X117712400Y-94296300D01*
X117687896Y-94295096D01*
X117663627Y-94291496D01*
X117639829Y-94285535D01*
X117616729Y-94277270D01*
X117594551Y-94266780D01*
X117573507Y-94254167D01*
X117553802Y-94239553D01*
X117535623Y-94223077D01*
X117519147Y-94204898D01*
X117504533Y-94185193D01*
X117491920Y-94164149D01*
X117481430Y-94141971D01*
X117473165Y-94118871D01*
X117467204Y-94095073D01*
X117463604Y-94070804D01*
X117462400Y-94046300D01*
X117462400Y-91221300D01*
X117463604Y-91196796D01*
X117467204Y-91172527D01*
X117473165Y-91148729D01*
X117481430Y-91125629D01*
X117491920Y-91103451D01*
X117504533Y-91082407D01*
X117519147Y-91062702D01*
X117535623Y-91044523D01*
X117553802Y-91028047D01*
X117573507Y-91013433D01*
X117594551Y-91000820D01*
X117616729Y-90990330D01*
X117639829Y-90982065D01*
X117663627Y-90976104D01*
X117687896Y-90972504D01*
X117712400Y-90971300D01*
X118812400Y-90971300D01*
X118836904Y-90972504D01*
G37*
M02*
