G04 #@! TF.GenerationSoftware,KiCad,Pcbnew,(5.1.5)-3*
G04 #@! TF.CreationDate,2020-10-16T19:19:18-07:00*
G04 #@! TF.ProjectId,teensy4_ramps,7465656e-7379-4345-9f72-616d70732e6b,rev?*
G04 #@! TF.SameCoordinates,Original*
G04 #@! TF.FileFunction,Copper,L1,Top*
G04 #@! TF.FilePolarity,Positive*
%FSLAX46Y46*%
G04 Gerber Fmt 4.6, Leading zero omitted, Abs format (unit mm)*
G04 Created by KiCad (PCBNEW (5.1.5)-3) date 2020-10-16 19:19:18*
%MOMM*%
%LPD*%
G04 APERTURE LIST*
%ADD10O,1.727200X1.727200*%
%ADD11R,0.600000X0.450000*%
%ADD12C,0.100000*%
%ADD13O,1.700000X1.700000*%
%ADD14R,1.700000X1.700000*%
%ADD15C,1.300000*%
%ADD16C,1.600000*%
%ADD17R,1.300000X1.300000*%
%ADD18R,1.600000X1.600000*%
%ADD19R,0.650000X1.060000*%
%ADD20R,1.500000X4.200000*%
%ADD21R,3.500000X3.500000*%
%ADD22R,1.700000X2.000000*%
%ADD23R,2.000000X0.500000*%
%ADD24R,2.500000X1.800000*%
%ADD25C,1.000000*%
%ADD26C,0.800000*%
%ADD27C,0.500000*%
%ADD28C,0.250000*%
%ADD29C,0.200000*%
%ADD30C,0.205740*%
%ADD31C,1.000000*%
%ADD32C,0.254000*%
G04 APERTURE END LIST*
D10*
X165124800Y-73649600D03*
X198017800Y-96509600D03*
X195477800Y-96509600D03*
X198017800Y-93969600D03*
X195477800Y-93969600D03*
X198017800Y-91429600D03*
X195477800Y-91429600D03*
X198017800Y-88889600D03*
X195477800Y-88889600D03*
X198017800Y-86349600D03*
X195477800Y-86349600D03*
X198017800Y-83809600D03*
X195477800Y-83809600D03*
X198017800Y-81269600D03*
X195477800Y-81269600D03*
X198017800Y-78729600D03*
X195477800Y-78729600D03*
X198017800Y-76189600D03*
X195477800Y-76189600D03*
X198017800Y-73649600D03*
X195477800Y-73649600D03*
X198017800Y-71109600D03*
X195477800Y-71109600D03*
X198017800Y-68569600D03*
X195477800Y-68569600D03*
X198017800Y-66029600D03*
X195477800Y-66029600D03*
X198017800Y-63489600D03*
X195477800Y-63489600D03*
X198017800Y-60949600D03*
X195477800Y-60949600D03*
X198017800Y-58409600D03*
X195477800Y-58409600D03*
X198017800Y-55869600D03*
X195477800Y-55869600D03*
X198017800Y-53329600D03*
X195477800Y-53329600D03*
X192937800Y-101589600D03*
X190397800Y-101589600D03*
X187857800Y-101589600D03*
X185317800Y-101589600D03*
X182777800Y-101589600D03*
X180237800Y-101589600D03*
X177697800Y-101589600D03*
X175157800Y-101589600D03*
X170077800Y-101589600D03*
X167537800Y-101589600D03*
X164997800Y-101589600D03*
X162457800Y-101589600D03*
X159917800Y-101589600D03*
X157377800Y-101589600D03*
X154837800Y-101589600D03*
X129437800Y-101589600D03*
X135533800Y-53329600D03*
X132993800Y-53329600D03*
X130453800Y-53329600D03*
X125373800Y-53329600D03*
X122833800Y-53329600D03*
X120293800Y-53329600D03*
X138073800Y-53329600D03*
X140613800Y-53329600D03*
X143153800Y-53329600D03*
X127913800Y-53329600D03*
X147217800Y-53329600D03*
X149757800Y-53329600D03*
X152297800Y-53329600D03*
X154837800Y-53329600D03*
X157377800Y-53329600D03*
X159917800Y-53329600D03*
X162457800Y-53329600D03*
X164997800Y-53329600D03*
X170077800Y-53329600D03*
X172617800Y-53329600D03*
X175157800Y-53329600D03*
X177697800Y-53329600D03*
X180237800Y-53329600D03*
X182777800Y-53329600D03*
X185317800Y-53329600D03*
X187857800Y-53329600D03*
X131977800Y-101589600D03*
X134517800Y-101589600D03*
X137057800Y-101589600D03*
X139597800Y-101589600D03*
X142137800Y-101589600D03*
X144677800Y-101589600D03*
X147217800Y-101589600D03*
X152297800Y-101589600D03*
X167664800Y-73649600D03*
X165124800Y-76189600D03*
X167664800Y-76189600D03*
X167664800Y-78729600D03*
X165124800Y-78729600D03*
D11*
X130786600Y-97637600D03*
X128686600Y-97637600D03*
G04 #@! TA.AperFunction,SMDPad,CuDef*
D12*
G36*
X143580704Y-92063604D02*
G01*
X143604973Y-92067204D01*
X143628771Y-92073165D01*
X143651871Y-92081430D01*
X143674049Y-92091920D01*
X143695093Y-92104533D01*
X143714798Y-92119147D01*
X143732977Y-92135623D01*
X143749453Y-92153802D01*
X143764067Y-92173507D01*
X143776680Y-92194551D01*
X143787170Y-92216729D01*
X143795435Y-92239829D01*
X143801396Y-92263627D01*
X143804996Y-92287896D01*
X143806200Y-92312400D01*
X143806200Y-93412400D01*
X143804996Y-93436904D01*
X143801396Y-93461173D01*
X143795435Y-93484971D01*
X143787170Y-93508071D01*
X143776680Y-93530249D01*
X143764067Y-93551293D01*
X143749453Y-93570998D01*
X143732977Y-93589177D01*
X143714798Y-93605653D01*
X143695093Y-93620267D01*
X143674049Y-93632880D01*
X143651871Y-93643370D01*
X143628771Y-93651635D01*
X143604973Y-93657596D01*
X143580704Y-93661196D01*
X143556200Y-93662400D01*
X141456200Y-93662400D01*
X141431696Y-93661196D01*
X141407427Y-93657596D01*
X141383629Y-93651635D01*
X141360529Y-93643370D01*
X141338351Y-93632880D01*
X141317307Y-93620267D01*
X141297602Y-93605653D01*
X141279423Y-93589177D01*
X141262947Y-93570998D01*
X141248333Y-93551293D01*
X141235720Y-93530249D01*
X141225230Y-93508071D01*
X141216965Y-93484971D01*
X141211004Y-93461173D01*
X141207404Y-93436904D01*
X141206200Y-93412400D01*
X141206200Y-92312400D01*
X141207404Y-92287896D01*
X141211004Y-92263627D01*
X141216965Y-92239829D01*
X141225230Y-92216729D01*
X141235720Y-92194551D01*
X141248333Y-92173507D01*
X141262947Y-92153802D01*
X141279423Y-92135623D01*
X141297602Y-92119147D01*
X141317307Y-92104533D01*
X141338351Y-92091920D01*
X141360529Y-92081430D01*
X141383629Y-92073165D01*
X141407427Y-92067204D01*
X141431696Y-92063604D01*
X141456200Y-92062400D01*
X143556200Y-92062400D01*
X143580704Y-92063604D01*
G37*
G04 #@! TD.AperFunction*
G04 #@! TA.AperFunction,SMDPad,CuDef*
G36*
X139980704Y-92063604D02*
G01*
X140004973Y-92067204D01*
X140028771Y-92073165D01*
X140051871Y-92081430D01*
X140074049Y-92091920D01*
X140095093Y-92104533D01*
X140114798Y-92119147D01*
X140132977Y-92135623D01*
X140149453Y-92153802D01*
X140164067Y-92173507D01*
X140176680Y-92194551D01*
X140187170Y-92216729D01*
X140195435Y-92239829D01*
X140201396Y-92263627D01*
X140204996Y-92287896D01*
X140206200Y-92312400D01*
X140206200Y-93412400D01*
X140204996Y-93436904D01*
X140201396Y-93461173D01*
X140195435Y-93484971D01*
X140187170Y-93508071D01*
X140176680Y-93530249D01*
X140164067Y-93551293D01*
X140149453Y-93570998D01*
X140132977Y-93589177D01*
X140114798Y-93605653D01*
X140095093Y-93620267D01*
X140074049Y-93632880D01*
X140051871Y-93643370D01*
X140028771Y-93651635D01*
X140004973Y-93657596D01*
X139980704Y-93661196D01*
X139956200Y-93662400D01*
X137856200Y-93662400D01*
X137831696Y-93661196D01*
X137807427Y-93657596D01*
X137783629Y-93651635D01*
X137760529Y-93643370D01*
X137738351Y-93632880D01*
X137717307Y-93620267D01*
X137697602Y-93605653D01*
X137679423Y-93589177D01*
X137662947Y-93570998D01*
X137648333Y-93551293D01*
X137635720Y-93530249D01*
X137625230Y-93508071D01*
X137616965Y-93484971D01*
X137611004Y-93461173D01*
X137607404Y-93436904D01*
X137606200Y-93412400D01*
X137606200Y-92312400D01*
X137607404Y-92287896D01*
X137611004Y-92263627D01*
X137616965Y-92239829D01*
X137625230Y-92216729D01*
X137635720Y-92194551D01*
X137648333Y-92173507D01*
X137662947Y-92153802D01*
X137679423Y-92135623D01*
X137697602Y-92119147D01*
X137717307Y-92104533D01*
X137738351Y-92091920D01*
X137760529Y-92081430D01*
X137783629Y-92073165D01*
X137807427Y-92067204D01*
X137831696Y-92063604D01*
X137856200Y-92062400D01*
X139956200Y-92062400D01*
X139980704Y-92063604D01*
G37*
G04 #@! TD.AperFunction*
D13*
X140970000Y-98044000D03*
X138430000Y-98044000D03*
D14*
X135890000Y-98044000D03*
D15*
X160864800Y-76733400D03*
X160864800Y-74193400D03*
D16*
X115874800Y-80543400D03*
X115874800Y-78003400D03*
X115874800Y-75463400D03*
X115874800Y-72923400D03*
X115874800Y-70383400D03*
D15*
X148624800Y-76645000D03*
X146624800Y-76645000D03*
X146624800Y-78645000D03*
X148624800Y-78645000D03*
X146624800Y-80645000D03*
D17*
X148624800Y-80645000D03*
D16*
X120954800Y-67843400D03*
X118414800Y-67843400D03*
X115874800Y-67843400D03*
X113334800Y-67843400D03*
X123494800Y-67843400D03*
X126034800Y-67843400D03*
X128574800Y-67843400D03*
X110794800Y-67843400D03*
X108254800Y-67843400D03*
X105714800Y-67843400D03*
X103174800Y-67843400D03*
X103174800Y-83083400D03*
X105714800Y-83083400D03*
X108254800Y-83083400D03*
X110794800Y-83083400D03*
X113334800Y-83083400D03*
X115874800Y-83083400D03*
X118414800Y-83083400D03*
X120954800Y-83083400D03*
X123494800Y-83083400D03*
X126034800Y-83083400D03*
X131114800Y-67843400D03*
X133654800Y-67843400D03*
X136194800Y-67843400D03*
X138734800Y-67843400D03*
X141274800Y-67843400D03*
X143814800Y-67843400D03*
X146354800Y-67843400D03*
X148894800Y-67843400D03*
X151434800Y-67843400D03*
X153974800Y-67843400D03*
X156514800Y-67843400D03*
X159054800Y-67843400D03*
D18*
X161594800Y-67843400D03*
D16*
X128574800Y-83083400D03*
X131114800Y-83083400D03*
X133654800Y-83083400D03*
X136194800Y-83083400D03*
X138734800Y-83083400D03*
X141274800Y-83083400D03*
X143814800Y-83083400D03*
X146354800Y-83083400D03*
X148894800Y-83083400D03*
X151434800Y-83083400D03*
X153974800Y-83083400D03*
X156514800Y-83083400D03*
X159054800Y-83083400D03*
X161594800Y-83083400D03*
D18*
X155295600Y-70894200D03*
D16*
X152755600Y-70894200D03*
X150215600Y-70894200D03*
X147675600Y-70894200D03*
X145135600Y-70894200D03*
X159054800Y-80543400D03*
D19*
X126415800Y-94452800D03*
X127365800Y-94452800D03*
X125465800Y-94452800D03*
X125465800Y-92252800D03*
X126415800Y-92252800D03*
X127365800Y-92252800D03*
G04 #@! TA.AperFunction,SMDPad,CuDef*
D12*
G36*
X124093358Y-89952310D02*
G01*
X124107676Y-89954434D01*
X124121717Y-89957951D01*
X124135346Y-89962828D01*
X124148431Y-89969017D01*
X124160847Y-89976458D01*
X124172473Y-89985081D01*
X124183198Y-89994802D01*
X124192919Y-90005527D01*
X124201542Y-90017153D01*
X124208983Y-90029569D01*
X124215172Y-90042654D01*
X124220049Y-90056283D01*
X124223566Y-90070324D01*
X124225690Y-90084642D01*
X124226400Y-90099100D01*
X124226400Y-90444100D01*
X124225690Y-90458558D01*
X124223566Y-90472876D01*
X124220049Y-90486917D01*
X124215172Y-90500546D01*
X124208983Y-90513631D01*
X124201542Y-90526047D01*
X124192919Y-90537673D01*
X124183198Y-90548398D01*
X124172473Y-90558119D01*
X124160847Y-90566742D01*
X124148431Y-90574183D01*
X124135346Y-90580372D01*
X124121717Y-90585249D01*
X124107676Y-90588766D01*
X124093358Y-90590890D01*
X124078900Y-90591600D01*
X123783900Y-90591600D01*
X123769442Y-90590890D01*
X123755124Y-90588766D01*
X123741083Y-90585249D01*
X123727454Y-90580372D01*
X123714369Y-90574183D01*
X123701953Y-90566742D01*
X123690327Y-90558119D01*
X123679602Y-90548398D01*
X123669881Y-90537673D01*
X123661258Y-90526047D01*
X123653817Y-90513631D01*
X123647628Y-90500546D01*
X123642751Y-90486917D01*
X123639234Y-90472876D01*
X123637110Y-90458558D01*
X123636400Y-90444100D01*
X123636400Y-90099100D01*
X123637110Y-90084642D01*
X123639234Y-90070324D01*
X123642751Y-90056283D01*
X123647628Y-90042654D01*
X123653817Y-90029569D01*
X123661258Y-90017153D01*
X123669881Y-90005527D01*
X123679602Y-89994802D01*
X123690327Y-89985081D01*
X123701953Y-89976458D01*
X123714369Y-89969017D01*
X123727454Y-89962828D01*
X123741083Y-89957951D01*
X123755124Y-89954434D01*
X123769442Y-89952310D01*
X123783900Y-89951600D01*
X124078900Y-89951600D01*
X124093358Y-89952310D01*
G37*
G04 #@! TD.AperFunction*
G04 #@! TA.AperFunction,SMDPad,CuDef*
G36*
X123123358Y-89952310D02*
G01*
X123137676Y-89954434D01*
X123151717Y-89957951D01*
X123165346Y-89962828D01*
X123178431Y-89969017D01*
X123190847Y-89976458D01*
X123202473Y-89985081D01*
X123213198Y-89994802D01*
X123222919Y-90005527D01*
X123231542Y-90017153D01*
X123238983Y-90029569D01*
X123245172Y-90042654D01*
X123250049Y-90056283D01*
X123253566Y-90070324D01*
X123255690Y-90084642D01*
X123256400Y-90099100D01*
X123256400Y-90444100D01*
X123255690Y-90458558D01*
X123253566Y-90472876D01*
X123250049Y-90486917D01*
X123245172Y-90500546D01*
X123238983Y-90513631D01*
X123231542Y-90526047D01*
X123222919Y-90537673D01*
X123213198Y-90548398D01*
X123202473Y-90558119D01*
X123190847Y-90566742D01*
X123178431Y-90574183D01*
X123165346Y-90580372D01*
X123151717Y-90585249D01*
X123137676Y-90588766D01*
X123123358Y-90590890D01*
X123108900Y-90591600D01*
X122813900Y-90591600D01*
X122799442Y-90590890D01*
X122785124Y-90588766D01*
X122771083Y-90585249D01*
X122757454Y-90580372D01*
X122744369Y-90574183D01*
X122731953Y-90566742D01*
X122720327Y-90558119D01*
X122709602Y-90548398D01*
X122699881Y-90537673D01*
X122691258Y-90526047D01*
X122683817Y-90513631D01*
X122677628Y-90500546D01*
X122672751Y-90486917D01*
X122669234Y-90472876D01*
X122667110Y-90458558D01*
X122666400Y-90444100D01*
X122666400Y-90099100D01*
X122667110Y-90084642D01*
X122669234Y-90070324D01*
X122672751Y-90056283D01*
X122677628Y-90042654D01*
X122683817Y-90029569D01*
X122691258Y-90017153D01*
X122699881Y-90005527D01*
X122709602Y-89994802D01*
X122720327Y-89985081D01*
X122731953Y-89976458D01*
X122744369Y-89969017D01*
X122757454Y-89962828D01*
X122771083Y-89957951D01*
X122785124Y-89954434D01*
X122799442Y-89952310D01*
X122813900Y-89951600D01*
X123108900Y-89951600D01*
X123123358Y-89952310D01*
G37*
G04 #@! TD.AperFunction*
G04 #@! TA.AperFunction,SMDPad,CuDef*
G36*
X125612158Y-89956710D02*
G01*
X125626476Y-89958834D01*
X125640517Y-89962351D01*
X125654146Y-89967228D01*
X125667231Y-89973417D01*
X125679647Y-89980858D01*
X125691273Y-89989481D01*
X125701998Y-89999202D01*
X125711719Y-90009927D01*
X125720342Y-90021553D01*
X125727783Y-90033969D01*
X125733972Y-90047054D01*
X125738849Y-90060683D01*
X125742366Y-90074724D01*
X125744490Y-90089042D01*
X125745200Y-90103500D01*
X125745200Y-90398500D01*
X125744490Y-90412958D01*
X125742366Y-90427276D01*
X125738849Y-90441317D01*
X125733972Y-90454946D01*
X125727783Y-90468031D01*
X125720342Y-90480447D01*
X125711719Y-90492073D01*
X125701998Y-90502798D01*
X125691273Y-90512519D01*
X125679647Y-90521142D01*
X125667231Y-90528583D01*
X125654146Y-90534772D01*
X125640517Y-90539649D01*
X125626476Y-90543166D01*
X125612158Y-90545290D01*
X125597700Y-90546000D01*
X125252700Y-90546000D01*
X125238242Y-90545290D01*
X125223924Y-90543166D01*
X125209883Y-90539649D01*
X125196254Y-90534772D01*
X125183169Y-90528583D01*
X125170753Y-90521142D01*
X125159127Y-90512519D01*
X125148402Y-90502798D01*
X125138681Y-90492073D01*
X125130058Y-90480447D01*
X125122617Y-90468031D01*
X125116428Y-90454946D01*
X125111551Y-90441317D01*
X125108034Y-90427276D01*
X125105910Y-90412958D01*
X125105200Y-90398500D01*
X125105200Y-90103500D01*
X125105910Y-90089042D01*
X125108034Y-90074724D01*
X125111551Y-90060683D01*
X125116428Y-90047054D01*
X125122617Y-90033969D01*
X125130058Y-90021553D01*
X125138681Y-90009927D01*
X125148402Y-89999202D01*
X125159127Y-89989481D01*
X125170753Y-89980858D01*
X125183169Y-89973417D01*
X125196254Y-89967228D01*
X125209883Y-89962351D01*
X125223924Y-89958834D01*
X125238242Y-89956710D01*
X125252700Y-89956000D01*
X125597700Y-89956000D01*
X125612158Y-89956710D01*
G37*
G04 #@! TD.AperFunction*
G04 #@! TA.AperFunction,SMDPad,CuDef*
G36*
X125612158Y-88986710D02*
G01*
X125626476Y-88988834D01*
X125640517Y-88992351D01*
X125654146Y-88997228D01*
X125667231Y-89003417D01*
X125679647Y-89010858D01*
X125691273Y-89019481D01*
X125701998Y-89029202D01*
X125711719Y-89039927D01*
X125720342Y-89051553D01*
X125727783Y-89063969D01*
X125733972Y-89077054D01*
X125738849Y-89090683D01*
X125742366Y-89104724D01*
X125744490Y-89119042D01*
X125745200Y-89133500D01*
X125745200Y-89428500D01*
X125744490Y-89442958D01*
X125742366Y-89457276D01*
X125738849Y-89471317D01*
X125733972Y-89484946D01*
X125727783Y-89498031D01*
X125720342Y-89510447D01*
X125711719Y-89522073D01*
X125701998Y-89532798D01*
X125691273Y-89542519D01*
X125679647Y-89551142D01*
X125667231Y-89558583D01*
X125654146Y-89564772D01*
X125640517Y-89569649D01*
X125626476Y-89573166D01*
X125612158Y-89575290D01*
X125597700Y-89576000D01*
X125252700Y-89576000D01*
X125238242Y-89575290D01*
X125223924Y-89573166D01*
X125209883Y-89569649D01*
X125196254Y-89564772D01*
X125183169Y-89558583D01*
X125170753Y-89551142D01*
X125159127Y-89542519D01*
X125148402Y-89532798D01*
X125138681Y-89522073D01*
X125130058Y-89510447D01*
X125122617Y-89498031D01*
X125116428Y-89484946D01*
X125111551Y-89471317D01*
X125108034Y-89457276D01*
X125105910Y-89442958D01*
X125105200Y-89428500D01*
X125105200Y-89133500D01*
X125105910Y-89119042D01*
X125108034Y-89104724D01*
X125111551Y-89090683D01*
X125116428Y-89077054D01*
X125122617Y-89063969D01*
X125130058Y-89051553D01*
X125138681Y-89039927D01*
X125148402Y-89029202D01*
X125159127Y-89019481D01*
X125170753Y-89010858D01*
X125183169Y-89003417D01*
X125196254Y-88997228D01*
X125209883Y-88992351D01*
X125223924Y-88988834D01*
X125238242Y-88986710D01*
X125252700Y-88986000D01*
X125597700Y-88986000D01*
X125612158Y-88986710D01*
G37*
G04 #@! TD.AperFunction*
G04 #@! TA.AperFunction,SMDPad,CuDef*
G36*
X123986558Y-94757310D02*
G01*
X124000876Y-94759434D01*
X124014917Y-94762951D01*
X124028546Y-94767828D01*
X124041631Y-94774017D01*
X124054047Y-94781458D01*
X124065673Y-94790081D01*
X124076398Y-94799802D01*
X124086119Y-94810527D01*
X124094742Y-94822153D01*
X124102183Y-94834569D01*
X124108372Y-94847654D01*
X124113249Y-94861283D01*
X124116766Y-94875324D01*
X124118890Y-94889642D01*
X124119600Y-94904100D01*
X124119600Y-95199100D01*
X124118890Y-95213558D01*
X124116766Y-95227876D01*
X124113249Y-95241917D01*
X124108372Y-95255546D01*
X124102183Y-95268631D01*
X124094742Y-95281047D01*
X124086119Y-95292673D01*
X124076398Y-95303398D01*
X124065673Y-95313119D01*
X124054047Y-95321742D01*
X124041631Y-95329183D01*
X124028546Y-95335372D01*
X124014917Y-95340249D01*
X124000876Y-95343766D01*
X123986558Y-95345890D01*
X123972100Y-95346600D01*
X123627100Y-95346600D01*
X123612642Y-95345890D01*
X123598324Y-95343766D01*
X123584283Y-95340249D01*
X123570654Y-95335372D01*
X123557569Y-95329183D01*
X123545153Y-95321742D01*
X123533527Y-95313119D01*
X123522802Y-95303398D01*
X123513081Y-95292673D01*
X123504458Y-95281047D01*
X123497017Y-95268631D01*
X123490828Y-95255546D01*
X123485951Y-95241917D01*
X123482434Y-95227876D01*
X123480310Y-95213558D01*
X123479600Y-95199100D01*
X123479600Y-94904100D01*
X123480310Y-94889642D01*
X123482434Y-94875324D01*
X123485951Y-94861283D01*
X123490828Y-94847654D01*
X123497017Y-94834569D01*
X123504458Y-94822153D01*
X123513081Y-94810527D01*
X123522802Y-94799802D01*
X123533527Y-94790081D01*
X123545153Y-94781458D01*
X123557569Y-94774017D01*
X123570654Y-94767828D01*
X123584283Y-94762951D01*
X123598324Y-94759434D01*
X123612642Y-94757310D01*
X123627100Y-94756600D01*
X123972100Y-94756600D01*
X123986558Y-94757310D01*
G37*
G04 #@! TD.AperFunction*
G04 #@! TA.AperFunction,SMDPad,CuDef*
G36*
X123986558Y-93787310D02*
G01*
X124000876Y-93789434D01*
X124014917Y-93792951D01*
X124028546Y-93797828D01*
X124041631Y-93804017D01*
X124054047Y-93811458D01*
X124065673Y-93820081D01*
X124076398Y-93829802D01*
X124086119Y-93840527D01*
X124094742Y-93852153D01*
X124102183Y-93864569D01*
X124108372Y-93877654D01*
X124113249Y-93891283D01*
X124116766Y-93905324D01*
X124118890Y-93919642D01*
X124119600Y-93934100D01*
X124119600Y-94229100D01*
X124118890Y-94243558D01*
X124116766Y-94257876D01*
X124113249Y-94271917D01*
X124108372Y-94285546D01*
X124102183Y-94298631D01*
X124094742Y-94311047D01*
X124086119Y-94322673D01*
X124076398Y-94333398D01*
X124065673Y-94343119D01*
X124054047Y-94351742D01*
X124041631Y-94359183D01*
X124028546Y-94365372D01*
X124014917Y-94370249D01*
X124000876Y-94373766D01*
X123986558Y-94375890D01*
X123972100Y-94376600D01*
X123627100Y-94376600D01*
X123612642Y-94375890D01*
X123598324Y-94373766D01*
X123584283Y-94370249D01*
X123570654Y-94365372D01*
X123557569Y-94359183D01*
X123545153Y-94351742D01*
X123533527Y-94343119D01*
X123522802Y-94333398D01*
X123513081Y-94322673D01*
X123504458Y-94311047D01*
X123497017Y-94298631D01*
X123490828Y-94285546D01*
X123485951Y-94271917D01*
X123482434Y-94257876D01*
X123480310Y-94243558D01*
X123479600Y-94229100D01*
X123479600Y-93934100D01*
X123480310Y-93919642D01*
X123482434Y-93905324D01*
X123485951Y-93891283D01*
X123490828Y-93877654D01*
X123497017Y-93864569D01*
X123504458Y-93852153D01*
X123513081Y-93840527D01*
X123522802Y-93829802D01*
X123533527Y-93820081D01*
X123545153Y-93811458D01*
X123557569Y-93804017D01*
X123570654Y-93797828D01*
X123584283Y-93792951D01*
X123598324Y-93789434D01*
X123612642Y-93787310D01*
X123627100Y-93786600D01*
X123972100Y-93786600D01*
X123986558Y-93787310D01*
G37*
G04 #@! TD.AperFunction*
D20*
X134562400Y-92532200D03*
X130962400Y-92532200D03*
G04 #@! TA.AperFunction,ComponentPad*
D12*
G36*
X109624765Y-99423413D02*
G01*
X109709704Y-99436013D01*
X109792999Y-99456877D01*
X109873848Y-99485805D01*
X109951472Y-99522519D01*
X110025124Y-99566664D01*
X110094094Y-99617816D01*
X110157718Y-99675482D01*
X110215384Y-99739106D01*
X110266536Y-99808076D01*
X110310681Y-99881728D01*
X110347395Y-99959352D01*
X110376323Y-100040201D01*
X110397187Y-100123496D01*
X110409787Y-100208435D01*
X110414000Y-100294200D01*
X110414000Y-102044200D01*
X110409787Y-102129965D01*
X110397187Y-102214904D01*
X110376323Y-102298199D01*
X110347395Y-102379048D01*
X110310681Y-102456672D01*
X110266536Y-102530324D01*
X110215384Y-102599294D01*
X110157718Y-102662918D01*
X110094094Y-102720584D01*
X110025124Y-102771736D01*
X109951472Y-102815881D01*
X109873848Y-102852595D01*
X109792999Y-102881523D01*
X109709704Y-102902387D01*
X109624765Y-102914987D01*
X109539000Y-102919200D01*
X107789000Y-102919200D01*
X107703235Y-102914987D01*
X107618296Y-102902387D01*
X107535001Y-102881523D01*
X107454152Y-102852595D01*
X107376528Y-102815881D01*
X107302876Y-102771736D01*
X107233906Y-102720584D01*
X107170282Y-102662918D01*
X107112616Y-102599294D01*
X107061464Y-102530324D01*
X107017319Y-102456672D01*
X106980605Y-102379048D01*
X106951677Y-102298199D01*
X106930813Y-102214904D01*
X106918213Y-102129965D01*
X106914000Y-102044200D01*
X106914000Y-100294200D01*
X106918213Y-100208435D01*
X106930813Y-100123496D01*
X106951677Y-100040201D01*
X106980605Y-99959352D01*
X107017319Y-99881728D01*
X107061464Y-99808076D01*
X107112616Y-99739106D01*
X107170282Y-99675482D01*
X107233906Y-99617816D01*
X107302876Y-99566664D01*
X107376528Y-99522519D01*
X107454152Y-99485805D01*
X107535001Y-99456877D01*
X107618296Y-99436013D01*
X107703235Y-99423413D01*
X107789000Y-99419200D01*
X109539000Y-99419200D01*
X109624765Y-99423413D01*
G37*
G04 #@! TD.AperFunction*
G04 #@! TA.AperFunction,ComponentPad*
G36*
X106487513Y-94722811D02*
G01*
X106560318Y-94733611D01*
X106631714Y-94751495D01*
X106701013Y-94776290D01*
X106767548Y-94807759D01*
X106830678Y-94845598D01*
X106889795Y-94889442D01*
X106944330Y-94938870D01*
X106993758Y-94993405D01*
X107037602Y-95052522D01*
X107075441Y-95115652D01*
X107106910Y-95182187D01*
X107131705Y-95251486D01*
X107149589Y-95322882D01*
X107160389Y-95395687D01*
X107164000Y-95469200D01*
X107164000Y-97469200D01*
X107160389Y-97542713D01*
X107149589Y-97615518D01*
X107131705Y-97686914D01*
X107106910Y-97756213D01*
X107075441Y-97822748D01*
X107037602Y-97885878D01*
X106993758Y-97944995D01*
X106944330Y-97999530D01*
X106889795Y-98048958D01*
X106830678Y-98092802D01*
X106767548Y-98130641D01*
X106701013Y-98162110D01*
X106631714Y-98186905D01*
X106560318Y-98204789D01*
X106487513Y-98215589D01*
X106414000Y-98219200D01*
X104914000Y-98219200D01*
X104840487Y-98215589D01*
X104767682Y-98204789D01*
X104696286Y-98186905D01*
X104626987Y-98162110D01*
X104560452Y-98130641D01*
X104497322Y-98092802D01*
X104438205Y-98048958D01*
X104383670Y-97999530D01*
X104334242Y-97944995D01*
X104290398Y-97885878D01*
X104252559Y-97822748D01*
X104221090Y-97756213D01*
X104196295Y-97686914D01*
X104178411Y-97615518D01*
X104167611Y-97542713D01*
X104164000Y-97469200D01*
X104164000Y-95469200D01*
X104167611Y-95395687D01*
X104178411Y-95322882D01*
X104196295Y-95251486D01*
X104221090Y-95182187D01*
X104252559Y-95115652D01*
X104290398Y-95052522D01*
X104334242Y-94993405D01*
X104383670Y-94938870D01*
X104438205Y-94889442D01*
X104497322Y-94845598D01*
X104560452Y-94807759D01*
X104626987Y-94776290D01*
X104696286Y-94751495D01*
X104767682Y-94733611D01*
X104840487Y-94722811D01*
X104914000Y-94719200D01*
X106414000Y-94719200D01*
X106487513Y-94722811D01*
G37*
G04 #@! TD.AperFunction*
D21*
X111664000Y-96469200D03*
D22*
X103398200Y-63454200D03*
X108848200Y-63454200D03*
X103398200Y-54554200D03*
X108848200Y-54554200D03*
D23*
X108948200Y-60604200D03*
X108948200Y-59804200D03*
X108948200Y-59004200D03*
X108948200Y-58204200D03*
X108948200Y-57404200D03*
D24*
X111429800Y-88747600D03*
X115429800Y-88747600D03*
G04 #@! TA.AperFunction,SMDPad,CuDef*
D12*
G36*
X136965958Y-89240710D02*
G01*
X136980276Y-89242834D01*
X136994317Y-89246351D01*
X137007946Y-89251228D01*
X137021031Y-89257417D01*
X137033447Y-89264858D01*
X137045073Y-89273481D01*
X137055798Y-89283202D01*
X137065519Y-89293927D01*
X137074142Y-89305553D01*
X137081583Y-89317969D01*
X137087772Y-89331054D01*
X137092649Y-89344683D01*
X137096166Y-89358724D01*
X137098290Y-89373042D01*
X137099000Y-89387500D01*
X137099000Y-89682500D01*
X137098290Y-89696958D01*
X137096166Y-89711276D01*
X137092649Y-89725317D01*
X137087772Y-89738946D01*
X137081583Y-89752031D01*
X137074142Y-89764447D01*
X137065519Y-89776073D01*
X137055798Y-89786798D01*
X137045073Y-89796519D01*
X137033447Y-89805142D01*
X137021031Y-89812583D01*
X137007946Y-89818772D01*
X136994317Y-89823649D01*
X136980276Y-89827166D01*
X136965958Y-89829290D01*
X136951500Y-89830000D01*
X136606500Y-89830000D01*
X136592042Y-89829290D01*
X136577724Y-89827166D01*
X136563683Y-89823649D01*
X136550054Y-89818772D01*
X136536969Y-89812583D01*
X136524553Y-89805142D01*
X136512927Y-89796519D01*
X136502202Y-89786798D01*
X136492481Y-89776073D01*
X136483858Y-89764447D01*
X136476417Y-89752031D01*
X136470228Y-89738946D01*
X136465351Y-89725317D01*
X136461834Y-89711276D01*
X136459710Y-89696958D01*
X136459000Y-89682500D01*
X136459000Y-89387500D01*
X136459710Y-89373042D01*
X136461834Y-89358724D01*
X136465351Y-89344683D01*
X136470228Y-89331054D01*
X136476417Y-89317969D01*
X136483858Y-89305553D01*
X136492481Y-89293927D01*
X136502202Y-89283202D01*
X136512927Y-89273481D01*
X136524553Y-89264858D01*
X136536969Y-89257417D01*
X136550054Y-89251228D01*
X136563683Y-89246351D01*
X136577724Y-89242834D01*
X136592042Y-89240710D01*
X136606500Y-89240000D01*
X136951500Y-89240000D01*
X136965958Y-89240710D01*
G37*
G04 #@! TD.AperFunction*
G04 #@! TA.AperFunction,SMDPad,CuDef*
G36*
X136965958Y-90210710D02*
G01*
X136980276Y-90212834D01*
X136994317Y-90216351D01*
X137007946Y-90221228D01*
X137021031Y-90227417D01*
X137033447Y-90234858D01*
X137045073Y-90243481D01*
X137055798Y-90253202D01*
X137065519Y-90263927D01*
X137074142Y-90275553D01*
X137081583Y-90287969D01*
X137087772Y-90301054D01*
X137092649Y-90314683D01*
X137096166Y-90328724D01*
X137098290Y-90343042D01*
X137099000Y-90357500D01*
X137099000Y-90652500D01*
X137098290Y-90666958D01*
X137096166Y-90681276D01*
X137092649Y-90695317D01*
X137087772Y-90708946D01*
X137081583Y-90722031D01*
X137074142Y-90734447D01*
X137065519Y-90746073D01*
X137055798Y-90756798D01*
X137045073Y-90766519D01*
X137033447Y-90775142D01*
X137021031Y-90782583D01*
X137007946Y-90788772D01*
X136994317Y-90793649D01*
X136980276Y-90797166D01*
X136965958Y-90799290D01*
X136951500Y-90800000D01*
X136606500Y-90800000D01*
X136592042Y-90799290D01*
X136577724Y-90797166D01*
X136563683Y-90793649D01*
X136550054Y-90788772D01*
X136536969Y-90782583D01*
X136524553Y-90775142D01*
X136512927Y-90766519D01*
X136502202Y-90756798D01*
X136492481Y-90746073D01*
X136483858Y-90734447D01*
X136476417Y-90722031D01*
X136470228Y-90708946D01*
X136465351Y-90695317D01*
X136461834Y-90681276D01*
X136459710Y-90666958D01*
X136459000Y-90652500D01*
X136459000Y-90357500D01*
X136459710Y-90343042D01*
X136461834Y-90328724D01*
X136465351Y-90314683D01*
X136470228Y-90301054D01*
X136476417Y-90287969D01*
X136483858Y-90275553D01*
X136492481Y-90263927D01*
X136502202Y-90253202D01*
X136512927Y-90243481D01*
X136524553Y-90234858D01*
X136536969Y-90227417D01*
X136550054Y-90221228D01*
X136563683Y-90216351D01*
X136577724Y-90212834D01*
X136592042Y-90210710D01*
X136606500Y-90210000D01*
X136951500Y-90210000D01*
X136965958Y-90210710D01*
G37*
G04 #@! TD.AperFunction*
G04 #@! TA.AperFunction,SMDPad,CuDef*
G36*
X123123358Y-91730310D02*
G01*
X123137676Y-91732434D01*
X123151717Y-91735951D01*
X123165346Y-91740828D01*
X123178431Y-91747017D01*
X123190847Y-91754458D01*
X123202473Y-91763081D01*
X123213198Y-91772802D01*
X123222919Y-91783527D01*
X123231542Y-91795153D01*
X123238983Y-91807569D01*
X123245172Y-91820654D01*
X123250049Y-91834283D01*
X123253566Y-91848324D01*
X123255690Y-91862642D01*
X123256400Y-91877100D01*
X123256400Y-92222100D01*
X123255690Y-92236558D01*
X123253566Y-92250876D01*
X123250049Y-92264917D01*
X123245172Y-92278546D01*
X123238983Y-92291631D01*
X123231542Y-92304047D01*
X123222919Y-92315673D01*
X123213198Y-92326398D01*
X123202473Y-92336119D01*
X123190847Y-92344742D01*
X123178431Y-92352183D01*
X123165346Y-92358372D01*
X123151717Y-92363249D01*
X123137676Y-92366766D01*
X123123358Y-92368890D01*
X123108900Y-92369600D01*
X122813900Y-92369600D01*
X122799442Y-92368890D01*
X122785124Y-92366766D01*
X122771083Y-92363249D01*
X122757454Y-92358372D01*
X122744369Y-92352183D01*
X122731953Y-92344742D01*
X122720327Y-92336119D01*
X122709602Y-92326398D01*
X122699881Y-92315673D01*
X122691258Y-92304047D01*
X122683817Y-92291631D01*
X122677628Y-92278546D01*
X122672751Y-92264917D01*
X122669234Y-92250876D01*
X122667110Y-92236558D01*
X122666400Y-92222100D01*
X122666400Y-91877100D01*
X122667110Y-91862642D01*
X122669234Y-91848324D01*
X122672751Y-91834283D01*
X122677628Y-91820654D01*
X122683817Y-91807569D01*
X122691258Y-91795153D01*
X122699881Y-91783527D01*
X122709602Y-91772802D01*
X122720327Y-91763081D01*
X122731953Y-91754458D01*
X122744369Y-91747017D01*
X122757454Y-91740828D01*
X122771083Y-91735951D01*
X122785124Y-91732434D01*
X122799442Y-91730310D01*
X122813900Y-91729600D01*
X123108900Y-91729600D01*
X123123358Y-91730310D01*
G37*
G04 #@! TD.AperFunction*
G04 #@! TA.AperFunction,SMDPad,CuDef*
G36*
X124093358Y-91730310D02*
G01*
X124107676Y-91732434D01*
X124121717Y-91735951D01*
X124135346Y-91740828D01*
X124148431Y-91747017D01*
X124160847Y-91754458D01*
X124172473Y-91763081D01*
X124183198Y-91772802D01*
X124192919Y-91783527D01*
X124201542Y-91795153D01*
X124208983Y-91807569D01*
X124215172Y-91820654D01*
X124220049Y-91834283D01*
X124223566Y-91848324D01*
X124225690Y-91862642D01*
X124226400Y-91877100D01*
X124226400Y-92222100D01*
X124225690Y-92236558D01*
X124223566Y-92250876D01*
X124220049Y-92264917D01*
X124215172Y-92278546D01*
X124208983Y-92291631D01*
X124201542Y-92304047D01*
X124192919Y-92315673D01*
X124183198Y-92326398D01*
X124172473Y-92336119D01*
X124160847Y-92344742D01*
X124148431Y-92352183D01*
X124135346Y-92358372D01*
X124121717Y-92363249D01*
X124107676Y-92366766D01*
X124093358Y-92368890D01*
X124078900Y-92369600D01*
X123783900Y-92369600D01*
X123769442Y-92368890D01*
X123755124Y-92366766D01*
X123741083Y-92363249D01*
X123727454Y-92358372D01*
X123714369Y-92352183D01*
X123701953Y-92344742D01*
X123690327Y-92336119D01*
X123679602Y-92326398D01*
X123669881Y-92315673D01*
X123661258Y-92304047D01*
X123653817Y-92291631D01*
X123647628Y-92278546D01*
X123642751Y-92264917D01*
X123639234Y-92250876D01*
X123637110Y-92236558D01*
X123636400Y-92222100D01*
X123636400Y-91877100D01*
X123637110Y-91862642D01*
X123639234Y-91848324D01*
X123642751Y-91834283D01*
X123647628Y-91820654D01*
X123653817Y-91807569D01*
X123661258Y-91795153D01*
X123669881Y-91783527D01*
X123679602Y-91772802D01*
X123690327Y-91763081D01*
X123701953Y-91754458D01*
X123714369Y-91747017D01*
X123727454Y-91740828D01*
X123741083Y-91735951D01*
X123755124Y-91732434D01*
X123769442Y-91730310D01*
X123783900Y-91729600D01*
X124078900Y-91729600D01*
X124093358Y-91730310D01*
G37*
G04 #@! TD.AperFunction*
G04 #@! TA.AperFunction,SMDPad,CuDef*
G36*
X127944558Y-89952310D02*
G01*
X127958876Y-89954434D01*
X127972917Y-89957951D01*
X127986546Y-89962828D01*
X127999631Y-89969017D01*
X128012047Y-89976458D01*
X128023673Y-89985081D01*
X128034398Y-89994802D01*
X128044119Y-90005527D01*
X128052742Y-90017153D01*
X128060183Y-90029569D01*
X128066372Y-90042654D01*
X128071249Y-90056283D01*
X128074766Y-90070324D01*
X128076890Y-90084642D01*
X128077600Y-90099100D01*
X128077600Y-90444100D01*
X128076890Y-90458558D01*
X128074766Y-90472876D01*
X128071249Y-90486917D01*
X128066372Y-90500546D01*
X128060183Y-90513631D01*
X128052742Y-90526047D01*
X128044119Y-90537673D01*
X128034398Y-90548398D01*
X128023673Y-90558119D01*
X128012047Y-90566742D01*
X127999631Y-90574183D01*
X127986546Y-90580372D01*
X127972917Y-90585249D01*
X127958876Y-90588766D01*
X127944558Y-90590890D01*
X127930100Y-90591600D01*
X127635100Y-90591600D01*
X127620642Y-90590890D01*
X127606324Y-90588766D01*
X127592283Y-90585249D01*
X127578654Y-90580372D01*
X127565569Y-90574183D01*
X127553153Y-90566742D01*
X127541527Y-90558119D01*
X127530802Y-90548398D01*
X127521081Y-90537673D01*
X127512458Y-90526047D01*
X127505017Y-90513631D01*
X127498828Y-90500546D01*
X127493951Y-90486917D01*
X127490434Y-90472876D01*
X127488310Y-90458558D01*
X127487600Y-90444100D01*
X127487600Y-90099100D01*
X127488310Y-90084642D01*
X127490434Y-90070324D01*
X127493951Y-90056283D01*
X127498828Y-90042654D01*
X127505017Y-90029569D01*
X127512458Y-90017153D01*
X127521081Y-90005527D01*
X127530802Y-89994802D01*
X127541527Y-89985081D01*
X127553153Y-89976458D01*
X127565569Y-89969017D01*
X127578654Y-89962828D01*
X127592283Y-89957951D01*
X127606324Y-89954434D01*
X127620642Y-89952310D01*
X127635100Y-89951600D01*
X127930100Y-89951600D01*
X127944558Y-89952310D01*
G37*
G04 #@! TD.AperFunction*
G04 #@! TA.AperFunction,SMDPad,CuDef*
G36*
X128914558Y-89952310D02*
G01*
X128928876Y-89954434D01*
X128942917Y-89957951D01*
X128956546Y-89962828D01*
X128969631Y-89969017D01*
X128982047Y-89976458D01*
X128993673Y-89985081D01*
X129004398Y-89994802D01*
X129014119Y-90005527D01*
X129022742Y-90017153D01*
X129030183Y-90029569D01*
X129036372Y-90042654D01*
X129041249Y-90056283D01*
X129044766Y-90070324D01*
X129046890Y-90084642D01*
X129047600Y-90099100D01*
X129047600Y-90444100D01*
X129046890Y-90458558D01*
X129044766Y-90472876D01*
X129041249Y-90486917D01*
X129036372Y-90500546D01*
X129030183Y-90513631D01*
X129022742Y-90526047D01*
X129014119Y-90537673D01*
X129004398Y-90548398D01*
X128993673Y-90558119D01*
X128982047Y-90566742D01*
X128969631Y-90574183D01*
X128956546Y-90580372D01*
X128942917Y-90585249D01*
X128928876Y-90588766D01*
X128914558Y-90590890D01*
X128900100Y-90591600D01*
X128605100Y-90591600D01*
X128590642Y-90590890D01*
X128576324Y-90588766D01*
X128562283Y-90585249D01*
X128548654Y-90580372D01*
X128535569Y-90574183D01*
X128523153Y-90566742D01*
X128511527Y-90558119D01*
X128500802Y-90548398D01*
X128491081Y-90537673D01*
X128482458Y-90526047D01*
X128475017Y-90513631D01*
X128468828Y-90500546D01*
X128463951Y-90486917D01*
X128460434Y-90472876D01*
X128458310Y-90458558D01*
X128457600Y-90444100D01*
X128457600Y-90099100D01*
X128458310Y-90084642D01*
X128460434Y-90070324D01*
X128463951Y-90056283D01*
X128468828Y-90042654D01*
X128475017Y-90029569D01*
X128482458Y-90017153D01*
X128491081Y-90005527D01*
X128500802Y-89994802D01*
X128511527Y-89985081D01*
X128523153Y-89976458D01*
X128535569Y-89969017D01*
X128548654Y-89962828D01*
X128562283Y-89957951D01*
X128576324Y-89954434D01*
X128590642Y-89952310D01*
X128605100Y-89951600D01*
X128900100Y-89951600D01*
X128914558Y-89952310D01*
G37*
G04 #@! TD.AperFunction*
G04 #@! TA.AperFunction,SMDPad,CuDef*
G36*
X123986558Y-97043310D02*
G01*
X124000876Y-97045434D01*
X124014917Y-97048951D01*
X124028546Y-97053828D01*
X124041631Y-97060017D01*
X124054047Y-97067458D01*
X124065673Y-97076081D01*
X124076398Y-97085802D01*
X124086119Y-97096527D01*
X124094742Y-97108153D01*
X124102183Y-97120569D01*
X124108372Y-97133654D01*
X124113249Y-97147283D01*
X124116766Y-97161324D01*
X124118890Y-97175642D01*
X124119600Y-97190100D01*
X124119600Y-97485100D01*
X124118890Y-97499558D01*
X124116766Y-97513876D01*
X124113249Y-97527917D01*
X124108372Y-97541546D01*
X124102183Y-97554631D01*
X124094742Y-97567047D01*
X124086119Y-97578673D01*
X124076398Y-97589398D01*
X124065673Y-97599119D01*
X124054047Y-97607742D01*
X124041631Y-97615183D01*
X124028546Y-97621372D01*
X124014917Y-97626249D01*
X124000876Y-97629766D01*
X123986558Y-97631890D01*
X123972100Y-97632600D01*
X123627100Y-97632600D01*
X123612642Y-97631890D01*
X123598324Y-97629766D01*
X123584283Y-97626249D01*
X123570654Y-97621372D01*
X123557569Y-97615183D01*
X123545153Y-97607742D01*
X123533527Y-97599119D01*
X123522802Y-97589398D01*
X123513081Y-97578673D01*
X123504458Y-97567047D01*
X123497017Y-97554631D01*
X123490828Y-97541546D01*
X123485951Y-97527917D01*
X123482434Y-97513876D01*
X123480310Y-97499558D01*
X123479600Y-97485100D01*
X123479600Y-97190100D01*
X123480310Y-97175642D01*
X123482434Y-97161324D01*
X123485951Y-97147283D01*
X123490828Y-97133654D01*
X123497017Y-97120569D01*
X123504458Y-97108153D01*
X123513081Y-97096527D01*
X123522802Y-97085802D01*
X123533527Y-97076081D01*
X123545153Y-97067458D01*
X123557569Y-97060017D01*
X123570654Y-97053828D01*
X123584283Y-97048951D01*
X123598324Y-97045434D01*
X123612642Y-97043310D01*
X123627100Y-97042600D01*
X123972100Y-97042600D01*
X123986558Y-97043310D01*
G37*
G04 #@! TD.AperFunction*
G04 #@! TA.AperFunction,SMDPad,CuDef*
G36*
X123986558Y-96073310D02*
G01*
X124000876Y-96075434D01*
X124014917Y-96078951D01*
X124028546Y-96083828D01*
X124041631Y-96090017D01*
X124054047Y-96097458D01*
X124065673Y-96106081D01*
X124076398Y-96115802D01*
X124086119Y-96126527D01*
X124094742Y-96138153D01*
X124102183Y-96150569D01*
X124108372Y-96163654D01*
X124113249Y-96177283D01*
X124116766Y-96191324D01*
X124118890Y-96205642D01*
X124119600Y-96220100D01*
X124119600Y-96515100D01*
X124118890Y-96529558D01*
X124116766Y-96543876D01*
X124113249Y-96557917D01*
X124108372Y-96571546D01*
X124102183Y-96584631D01*
X124094742Y-96597047D01*
X124086119Y-96608673D01*
X124076398Y-96619398D01*
X124065673Y-96629119D01*
X124054047Y-96637742D01*
X124041631Y-96645183D01*
X124028546Y-96651372D01*
X124014917Y-96656249D01*
X124000876Y-96659766D01*
X123986558Y-96661890D01*
X123972100Y-96662600D01*
X123627100Y-96662600D01*
X123612642Y-96661890D01*
X123598324Y-96659766D01*
X123584283Y-96656249D01*
X123570654Y-96651372D01*
X123557569Y-96645183D01*
X123545153Y-96637742D01*
X123533527Y-96629119D01*
X123522802Y-96619398D01*
X123513081Y-96608673D01*
X123504458Y-96597047D01*
X123497017Y-96584631D01*
X123490828Y-96571546D01*
X123485951Y-96557917D01*
X123482434Y-96543876D01*
X123480310Y-96529558D01*
X123479600Y-96515100D01*
X123479600Y-96220100D01*
X123480310Y-96205642D01*
X123482434Y-96191324D01*
X123485951Y-96177283D01*
X123490828Y-96163654D01*
X123497017Y-96150569D01*
X123504458Y-96138153D01*
X123513081Y-96126527D01*
X123522802Y-96115802D01*
X123533527Y-96106081D01*
X123545153Y-96097458D01*
X123557569Y-96090017D01*
X123570654Y-96083828D01*
X123584283Y-96078951D01*
X123598324Y-96075434D01*
X123612642Y-96073310D01*
X123627100Y-96072600D01*
X123972100Y-96072600D01*
X123986558Y-96073310D01*
G37*
G04 #@! TD.AperFunction*
G04 #@! TA.AperFunction,SMDPad,CuDef*
G36*
X118836904Y-96047504D02*
G01*
X118861173Y-96051104D01*
X118884971Y-96057065D01*
X118908071Y-96065330D01*
X118930249Y-96075820D01*
X118951293Y-96088433D01*
X118970998Y-96103047D01*
X118989177Y-96119523D01*
X119005653Y-96137702D01*
X119020267Y-96157407D01*
X119032880Y-96178451D01*
X119043370Y-96200629D01*
X119051635Y-96223729D01*
X119057596Y-96247527D01*
X119061196Y-96271796D01*
X119062400Y-96296300D01*
X119062400Y-99121300D01*
X119061196Y-99145804D01*
X119057596Y-99170073D01*
X119051635Y-99193871D01*
X119043370Y-99216971D01*
X119032880Y-99239149D01*
X119020267Y-99260193D01*
X119005653Y-99279898D01*
X118989177Y-99298077D01*
X118970998Y-99314553D01*
X118951293Y-99329167D01*
X118930249Y-99341780D01*
X118908071Y-99352270D01*
X118884971Y-99360535D01*
X118861173Y-99366496D01*
X118836904Y-99370096D01*
X118812400Y-99371300D01*
X117712400Y-99371300D01*
X117687896Y-99370096D01*
X117663627Y-99366496D01*
X117639829Y-99360535D01*
X117616729Y-99352270D01*
X117594551Y-99341780D01*
X117573507Y-99329167D01*
X117553802Y-99314553D01*
X117535623Y-99298077D01*
X117519147Y-99279898D01*
X117504533Y-99260193D01*
X117491920Y-99239149D01*
X117481430Y-99216971D01*
X117473165Y-99193871D01*
X117467204Y-99170073D01*
X117463604Y-99145804D01*
X117462400Y-99121300D01*
X117462400Y-96296300D01*
X117463604Y-96271796D01*
X117467204Y-96247527D01*
X117473165Y-96223729D01*
X117481430Y-96200629D01*
X117491920Y-96178451D01*
X117504533Y-96157407D01*
X117519147Y-96137702D01*
X117535623Y-96119523D01*
X117553802Y-96103047D01*
X117573507Y-96088433D01*
X117594551Y-96075820D01*
X117616729Y-96065330D01*
X117639829Y-96057065D01*
X117663627Y-96051104D01*
X117687896Y-96047504D01*
X117712400Y-96046300D01*
X118812400Y-96046300D01*
X118836904Y-96047504D01*
G37*
G04 #@! TD.AperFunction*
G04 #@! TA.AperFunction,SMDPad,CuDef*
G36*
X118836904Y-90972504D02*
G01*
X118861173Y-90976104D01*
X118884971Y-90982065D01*
X118908071Y-90990330D01*
X118930249Y-91000820D01*
X118951293Y-91013433D01*
X118970998Y-91028047D01*
X118989177Y-91044523D01*
X119005653Y-91062702D01*
X119020267Y-91082407D01*
X119032880Y-91103451D01*
X119043370Y-91125629D01*
X119051635Y-91148729D01*
X119057596Y-91172527D01*
X119061196Y-91196796D01*
X119062400Y-91221300D01*
X119062400Y-94046300D01*
X119061196Y-94070804D01*
X119057596Y-94095073D01*
X119051635Y-94118871D01*
X119043370Y-94141971D01*
X119032880Y-94164149D01*
X119020267Y-94185193D01*
X119005653Y-94204898D01*
X118989177Y-94223077D01*
X118970998Y-94239553D01*
X118951293Y-94254167D01*
X118930249Y-94266780D01*
X118908071Y-94277270D01*
X118884971Y-94285535D01*
X118861173Y-94291496D01*
X118836904Y-94295096D01*
X118812400Y-94296300D01*
X117712400Y-94296300D01*
X117687896Y-94295096D01*
X117663627Y-94291496D01*
X117639829Y-94285535D01*
X117616729Y-94277270D01*
X117594551Y-94266780D01*
X117573507Y-94254167D01*
X117553802Y-94239553D01*
X117535623Y-94223077D01*
X117519147Y-94204898D01*
X117504533Y-94185193D01*
X117491920Y-94164149D01*
X117481430Y-94141971D01*
X117473165Y-94118871D01*
X117467204Y-94095073D01*
X117463604Y-94070804D01*
X117462400Y-94046300D01*
X117462400Y-91221300D01*
X117463604Y-91196796D01*
X117467204Y-91172527D01*
X117473165Y-91148729D01*
X117481430Y-91125629D01*
X117491920Y-91103451D01*
X117504533Y-91082407D01*
X117519147Y-91062702D01*
X117535623Y-91044523D01*
X117553802Y-91028047D01*
X117573507Y-91013433D01*
X117594551Y-91000820D01*
X117616729Y-90990330D01*
X117639829Y-90982065D01*
X117663627Y-90976104D01*
X117687896Y-90972504D01*
X117712400Y-90971300D01*
X118812400Y-90971300D01*
X118836904Y-90972504D01*
G37*
G04 #@! TD.AperFunction*
D25*
X120091200Y-97663000D03*
X126500000Y-91000000D03*
X121900000Y-91100000D03*
X142000000Y-94500000D03*
X143500000Y-94500000D03*
X110500000Y-54500000D03*
X105000000Y-54500000D03*
X105000000Y-63500000D03*
X107000000Y-63500000D03*
X111000000Y-60500000D03*
X107500000Y-90000000D03*
X123000000Y-101500000D03*
X156000000Y-95500000D03*
X168500000Y-99500000D03*
X189000000Y-95000000D03*
X167500000Y-55000000D03*
X122500000Y-65000000D03*
D26*
X137800000Y-89250000D03*
D25*
X133096000Y-97028000D03*
X120600000Y-89900000D03*
X145034000Y-55118000D03*
X186944000Y-93218000D03*
X192532000Y-93091000D03*
X118872000Y-55245000D03*
X112014000Y-85725000D03*
X104394000Y-85852000D03*
X124968000Y-97663000D03*
X115000000Y-57000000D03*
D26*
X122301000Y-87553800D03*
X118440200Y-80772000D03*
X129489200Y-57683400D03*
X124053600Y-87579200D03*
X127685800Y-56667400D03*
X123063000Y-60096400D03*
X188188600Y-71120000D03*
X122250200Y-58851800D03*
X184073800Y-80467200D03*
X169926000Y-62585600D03*
D25*
X156718000Y-62738000D03*
D26*
X136194800Y-70535800D03*
X142570200Y-64719200D03*
X179349400Y-64668400D03*
X145034000Y-65786000D03*
X180873400Y-65786000D03*
X154584400Y-96977200D03*
X153771600Y-93853000D03*
X157377800Y-98272600D03*
X157988000Y-91770200D03*
X185597800Y-81788000D03*
D25*
X136245600Y-92837000D03*
X136245600Y-94132400D03*
X136271000Y-91643200D03*
D27*
X118262400Y-97708800D02*
X120045400Y-97708800D01*
X120045400Y-97708800D02*
X120091200Y-97663000D01*
X126415800Y-92252800D02*
X126415800Y-91084200D01*
X126415800Y-91084200D02*
X126500000Y-91000000D01*
X121961400Y-91161400D02*
X121900000Y-91100000D01*
X122961400Y-91161400D02*
X122961400Y-90271600D01*
X122961400Y-91161400D02*
X121961400Y-91161400D01*
X122961400Y-92049600D02*
X122961400Y-91161400D01*
X142000000Y-93768600D02*
X142906200Y-92862400D01*
X142000000Y-94500000D02*
X142000000Y-93768600D01*
X142906200Y-92862400D02*
X143500000Y-93456200D01*
X143500000Y-93456200D02*
X143500000Y-94500000D01*
X108848200Y-54554200D02*
X110445800Y-54554200D01*
X110445800Y-54554200D02*
X110500000Y-54500000D01*
X103398200Y-54554200D02*
X104945800Y-54554200D01*
X104945800Y-54554200D02*
X105000000Y-54500000D01*
X103398200Y-63454200D02*
X104954200Y-63454200D01*
X104954200Y-63454200D02*
X105000000Y-63500000D01*
X108848200Y-63454200D02*
X107045800Y-63454200D01*
X107045800Y-63454200D02*
X107000000Y-63500000D01*
X108948200Y-60604200D02*
X110895800Y-60604200D01*
X110895800Y-60604200D02*
X111000000Y-60500000D01*
D28*
X137515000Y-89535000D02*
X137800000Y-89250000D01*
X136779000Y-89535000D02*
X137515000Y-89535000D01*
D27*
X132486400Y-97637600D02*
X133096000Y-97028000D01*
X131736600Y-97637600D02*
X132486400Y-97637600D01*
X126415800Y-92252800D02*
X126415800Y-93284200D01*
X126415800Y-93284200D02*
X126400000Y-93300000D01*
X126400000Y-93300000D02*
X124600000Y-93300000D01*
X124642600Y-97337600D02*
X123799600Y-97337600D01*
X124968000Y-97663000D02*
X124642600Y-97337600D01*
D29*
X110623201Y-58829200D02*
X119382800Y-58829200D01*
X108948200Y-59004200D02*
X110448201Y-59004200D01*
X119382800Y-58829200D02*
X125806200Y-65252600D01*
X110448201Y-59004200D02*
X110623201Y-58829200D01*
D30*
X156877686Y-75629770D02*
X159761170Y-75629770D01*
X153753486Y-72505570D02*
X156877686Y-75629770D01*
X128048686Y-72505570D02*
X153753486Y-72505570D01*
X125831600Y-70288484D02*
X128048686Y-72505570D01*
X125806200Y-66446400D02*
X124917200Y-67335400D01*
X125806200Y-65252600D02*
X125806200Y-66446400D01*
X125831600Y-69291200D02*
X125831600Y-70288484D01*
X124917200Y-67335400D02*
X124917200Y-68376800D01*
X159761170Y-75629770D02*
X160864800Y-76733400D01*
X124917200Y-68376800D02*
X125831600Y-69291200D01*
D29*
X119517000Y-58379200D02*
X126212600Y-65074800D01*
X110623201Y-58379200D02*
X119517000Y-58379200D01*
X126212600Y-65074800D02*
X126212600Y-65409800D01*
X108948200Y-58204200D02*
X110448201Y-58204200D01*
X110448201Y-58204200D02*
X110623201Y-58379200D01*
D30*
X128186514Y-72172830D02*
X153891314Y-72172830D01*
X126212600Y-70198916D02*
X128186514Y-72172830D01*
X126212600Y-69291200D02*
X126212600Y-70198916D01*
X127152400Y-68351400D02*
X126212600Y-69291200D01*
X126212600Y-65409800D02*
X126212600Y-66395600D01*
X126212600Y-66395600D02*
X127152400Y-67335400D01*
X127152400Y-67335400D02*
X127152400Y-68351400D01*
X159761170Y-75297030D02*
X160864800Y-74193400D01*
X157015514Y-75297030D02*
X159761170Y-75297030D01*
X153891314Y-72172830D02*
X157015514Y-75297030D01*
D27*
X108948200Y-57404200D02*
X114595800Y-57404200D01*
X114595800Y-57404200D02*
X115000000Y-57000000D01*
D28*
X182742600Y-101589600D02*
X182777800Y-101589600D01*
X123012200Y-86842600D02*
X145770600Y-86842600D01*
X145770600Y-86842600D02*
X149047200Y-90119200D01*
X122301000Y-87553800D02*
X123012200Y-86842600D01*
X149047200Y-90119200D02*
X171196000Y-90119200D01*
X171196000Y-90119200D02*
X182742600Y-101589600D01*
X196707400Y-90119200D02*
X198017800Y-91429600D01*
X150190200Y-84632800D02*
X151917400Y-86360000D01*
X185115200Y-90119200D02*
X196707400Y-90119200D01*
X118465600Y-80797400D02*
X127025400Y-80797400D01*
X149529800Y-81813400D02*
X150190200Y-82473800D01*
X118440200Y-80772000D02*
X118465600Y-80797400D01*
X181356000Y-86360000D02*
X185115200Y-90119200D01*
X150190200Y-82473800D02*
X150190200Y-84632800D01*
X127025400Y-80797400D02*
X128041400Y-81813400D01*
X151917400Y-86360000D02*
X181356000Y-86360000D01*
X128041400Y-81813400D02*
X149529800Y-81813400D01*
X198958200Y-92684600D02*
X196762800Y-92684600D01*
X125857000Y-73660000D02*
X152273000Y-73660000D01*
X162255200Y-78232000D02*
X163042600Y-77444600D01*
X152273000Y-73660000D02*
X156845000Y-78232000D01*
X196762800Y-92684600D02*
X195477800Y-93969600D01*
X115874800Y-67843400D02*
X118770400Y-70739000D01*
X122936000Y-70739000D02*
X125857000Y-73660000D01*
X118770400Y-70739000D02*
X122936000Y-70739000D01*
X199517000Y-92125800D02*
X198958200Y-92684600D01*
X156845000Y-78232000D02*
X162255200Y-78232000D01*
X163042600Y-77444600D02*
X198678800Y-77444600D01*
X198678800Y-77444600D02*
X199517000Y-78282800D01*
X199517000Y-78282800D02*
X199517000Y-92125800D01*
X182777800Y-53329600D02*
X178424000Y-57683400D01*
X178424000Y-57683400D02*
X129489200Y-57683400D01*
X180237800Y-101548600D02*
X180237800Y-101589600D01*
X169468800Y-90830400D02*
X180237800Y-101548600D01*
X145567400Y-87731600D02*
X148666200Y-90830400D01*
X148666200Y-90830400D02*
X169468800Y-90830400D01*
X124206000Y-87731600D02*
X124053600Y-87579200D01*
X125984000Y-87731600D02*
X124206000Y-87731600D01*
X125984000Y-87731600D02*
X145567400Y-87731600D01*
X125628400Y-87731600D02*
X125984000Y-87731600D01*
X176900000Y-56667400D02*
X180237800Y-53329600D01*
X127685800Y-56667400D02*
X176900000Y-56667400D01*
X123063000Y-60096400D02*
X177190400Y-60096400D01*
X177190400Y-60096400D02*
X188188600Y-71094600D01*
X188188600Y-71094600D02*
X188188600Y-71120000D01*
X127508000Y-58851800D02*
X122250200Y-58851800D01*
X178562000Y-58851800D02*
X127508000Y-58851800D01*
X195477800Y-73649600D02*
X193359800Y-73649600D01*
X193359800Y-73649600D02*
X178562000Y-58851800D01*
X184073800Y-80467200D02*
X175793400Y-80467200D01*
X175793400Y-80467200D02*
X175960200Y-80467200D01*
X160274000Y-79121000D02*
X161620200Y-80467200D01*
X114554000Y-71704200D02*
X121716800Y-71704200D01*
X103174800Y-83083400D02*
X114554000Y-71704200D01*
X155892500Y-79121000D02*
X160274000Y-79121000D01*
X124561600Y-74549000D02*
X151320500Y-74549000D01*
X121716800Y-71704200D02*
X124561600Y-74549000D01*
X161620200Y-80467200D02*
X175793400Y-80467200D01*
X151320500Y-74549000D02*
X155892500Y-79121000D01*
X184901600Y-86349600D02*
X195477800Y-86349600D01*
X183134000Y-84582000D02*
X184901600Y-86349600D01*
X155194000Y-83820000D02*
X155956000Y-84582000D01*
X155194000Y-82042000D02*
X155194000Y-83820000D01*
X114655600Y-76682600D02*
X144678400Y-76682600D01*
X108254800Y-83083400D02*
X114655600Y-76682600D01*
X155956000Y-84582000D02*
X183134000Y-84582000D01*
X144678400Y-76682600D02*
X145643600Y-77647800D01*
X145643600Y-77647800D02*
X150799800Y-77647800D01*
X150799800Y-77647800D02*
X155194000Y-82042000D01*
X182372000Y-85598000D02*
X185663600Y-88889600D01*
X152704800Y-83743800D02*
X154559000Y-85598000D01*
X154559000Y-85598000D02*
X182372000Y-85598000D01*
X152704800Y-81965800D02*
X152704800Y-83743800D01*
X114604800Y-79273400D02*
X117576600Y-79273400D01*
X110794800Y-83083400D02*
X114604800Y-79273400D01*
X185663600Y-88889600D02*
X195477800Y-88889600D01*
X150368000Y-79629000D02*
X152704800Y-81965800D01*
X117576600Y-79273400D02*
X117932200Y-79629000D01*
X117932200Y-79629000D02*
X150368000Y-79629000D01*
X175157800Y-98932400D02*
X175157800Y-101589600D01*
X118643400Y-88392000D02*
X145059400Y-88392000D01*
X113334800Y-83083400D02*
X118643400Y-88392000D01*
X145059400Y-88392000D02*
X149555200Y-92887800D01*
X149555200Y-92887800D02*
X169113200Y-92887800D01*
X169113200Y-92887800D02*
X175157800Y-98932400D01*
X117398800Y-84607400D02*
X120980200Y-84607400D01*
X149402800Y-89458800D02*
X175869600Y-89458800D01*
X115874800Y-83083400D02*
X117398800Y-84607400D01*
X120980200Y-84607400D02*
X122631200Y-86258400D01*
X146202400Y-86258400D02*
X149402800Y-89458800D01*
X175869600Y-89458800D02*
X187857800Y-101589600D01*
X122631200Y-86258400D02*
X146202400Y-86258400D01*
X184711100Y-91429600D02*
X195477800Y-91429600D01*
X151485600Y-87096600D02*
X180378100Y-87096600D01*
X127863600Y-84404200D02*
X148793200Y-84404200D01*
X148793200Y-84404200D02*
X151485600Y-87096600D01*
X126619000Y-81762600D02*
X127304800Y-82448400D01*
X127304800Y-82448400D02*
X127304800Y-83845400D01*
X180378100Y-87096600D02*
X184711100Y-91429600D01*
X118414800Y-83083400D02*
X119735600Y-81762600D01*
X119735600Y-81762600D02*
X126619000Y-81762600D01*
X127304800Y-83845400D02*
X127863600Y-84404200D01*
X121005600Y-83083400D02*
X123545600Y-85623400D01*
X123545600Y-85623400D02*
X147015200Y-85623400D01*
X177444400Y-88620600D02*
X190397800Y-101589600D01*
X120954800Y-83083400D02*
X121005600Y-83083400D01*
X147015200Y-85623400D02*
X150012400Y-88620600D01*
X150012400Y-88620600D02*
X177444400Y-88620600D01*
X179044600Y-87833200D02*
X192937800Y-101589600D01*
X150698200Y-87833200D02*
X179044600Y-87833200D01*
X147878800Y-85013800D02*
X150698200Y-87833200D01*
X123494800Y-83083400D02*
X125425200Y-85013800D01*
X125425200Y-85013800D02*
X147878800Y-85013800D01*
X169926000Y-62636400D02*
X169926000Y-62585600D01*
X156870400Y-62585600D02*
X169926000Y-62585600D01*
X156718000Y-62738000D02*
X156870400Y-62585600D01*
X136194800Y-70535800D02*
X137490200Y-69240400D01*
X137490200Y-69240400D02*
X162915600Y-69240400D01*
X170230800Y-71374000D02*
X175006000Y-76149200D01*
X165049200Y-71374000D02*
X170230800Y-71374000D01*
X162915600Y-69240400D02*
X165049200Y-71374000D01*
X195477800Y-76189600D02*
X175006000Y-76149200D01*
X142570200Y-64719200D02*
X173928200Y-64719200D01*
X173928200Y-64719200D02*
X179298600Y-64719200D01*
X179298600Y-64719200D02*
X179349400Y-64668400D01*
X187843400Y-53329600D02*
X187857800Y-53329600D01*
X145034000Y-65786000D02*
X175387000Y-65786000D01*
X180873400Y-65786000D02*
X175387000Y-65786000D01*
X162976200Y-97028000D02*
X167537800Y-101589600D01*
X154660600Y-97028000D02*
X162976200Y-97028000D01*
X154609800Y-96977200D02*
X154660600Y-97028000D01*
X154584400Y-96977200D02*
X154609800Y-96977200D01*
X170077800Y-95249400D02*
X170077800Y-101589600D01*
X168706800Y-93878400D02*
X170077800Y-95249400D01*
X153771600Y-93853000D02*
X153797000Y-93878400D01*
X153797000Y-93878400D02*
X168706800Y-93878400D01*
X157377800Y-101589600D02*
X157377800Y-98272600D01*
X177697800Y-100177000D02*
X177697800Y-101589600D01*
X169316400Y-91795600D02*
X177697800Y-100177000D01*
X158648400Y-91795600D02*
X169316400Y-91795600D01*
X157988000Y-91770200D02*
X158623000Y-91770200D01*
X158623000Y-91770200D02*
X158648400Y-91795600D01*
X122504200Y-74193400D02*
X114604800Y-74193400D01*
X123850400Y-75539600D02*
X122504200Y-74193400D01*
X150596600Y-75539600D02*
X123850400Y-75539600D01*
X156845000Y-81788000D02*
X150596600Y-75539600D01*
X114604800Y-74193400D02*
X105714800Y-83083400D01*
X185597800Y-81788000D02*
X156845000Y-81788000D01*
X123799600Y-95051600D02*
X123799600Y-96367600D01*
D27*
X126415800Y-94452800D02*
X126415800Y-95631000D01*
X126415800Y-95631000D02*
X126034800Y-96012000D01*
D28*
X127365800Y-92252800D02*
X127365800Y-91506000D01*
X127782600Y-91089200D02*
X127782600Y-90271600D01*
X127365800Y-91506000D02*
X127782600Y-91089200D01*
X125465800Y-90358000D02*
X125552200Y-90271600D01*
X125465800Y-92252800D02*
X125465800Y-90358000D01*
X125262600Y-92049600D02*
X125465800Y-92252800D01*
X123931400Y-92049600D02*
X125262600Y-92049600D01*
X123931400Y-90271600D02*
X125552200Y-90271600D01*
D27*
X138506200Y-92862400D02*
X136271000Y-92862400D01*
X136271000Y-92862400D02*
X136245600Y-92837000D01*
D31*
X135890000Y-94488000D02*
X136245600Y-94132400D01*
X135890000Y-98044000D02*
X135890000Y-94488000D01*
D27*
X134562400Y-90874400D02*
X134562400Y-92532200D01*
X125425200Y-89281000D02*
X132969000Y-89281000D01*
X132969000Y-89281000D02*
X134562400Y-90874400D01*
D31*
X111429800Y-96235000D02*
X111664000Y-96469200D01*
X111429800Y-88747600D02*
X111429800Y-96235000D01*
D28*
X123799600Y-94081600D02*
X124358400Y-94081600D01*
X124729600Y-94452800D02*
X125465800Y-94452800D01*
X124358400Y-94081600D02*
X124729600Y-94452800D01*
D31*
X140970000Y-99314000D02*
X140970000Y-98044000D01*
X139597800Y-100686200D02*
X140970000Y-99314000D01*
X139597800Y-101589600D02*
X139597800Y-100686200D01*
D32*
G36*
X117348000Y-88190606D02*
G01*
X117348000Y-88900772D01*
X117344003Y-88905643D01*
X117332267Y-88927599D01*
X117325040Y-88951424D01*
X117322600Y-88976200D01*
X117325040Y-89000976D01*
X117332267Y-89024801D01*
X117344003Y-89046757D01*
X117359797Y-89066003D01*
X123040679Y-94746885D01*
X123071617Y-94784583D01*
X123109315Y-94815521D01*
X123125597Y-94831803D01*
X123144843Y-94847597D01*
X123155044Y-94853050D01*
X123190660Y-94882279D01*
X123326475Y-94954874D01*
X123473843Y-94999577D01*
X123627100Y-95014672D01*
X123972100Y-95014672D01*
X124125357Y-94999577D01*
X124181246Y-94982623D01*
X124189599Y-94992801D01*
X124305324Y-95087774D01*
X124307600Y-95088991D01*
X124307600Y-95300800D01*
X124310040Y-95325576D01*
X124317267Y-95349401D01*
X124329003Y-95371357D01*
X124344797Y-95390603D01*
X124364043Y-95406397D01*
X124385999Y-95418133D01*
X124409824Y-95425360D01*
X124434600Y-95427800D01*
X124684539Y-95427800D01*
X124689615Y-95433985D01*
X124786306Y-95513337D01*
X124896620Y-95572302D01*
X125016318Y-95608612D01*
X125140800Y-95620872D01*
X125790800Y-95620872D01*
X125915282Y-95608612D01*
X126034980Y-95572302D01*
X126145294Y-95513337D01*
X126241985Y-95433985D01*
X126321337Y-95337294D01*
X126380302Y-95226980D01*
X126415800Y-95109959D01*
X126451298Y-95226980D01*
X126465000Y-95252614D01*
X126465000Y-96494600D01*
X124912332Y-96494600D01*
X124816090Y-96465405D01*
X124686077Y-96452600D01*
X124686069Y-96452600D01*
X124642600Y-96448319D01*
X124599131Y-96452600D01*
X124234069Y-96452600D01*
X124125357Y-96419623D01*
X123972100Y-96404528D01*
X123627100Y-96404528D01*
X123473843Y-96419623D01*
X123326475Y-96464326D01*
X123269837Y-96494600D01*
X119888000Y-96494600D01*
X119888000Y-94564200D01*
X119885560Y-94539424D01*
X119878333Y-94515599D01*
X119866597Y-94493643D01*
X119850803Y-94474397D01*
X119831557Y-94458603D01*
X119809601Y-94446867D01*
X119785776Y-94439640D01*
X119761000Y-94437200D01*
X115571806Y-94437200D01*
X114096800Y-92962194D01*
X114096800Y-87782400D01*
X116939794Y-87782400D01*
X117348000Y-88190606D01*
G37*
X117348000Y-88190606D02*
X117348000Y-88900772D01*
X117344003Y-88905643D01*
X117332267Y-88927599D01*
X117325040Y-88951424D01*
X117322600Y-88976200D01*
X117325040Y-89000976D01*
X117332267Y-89024801D01*
X117344003Y-89046757D01*
X117359797Y-89066003D01*
X123040679Y-94746885D01*
X123071617Y-94784583D01*
X123109315Y-94815521D01*
X123125597Y-94831803D01*
X123144843Y-94847597D01*
X123155044Y-94853050D01*
X123190660Y-94882279D01*
X123326475Y-94954874D01*
X123473843Y-94999577D01*
X123627100Y-95014672D01*
X123972100Y-95014672D01*
X124125357Y-94999577D01*
X124181246Y-94982623D01*
X124189599Y-94992801D01*
X124305324Y-95087774D01*
X124307600Y-95088991D01*
X124307600Y-95300800D01*
X124310040Y-95325576D01*
X124317267Y-95349401D01*
X124329003Y-95371357D01*
X124344797Y-95390603D01*
X124364043Y-95406397D01*
X124385999Y-95418133D01*
X124409824Y-95425360D01*
X124434600Y-95427800D01*
X124684539Y-95427800D01*
X124689615Y-95433985D01*
X124786306Y-95513337D01*
X124896620Y-95572302D01*
X125016318Y-95608612D01*
X125140800Y-95620872D01*
X125790800Y-95620872D01*
X125915282Y-95608612D01*
X126034980Y-95572302D01*
X126145294Y-95513337D01*
X126241985Y-95433985D01*
X126321337Y-95337294D01*
X126380302Y-95226980D01*
X126415800Y-95109959D01*
X126451298Y-95226980D01*
X126465000Y-95252614D01*
X126465000Y-96494600D01*
X124912332Y-96494600D01*
X124816090Y-96465405D01*
X124686077Y-96452600D01*
X124686069Y-96452600D01*
X124642600Y-96448319D01*
X124599131Y-96452600D01*
X124234069Y-96452600D01*
X124125357Y-96419623D01*
X123972100Y-96404528D01*
X123627100Y-96404528D01*
X123473843Y-96419623D01*
X123326475Y-96464326D01*
X123269837Y-96494600D01*
X119888000Y-96494600D01*
X119888000Y-94564200D01*
X119885560Y-94539424D01*
X119878333Y-94515599D01*
X119866597Y-94493643D01*
X119850803Y-94474397D01*
X119831557Y-94458603D01*
X119809601Y-94446867D01*
X119785776Y-94439640D01*
X119761000Y-94437200D01*
X115571806Y-94437200D01*
X114096800Y-92962194D01*
X114096800Y-87782400D01*
X116939794Y-87782400D01*
X117348000Y-88190606D01*
G36*
X135949233Y-90111293D02*
G01*
X135953321Y-90118940D01*
X136051017Y-90237983D01*
X136170060Y-90335679D01*
X136305875Y-90408274D01*
X136453243Y-90452977D01*
X136606500Y-90468072D01*
X136951500Y-90468072D01*
X137104757Y-90452977D01*
X137252125Y-90408274D01*
X137387940Y-90335679D01*
X137437508Y-90295000D01*
X137477678Y-90295000D01*
X137515000Y-90298676D01*
X137552322Y-90295000D01*
X137552333Y-90295000D01*
X137663986Y-90284003D01*
X137675496Y-90280512D01*
X137698061Y-90285000D01*
X137901939Y-90285000D01*
X138101898Y-90245226D01*
X138290256Y-90167205D01*
X138360780Y-90120083D01*
X140131800Y-90126538D01*
X140131800Y-95122536D01*
X133527000Y-95098462D01*
X133527000Y-90102464D01*
X135949233Y-90111293D01*
G37*
X135949233Y-90111293D02*
X135953321Y-90118940D01*
X136051017Y-90237983D01*
X136170060Y-90335679D01*
X136305875Y-90408274D01*
X136453243Y-90452977D01*
X136606500Y-90468072D01*
X136951500Y-90468072D01*
X137104757Y-90452977D01*
X137252125Y-90408274D01*
X137387940Y-90335679D01*
X137437508Y-90295000D01*
X137477678Y-90295000D01*
X137515000Y-90298676D01*
X137552322Y-90295000D01*
X137552333Y-90295000D01*
X137663986Y-90284003D01*
X137675496Y-90280512D01*
X137698061Y-90285000D01*
X137901939Y-90285000D01*
X138101898Y-90245226D01*
X138290256Y-90167205D01*
X138360780Y-90120083D01*
X140131800Y-90126538D01*
X140131800Y-95122536D01*
X133527000Y-95098462D01*
X133527000Y-90102464D01*
X135949233Y-90111293D01*
G36*
X148991400Y-93398802D02*
G01*
X149015199Y-93427801D01*
X149130924Y-93522774D01*
X149262953Y-93593346D01*
X149406214Y-93636803D01*
X149517867Y-93647800D01*
X149517876Y-93647800D01*
X149555199Y-93651476D01*
X149592522Y-93647800D01*
X152757140Y-93647800D01*
X152736600Y-93751061D01*
X152736600Y-93954939D01*
X152776374Y-94154898D01*
X152854395Y-94343256D01*
X152967663Y-94512774D01*
X153111826Y-94656937D01*
X153281344Y-94770205D01*
X153469702Y-94848226D01*
X153669661Y-94888000D01*
X153873539Y-94888000D01*
X154073498Y-94848226D01*
X154261856Y-94770205D01*
X154431374Y-94656937D01*
X154449911Y-94638400D01*
X166315356Y-94638400D01*
X166113071Y-94773562D01*
X165801762Y-95084871D01*
X165557169Y-95450931D01*
X165388690Y-95857675D01*
X165302800Y-96289472D01*
X165302800Y-96729728D01*
X165388690Y-97161525D01*
X165557169Y-97568269D01*
X165801762Y-97934329D01*
X166113071Y-98245638D01*
X166479131Y-98490231D01*
X166885875Y-98658710D01*
X167317672Y-98744600D01*
X167757928Y-98744600D01*
X168189725Y-98658710D01*
X168596469Y-98490231D01*
X168962529Y-98245638D01*
X169273838Y-97934329D01*
X169317800Y-97868534D01*
X169317801Y-100295064D01*
X169122498Y-100425561D01*
X168913761Y-100634298D01*
X168807800Y-100792881D01*
X168701839Y-100634298D01*
X168493102Y-100425561D01*
X168247653Y-100261558D01*
X167974925Y-100148590D01*
X167685399Y-100091000D01*
X167390201Y-100091000D01*
X167159826Y-100136824D01*
X163540004Y-96517003D01*
X163516201Y-96487999D01*
X163400476Y-96393026D01*
X163268447Y-96322454D01*
X163125186Y-96278997D01*
X163013533Y-96268000D01*
X163013522Y-96268000D01*
X162976200Y-96264324D01*
X162938878Y-96268000D01*
X155338911Y-96268000D01*
X155244174Y-96173263D01*
X155074656Y-96059995D01*
X154886298Y-95981974D01*
X154686339Y-95942200D01*
X154482461Y-95942200D01*
X154282502Y-95981974D01*
X154094144Y-96059995D01*
X153924626Y-96173263D01*
X153780463Y-96317426D01*
X153667195Y-96486944D01*
X153589174Y-96675302D01*
X153549400Y-96875261D01*
X153549400Y-97079139D01*
X153589174Y-97279098D01*
X153667195Y-97467456D01*
X153780463Y-97636974D01*
X153924626Y-97781137D01*
X154094144Y-97894405D01*
X154282502Y-97972426D01*
X154482461Y-98012200D01*
X154686339Y-98012200D01*
X154886298Y-97972426D01*
X155074656Y-97894405D01*
X155233903Y-97788000D01*
X156458252Y-97788000D01*
X156382574Y-97970702D01*
X156342800Y-98170661D01*
X156342800Y-98374539D01*
X156382574Y-98574498D01*
X156460595Y-98762856D01*
X156573863Y-98932374D01*
X156617801Y-98976312D01*
X156617800Y-100295065D01*
X156422498Y-100425561D01*
X156213761Y-100634298D01*
X156107800Y-100792881D01*
X156001839Y-100634298D01*
X155793102Y-100425561D01*
X155547653Y-100261558D01*
X155274925Y-100148590D01*
X154985399Y-100091000D01*
X154690201Y-100091000D01*
X154400675Y-100148590D01*
X154127947Y-100261558D01*
X153882498Y-100425561D01*
X153673761Y-100634298D01*
X153567800Y-100792881D01*
X153461839Y-100634298D01*
X153253102Y-100425561D01*
X153007653Y-100261558D01*
X152734925Y-100148590D01*
X152445399Y-100091000D01*
X152150201Y-100091000D01*
X151860675Y-100148590D01*
X151587947Y-100261558D01*
X151342498Y-100425561D01*
X151133761Y-100634298D01*
X150969758Y-100879747D01*
X150856790Y-101152475D01*
X150799200Y-101442001D01*
X150799200Y-101737199D01*
X150856790Y-102026725D01*
X150969758Y-102299453D01*
X151133761Y-102544902D01*
X151342498Y-102753639D01*
X151521135Y-102873000D01*
X147994465Y-102873000D01*
X148173102Y-102753639D01*
X148381839Y-102544902D01*
X148545842Y-102299453D01*
X148658810Y-102026725D01*
X148716400Y-101737199D01*
X148716400Y-101442001D01*
X148658810Y-101152475D01*
X148545842Y-100879747D01*
X148381839Y-100634298D01*
X148173102Y-100425561D01*
X147927653Y-100261558D01*
X147654925Y-100148590D01*
X147365399Y-100091000D01*
X147070201Y-100091000D01*
X146780675Y-100148590D01*
X146507947Y-100261558D01*
X146262498Y-100425561D01*
X146053761Y-100634298D01*
X145946108Y-100795413D01*
X145784654Y-100579307D01*
X145566288Y-100382783D01*
X145313778Y-100232636D01*
X145036827Y-100134637D01*
X144804800Y-100255136D01*
X144804800Y-101462600D01*
X144824800Y-101462600D01*
X144824800Y-101716600D01*
X144804800Y-101716600D01*
X144804800Y-101736600D01*
X144550800Y-101736600D01*
X144550800Y-101716600D01*
X142264800Y-101716600D01*
X142264800Y-101736600D01*
X142010800Y-101736600D01*
X142010800Y-101716600D01*
X141990800Y-101716600D01*
X141990800Y-101462600D01*
X142010800Y-101462600D01*
X142010800Y-100255136D01*
X142264800Y-100255136D01*
X142264800Y-101462600D01*
X144550800Y-101462600D01*
X144550800Y-100255136D01*
X144318773Y-100134637D01*
X144041822Y-100232636D01*
X143789312Y-100382783D01*
X143570946Y-100579307D01*
X143407800Y-100797678D01*
X143244654Y-100579307D01*
X143026288Y-100382783D01*
X142773778Y-100232636D01*
X142496827Y-100134637D01*
X142264800Y-100255136D01*
X142010800Y-100255136D01*
X141778773Y-100134637D01*
X141744295Y-100146837D01*
X141776449Y-100120449D01*
X141918284Y-99947623D01*
X142023676Y-99750447D01*
X142088577Y-99536499D01*
X142105000Y-99369752D01*
X142105000Y-99369751D01*
X142110491Y-99314000D01*
X142105000Y-99258248D01*
X142105000Y-99009107D01*
X142123475Y-98990632D01*
X142285990Y-98747411D01*
X142397932Y-98477158D01*
X142455000Y-98190260D01*
X142455000Y-97897740D01*
X142397932Y-97610842D01*
X142285990Y-97340589D01*
X142123475Y-97097368D01*
X141916632Y-96890525D01*
X141673411Y-96728010D01*
X141403158Y-96616068D01*
X141116260Y-96559000D01*
X140823740Y-96559000D01*
X140536842Y-96616068D01*
X140266589Y-96728010D01*
X140023368Y-96890525D01*
X139816525Y-97097368D01*
X139700000Y-97271760D01*
X139583475Y-97097368D01*
X139376632Y-96890525D01*
X139133411Y-96728010D01*
X138863158Y-96616068D01*
X138576260Y-96559000D01*
X138283740Y-96559000D01*
X137996842Y-96616068D01*
X137726589Y-96728010D01*
X137483368Y-96890525D01*
X137351513Y-97022380D01*
X137329502Y-96949820D01*
X137270537Y-96839506D01*
X137191185Y-96742815D01*
X137094494Y-96663463D01*
X137025000Y-96626317D01*
X137025000Y-95873217D01*
X140256485Y-95884996D01*
X140382682Y-95872799D01*
X140501804Y-95836664D01*
X140611587Y-95777983D01*
X140707813Y-95699013D01*
X140786783Y-95602787D01*
X140845464Y-95493004D01*
X140881599Y-95373882D01*
X140893800Y-95250000D01*
X140893800Y-90000000D01*
X140882046Y-89878389D01*
X140846345Y-89759136D01*
X140788066Y-89649140D01*
X140709446Y-89552627D01*
X140613509Y-89473306D01*
X140503941Y-89414226D01*
X140384952Y-89377657D01*
X140261115Y-89365004D01*
X134282792Y-89343213D01*
X134091578Y-89152000D01*
X144744599Y-89152000D01*
X148991400Y-93398802D01*
G37*
X148991400Y-93398802D02*
X149015199Y-93427801D01*
X149130924Y-93522774D01*
X149262953Y-93593346D01*
X149406214Y-93636803D01*
X149517867Y-93647800D01*
X149517876Y-93647800D01*
X149555199Y-93651476D01*
X149592522Y-93647800D01*
X152757140Y-93647800D01*
X152736600Y-93751061D01*
X152736600Y-93954939D01*
X152776374Y-94154898D01*
X152854395Y-94343256D01*
X152967663Y-94512774D01*
X153111826Y-94656937D01*
X153281344Y-94770205D01*
X153469702Y-94848226D01*
X153669661Y-94888000D01*
X153873539Y-94888000D01*
X154073498Y-94848226D01*
X154261856Y-94770205D01*
X154431374Y-94656937D01*
X154449911Y-94638400D01*
X166315356Y-94638400D01*
X166113071Y-94773562D01*
X165801762Y-95084871D01*
X165557169Y-95450931D01*
X165388690Y-95857675D01*
X165302800Y-96289472D01*
X165302800Y-96729728D01*
X165388690Y-97161525D01*
X165557169Y-97568269D01*
X165801762Y-97934329D01*
X166113071Y-98245638D01*
X166479131Y-98490231D01*
X166885875Y-98658710D01*
X167317672Y-98744600D01*
X167757928Y-98744600D01*
X168189725Y-98658710D01*
X168596469Y-98490231D01*
X168962529Y-98245638D01*
X169273838Y-97934329D01*
X169317800Y-97868534D01*
X169317801Y-100295064D01*
X169122498Y-100425561D01*
X168913761Y-100634298D01*
X168807800Y-100792881D01*
X168701839Y-100634298D01*
X168493102Y-100425561D01*
X168247653Y-100261558D01*
X167974925Y-100148590D01*
X167685399Y-100091000D01*
X167390201Y-100091000D01*
X167159826Y-100136824D01*
X163540004Y-96517003D01*
X163516201Y-96487999D01*
X163400476Y-96393026D01*
X163268447Y-96322454D01*
X163125186Y-96278997D01*
X163013533Y-96268000D01*
X163013522Y-96268000D01*
X162976200Y-96264324D01*
X162938878Y-96268000D01*
X155338911Y-96268000D01*
X155244174Y-96173263D01*
X155074656Y-96059995D01*
X154886298Y-95981974D01*
X154686339Y-95942200D01*
X154482461Y-95942200D01*
X154282502Y-95981974D01*
X154094144Y-96059995D01*
X153924626Y-96173263D01*
X153780463Y-96317426D01*
X153667195Y-96486944D01*
X153589174Y-96675302D01*
X153549400Y-96875261D01*
X153549400Y-97079139D01*
X153589174Y-97279098D01*
X153667195Y-97467456D01*
X153780463Y-97636974D01*
X153924626Y-97781137D01*
X154094144Y-97894405D01*
X154282502Y-97972426D01*
X154482461Y-98012200D01*
X154686339Y-98012200D01*
X154886298Y-97972426D01*
X155074656Y-97894405D01*
X155233903Y-97788000D01*
X156458252Y-97788000D01*
X156382574Y-97970702D01*
X156342800Y-98170661D01*
X156342800Y-98374539D01*
X156382574Y-98574498D01*
X156460595Y-98762856D01*
X156573863Y-98932374D01*
X156617801Y-98976312D01*
X156617800Y-100295065D01*
X156422498Y-100425561D01*
X156213761Y-100634298D01*
X156107800Y-100792881D01*
X156001839Y-100634298D01*
X155793102Y-100425561D01*
X155547653Y-100261558D01*
X155274925Y-100148590D01*
X154985399Y-100091000D01*
X154690201Y-100091000D01*
X154400675Y-100148590D01*
X154127947Y-100261558D01*
X153882498Y-100425561D01*
X153673761Y-100634298D01*
X153567800Y-100792881D01*
X153461839Y-100634298D01*
X153253102Y-100425561D01*
X153007653Y-100261558D01*
X152734925Y-100148590D01*
X152445399Y-100091000D01*
X152150201Y-100091000D01*
X151860675Y-100148590D01*
X151587947Y-100261558D01*
X151342498Y-100425561D01*
X151133761Y-100634298D01*
X150969758Y-100879747D01*
X150856790Y-101152475D01*
X150799200Y-101442001D01*
X150799200Y-101737199D01*
X150856790Y-102026725D01*
X150969758Y-102299453D01*
X151133761Y-102544902D01*
X151342498Y-102753639D01*
X151521135Y-102873000D01*
X147994465Y-102873000D01*
X148173102Y-102753639D01*
X148381839Y-102544902D01*
X148545842Y-102299453D01*
X148658810Y-102026725D01*
X148716400Y-101737199D01*
X148716400Y-101442001D01*
X148658810Y-101152475D01*
X148545842Y-100879747D01*
X148381839Y-100634298D01*
X148173102Y-100425561D01*
X147927653Y-100261558D01*
X147654925Y-100148590D01*
X147365399Y-100091000D01*
X147070201Y-100091000D01*
X146780675Y-100148590D01*
X146507947Y-100261558D01*
X146262498Y-100425561D01*
X146053761Y-100634298D01*
X145946108Y-100795413D01*
X145784654Y-100579307D01*
X145566288Y-100382783D01*
X145313778Y-100232636D01*
X145036827Y-100134637D01*
X144804800Y-100255136D01*
X144804800Y-101462600D01*
X144824800Y-101462600D01*
X144824800Y-101716600D01*
X144804800Y-101716600D01*
X144804800Y-101736600D01*
X144550800Y-101736600D01*
X144550800Y-101716600D01*
X142264800Y-101716600D01*
X142264800Y-101736600D01*
X142010800Y-101736600D01*
X142010800Y-101716600D01*
X141990800Y-101716600D01*
X141990800Y-101462600D01*
X142010800Y-101462600D01*
X142010800Y-100255136D01*
X142264800Y-100255136D01*
X142264800Y-101462600D01*
X144550800Y-101462600D01*
X144550800Y-100255136D01*
X144318773Y-100134637D01*
X144041822Y-100232636D01*
X143789312Y-100382783D01*
X143570946Y-100579307D01*
X143407800Y-100797678D01*
X143244654Y-100579307D01*
X143026288Y-100382783D01*
X142773778Y-100232636D01*
X142496827Y-100134637D01*
X142264800Y-100255136D01*
X142010800Y-100255136D01*
X141778773Y-100134637D01*
X141744295Y-100146837D01*
X141776449Y-100120449D01*
X141918284Y-99947623D01*
X142023676Y-99750447D01*
X142088577Y-99536499D01*
X142105000Y-99369752D01*
X142105000Y-99369751D01*
X142110491Y-99314000D01*
X142105000Y-99258248D01*
X142105000Y-99009107D01*
X142123475Y-98990632D01*
X142285990Y-98747411D01*
X142397932Y-98477158D01*
X142455000Y-98190260D01*
X142455000Y-97897740D01*
X142397932Y-97610842D01*
X142285990Y-97340589D01*
X142123475Y-97097368D01*
X141916632Y-96890525D01*
X141673411Y-96728010D01*
X141403158Y-96616068D01*
X141116260Y-96559000D01*
X140823740Y-96559000D01*
X140536842Y-96616068D01*
X140266589Y-96728010D01*
X140023368Y-96890525D01*
X139816525Y-97097368D01*
X139700000Y-97271760D01*
X139583475Y-97097368D01*
X139376632Y-96890525D01*
X139133411Y-96728010D01*
X138863158Y-96616068D01*
X138576260Y-96559000D01*
X138283740Y-96559000D01*
X137996842Y-96616068D01*
X137726589Y-96728010D01*
X137483368Y-96890525D01*
X137351513Y-97022380D01*
X137329502Y-96949820D01*
X137270537Y-96839506D01*
X137191185Y-96742815D01*
X137094494Y-96663463D01*
X137025000Y-96626317D01*
X137025000Y-95873217D01*
X140256485Y-95884996D01*
X140382682Y-95872799D01*
X140501804Y-95836664D01*
X140611587Y-95777983D01*
X140707813Y-95699013D01*
X140786783Y-95602787D01*
X140845464Y-95493004D01*
X140881599Y-95373882D01*
X140893800Y-95250000D01*
X140893800Y-90000000D01*
X140882046Y-89878389D01*
X140846345Y-89759136D01*
X140788066Y-89649140D01*
X140709446Y-89552627D01*
X140613509Y-89473306D01*
X140503941Y-89414226D01*
X140384952Y-89377657D01*
X140261115Y-89365004D01*
X134282792Y-89343213D01*
X134091578Y-89152000D01*
X144744599Y-89152000D01*
X148991400Y-93398802D01*
G36*
X112220163Y-83998159D02*
G01*
X112420041Y-84198037D01*
X112655073Y-84355080D01*
X112916226Y-84463253D01*
X113193465Y-84518400D01*
X113476135Y-84518400D01*
X113658687Y-84482088D01*
X116196998Y-87020400D01*
X113969800Y-87020400D01*
X113845918Y-87032601D01*
X113726796Y-87068736D01*
X113617013Y-87127417D01*
X113520787Y-87206387D01*
X113441817Y-87302613D01*
X113383136Y-87412396D01*
X113347001Y-87531518D01*
X113334800Y-87655400D01*
X113334800Y-93014800D01*
X113347001Y-93138682D01*
X113383136Y-93257804D01*
X113441817Y-93367587D01*
X113520787Y-93463813D01*
X115070187Y-95013213D01*
X115166413Y-95092183D01*
X115276196Y-95150864D01*
X115395318Y-95186999D01*
X115519200Y-95199200D01*
X119126000Y-95199200D01*
X119126000Y-96621600D01*
X119138201Y-96745482D01*
X119174336Y-96864604D01*
X119233017Y-96974387D01*
X119311987Y-97070613D01*
X119408213Y-97149583D01*
X119517996Y-97208264D01*
X119637118Y-97244399D01*
X119761000Y-97256600D01*
X123378317Y-97256600D01*
X123473843Y-97285577D01*
X123627100Y-97300672D01*
X123972100Y-97300672D01*
X124125357Y-97285577D01*
X124220883Y-97256600D01*
X126465000Y-97256600D01*
X126465000Y-98500000D01*
X126477201Y-98623882D01*
X126513336Y-98743004D01*
X126572017Y-98852787D01*
X126650987Y-98949013D01*
X126747213Y-99027983D01*
X126856996Y-99086664D01*
X126976118Y-99122799D01*
X127100000Y-99135000D01*
X129200000Y-99135000D01*
X129323882Y-99122799D01*
X129443004Y-99086664D01*
X129552787Y-99027983D01*
X129649013Y-98949013D01*
X129727983Y-98852787D01*
X129786664Y-98743004D01*
X129822799Y-98623882D01*
X129835000Y-98500000D01*
X129835000Y-95735000D01*
X132200000Y-95735000D01*
X132323882Y-95722799D01*
X132443004Y-95686664D01*
X132552787Y-95627983D01*
X132649013Y-95549013D01*
X132727983Y-95452787D01*
X132779620Y-95356183D01*
X132812455Y-95465864D01*
X132870734Y-95575860D01*
X132949354Y-95672373D01*
X133045291Y-95751694D01*
X133154859Y-95810774D01*
X133273848Y-95847343D01*
X133397685Y-95859996D01*
X134755001Y-95864943D01*
X134755000Y-96626317D01*
X134685506Y-96663463D01*
X134588815Y-96742815D01*
X134509463Y-96839506D01*
X134450498Y-96949820D01*
X134414188Y-97069518D01*
X134401928Y-97194000D01*
X134401928Y-98894000D01*
X134414188Y-99018482D01*
X134450498Y-99138180D01*
X134509463Y-99248494D01*
X134588815Y-99345185D01*
X134685506Y-99424537D01*
X134795820Y-99483502D01*
X134915518Y-99519812D01*
X135040000Y-99532072D01*
X136740000Y-99532072D01*
X136864482Y-99519812D01*
X136984180Y-99483502D01*
X137094494Y-99424537D01*
X137191185Y-99345185D01*
X137270537Y-99248494D01*
X137329502Y-99138180D01*
X137351513Y-99065620D01*
X137483368Y-99197475D01*
X137726589Y-99359990D01*
X137996842Y-99471932D01*
X138283740Y-99529000D01*
X138576260Y-99529000D01*
X138863158Y-99471932D01*
X139133411Y-99359990D01*
X139376632Y-99197475D01*
X139583475Y-98990632D01*
X139700000Y-98816240D01*
X139765140Y-98913729D01*
X138834660Y-99844209D01*
X138791352Y-99879751D01*
X138649517Y-100052577D01*
X138544124Y-100249753D01*
X138479223Y-100463701D01*
X138467837Y-100579307D01*
X138465552Y-100602507D01*
X138433761Y-100634298D01*
X138327800Y-100792881D01*
X138221839Y-100634298D01*
X138013102Y-100425561D01*
X137767653Y-100261558D01*
X137494925Y-100148590D01*
X137205399Y-100091000D01*
X136910201Y-100091000D01*
X136620675Y-100148590D01*
X136347947Y-100261558D01*
X136102498Y-100425561D01*
X135893761Y-100634298D01*
X135787800Y-100792881D01*
X135681839Y-100634298D01*
X135473102Y-100425561D01*
X135227653Y-100261558D01*
X134954925Y-100148590D01*
X134665399Y-100091000D01*
X134370201Y-100091000D01*
X134080675Y-100148590D01*
X133807947Y-100261558D01*
X133562498Y-100425561D01*
X133353761Y-100634298D01*
X133247800Y-100792881D01*
X133141839Y-100634298D01*
X132933102Y-100425561D01*
X132687653Y-100261558D01*
X132414925Y-100148590D01*
X132125399Y-100091000D01*
X131830201Y-100091000D01*
X131540675Y-100148590D01*
X131267947Y-100261558D01*
X131022498Y-100425561D01*
X130813761Y-100634298D01*
X130707800Y-100792881D01*
X130601839Y-100634298D01*
X130393102Y-100425561D01*
X130147653Y-100261558D01*
X129874925Y-100148590D01*
X129585399Y-100091000D01*
X129290201Y-100091000D01*
X129000675Y-100148590D01*
X128727947Y-100261558D01*
X128482498Y-100425561D01*
X128273761Y-100634298D01*
X128109758Y-100879747D01*
X127996790Y-101152475D01*
X127939200Y-101442001D01*
X127939200Y-101737199D01*
X127996790Y-102026725D01*
X128109758Y-102299453D01*
X128273761Y-102544902D01*
X128482498Y-102753639D01*
X128661135Y-102873000D01*
X117298271Y-102873000D01*
X117448431Y-102648269D01*
X117616910Y-102241525D01*
X117702800Y-101809728D01*
X117702800Y-101369472D01*
X117616910Y-100937675D01*
X117448431Y-100530931D01*
X117203838Y-100164871D01*
X116892529Y-99853562D01*
X116526469Y-99608969D01*
X116119725Y-99440490D01*
X115687928Y-99354600D01*
X115247672Y-99354600D01*
X114815875Y-99440490D01*
X114409131Y-99608969D01*
X114043071Y-99853562D01*
X113731762Y-100164871D01*
X113487169Y-100530931D01*
X113318690Y-100937675D01*
X113232800Y-101369472D01*
X113232800Y-101809728D01*
X113318690Y-102241525D01*
X113487169Y-102648269D01*
X113637329Y-102873000D01*
X111051975Y-102873000D01*
X111049000Y-101454950D01*
X110890250Y-101296200D01*
X108791000Y-101296200D01*
X108791000Y-101316200D01*
X108537000Y-101316200D01*
X108537000Y-101296200D01*
X106437750Y-101296200D01*
X106279000Y-101454950D01*
X106276025Y-102873000D01*
X102627000Y-102873000D01*
X102627000Y-98219200D01*
X103525928Y-98219200D01*
X103538188Y-98343682D01*
X103574498Y-98463380D01*
X103633463Y-98573694D01*
X103712815Y-98670385D01*
X103809506Y-98749737D01*
X103919820Y-98808702D01*
X104039518Y-98845012D01*
X104164000Y-98857272D01*
X105378250Y-98854200D01*
X105537000Y-98695450D01*
X105537000Y-96596200D01*
X105791000Y-96596200D01*
X105791000Y-98695450D01*
X105949750Y-98854200D01*
X106620805Y-98855898D01*
X106559506Y-98888663D01*
X106462815Y-98968015D01*
X106383463Y-99064706D01*
X106324498Y-99175020D01*
X106288188Y-99294718D01*
X106275928Y-99419200D01*
X106279000Y-100883450D01*
X106437750Y-101042200D01*
X108537000Y-101042200D01*
X108537000Y-98942950D01*
X108791000Y-98942950D01*
X108791000Y-101042200D01*
X110890250Y-101042200D01*
X111049000Y-100883450D01*
X111052072Y-99419200D01*
X111039812Y-99294718D01*
X111003502Y-99175020D01*
X110944537Y-99064706D01*
X110865185Y-98968015D01*
X110768494Y-98888663D01*
X110709767Y-98857272D01*
X113414000Y-98857272D01*
X113538482Y-98845012D01*
X113658180Y-98808702D01*
X113768494Y-98749737D01*
X113865185Y-98670385D01*
X113944537Y-98573694D01*
X114003502Y-98463380D01*
X114039812Y-98343682D01*
X114052072Y-98219200D01*
X114052072Y-94719200D01*
X114039812Y-94594718D01*
X114003502Y-94475020D01*
X113944537Y-94364706D01*
X113865185Y-94268015D01*
X113768494Y-94188663D01*
X113658180Y-94129698D01*
X113538482Y-94093388D01*
X113414000Y-94081128D01*
X112564800Y-94081128D01*
X112564800Y-90285672D01*
X112679800Y-90285672D01*
X112804282Y-90273412D01*
X112923980Y-90237102D01*
X113034294Y-90178137D01*
X113130985Y-90098785D01*
X113210337Y-90002094D01*
X113269302Y-89891780D01*
X113305612Y-89772082D01*
X113317872Y-89647600D01*
X113317872Y-87847600D01*
X113305612Y-87723118D01*
X113269302Y-87603420D01*
X113210337Y-87493106D01*
X113130985Y-87396415D01*
X113034294Y-87317063D01*
X112923980Y-87258098D01*
X112804282Y-87221788D01*
X112679800Y-87209528D01*
X110179800Y-87209528D01*
X110055318Y-87221788D01*
X109935620Y-87258098D01*
X109825306Y-87317063D01*
X109728615Y-87396415D01*
X109649263Y-87493106D01*
X109590298Y-87603420D01*
X109553988Y-87723118D01*
X109541728Y-87847600D01*
X109541728Y-89647600D01*
X109553988Y-89772082D01*
X109590298Y-89891780D01*
X109649263Y-90002094D01*
X109728615Y-90098785D01*
X109825306Y-90178137D01*
X109935620Y-90237102D01*
X110055318Y-90273412D01*
X110179800Y-90285672D01*
X110294800Y-90285672D01*
X110294801Y-94081128D01*
X109914000Y-94081128D01*
X109789518Y-94093388D01*
X109669820Y-94129698D01*
X109559506Y-94188663D01*
X109462815Y-94268015D01*
X109383463Y-94364706D01*
X109324498Y-94475020D01*
X109288188Y-94594718D01*
X109275928Y-94719200D01*
X109275928Y-98219200D01*
X109288188Y-98343682D01*
X109324498Y-98463380D01*
X109383463Y-98573694D01*
X109462815Y-98670385D01*
X109559506Y-98749737D01*
X109621345Y-98782791D01*
X108949750Y-98784200D01*
X108791000Y-98942950D01*
X108537000Y-98942950D01*
X108378250Y-98784200D01*
X107457633Y-98782269D01*
X107518494Y-98749737D01*
X107615185Y-98670385D01*
X107694537Y-98573694D01*
X107753502Y-98463380D01*
X107789812Y-98343682D01*
X107802072Y-98219200D01*
X107799000Y-96754950D01*
X107640250Y-96596200D01*
X105791000Y-96596200D01*
X105537000Y-96596200D01*
X103687750Y-96596200D01*
X103529000Y-96754950D01*
X103525928Y-98219200D01*
X102627000Y-98219200D01*
X102627000Y-94719200D01*
X103525928Y-94719200D01*
X103529000Y-96183450D01*
X103687750Y-96342200D01*
X105537000Y-96342200D01*
X105537000Y-94242950D01*
X105791000Y-94242950D01*
X105791000Y-96342200D01*
X107640250Y-96342200D01*
X107799000Y-96183450D01*
X107802072Y-94719200D01*
X107789812Y-94594718D01*
X107753502Y-94475020D01*
X107694537Y-94364706D01*
X107615185Y-94268015D01*
X107518494Y-94188663D01*
X107408180Y-94129698D01*
X107288482Y-94093388D01*
X107164000Y-94081128D01*
X105949750Y-94084200D01*
X105791000Y-94242950D01*
X105537000Y-94242950D01*
X105378250Y-94084200D01*
X104164000Y-94081128D01*
X104039518Y-94093388D01*
X103919820Y-94129698D01*
X103809506Y-94188663D01*
X103712815Y-94268015D01*
X103633463Y-94364706D01*
X103574498Y-94475020D01*
X103538188Y-94594718D01*
X103525928Y-94719200D01*
X102627000Y-94719200D01*
X102627000Y-84409726D01*
X102756226Y-84463253D01*
X103033465Y-84518400D01*
X103316135Y-84518400D01*
X103593374Y-84463253D01*
X103854527Y-84355080D01*
X104089559Y-84198037D01*
X104289437Y-83998159D01*
X104444800Y-83765641D01*
X104600163Y-83998159D01*
X104800041Y-84198037D01*
X105035073Y-84355080D01*
X105296226Y-84463253D01*
X105573465Y-84518400D01*
X105856135Y-84518400D01*
X106133374Y-84463253D01*
X106394527Y-84355080D01*
X106629559Y-84198037D01*
X106829437Y-83998159D01*
X106984800Y-83765641D01*
X107140163Y-83998159D01*
X107340041Y-84198037D01*
X107575073Y-84355080D01*
X107836226Y-84463253D01*
X108113465Y-84518400D01*
X108396135Y-84518400D01*
X108673374Y-84463253D01*
X108934527Y-84355080D01*
X109169559Y-84198037D01*
X109369437Y-83998159D01*
X109524800Y-83765641D01*
X109680163Y-83998159D01*
X109880041Y-84198037D01*
X110115073Y-84355080D01*
X110376226Y-84463253D01*
X110653465Y-84518400D01*
X110936135Y-84518400D01*
X111213374Y-84463253D01*
X111474527Y-84355080D01*
X111709559Y-84198037D01*
X111909437Y-83998159D01*
X112064800Y-83765641D01*
X112220163Y-83998159D01*
G37*
X112220163Y-83998159D02*
X112420041Y-84198037D01*
X112655073Y-84355080D01*
X112916226Y-84463253D01*
X113193465Y-84518400D01*
X113476135Y-84518400D01*
X113658687Y-84482088D01*
X116196998Y-87020400D01*
X113969800Y-87020400D01*
X113845918Y-87032601D01*
X113726796Y-87068736D01*
X113617013Y-87127417D01*
X113520787Y-87206387D01*
X113441817Y-87302613D01*
X113383136Y-87412396D01*
X113347001Y-87531518D01*
X113334800Y-87655400D01*
X113334800Y-93014800D01*
X113347001Y-93138682D01*
X113383136Y-93257804D01*
X113441817Y-93367587D01*
X113520787Y-93463813D01*
X115070187Y-95013213D01*
X115166413Y-95092183D01*
X115276196Y-95150864D01*
X115395318Y-95186999D01*
X115519200Y-95199200D01*
X119126000Y-95199200D01*
X119126000Y-96621600D01*
X119138201Y-96745482D01*
X119174336Y-96864604D01*
X119233017Y-96974387D01*
X119311987Y-97070613D01*
X119408213Y-97149583D01*
X119517996Y-97208264D01*
X119637118Y-97244399D01*
X119761000Y-97256600D01*
X123378317Y-97256600D01*
X123473843Y-97285577D01*
X123627100Y-97300672D01*
X123972100Y-97300672D01*
X124125357Y-97285577D01*
X124220883Y-97256600D01*
X126465000Y-97256600D01*
X126465000Y-98500000D01*
X126477201Y-98623882D01*
X126513336Y-98743004D01*
X126572017Y-98852787D01*
X126650987Y-98949013D01*
X126747213Y-99027983D01*
X126856996Y-99086664D01*
X126976118Y-99122799D01*
X127100000Y-99135000D01*
X129200000Y-99135000D01*
X129323882Y-99122799D01*
X129443004Y-99086664D01*
X129552787Y-99027983D01*
X129649013Y-98949013D01*
X129727983Y-98852787D01*
X129786664Y-98743004D01*
X129822799Y-98623882D01*
X129835000Y-98500000D01*
X129835000Y-95735000D01*
X132200000Y-95735000D01*
X132323882Y-95722799D01*
X132443004Y-95686664D01*
X132552787Y-95627983D01*
X132649013Y-95549013D01*
X132727983Y-95452787D01*
X132779620Y-95356183D01*
X132812455Y-95465864D01*
X132870734Y-95575860D01*
X132949354Y-95672373D01*
X133045291Y-95751694D01*
X133154859Y-95810774D01*
X133273848Y-95847343D01*
X133397685Y-95859996D01*
X134755001Y-95864943D01*
X134755000Y-96626317D01*
X134685506Y-96663463D01*
X134588815Y-96742815D01*
X134509463Y-96839506D01*
X134450498Y-96949820D01*
X134414188Y-97069518D01*
X134401928Y-97194000D01*
X134401928Y-98894000D01*
X134414188Y-99018482D01*
X134450498Y-99138180D01*
X134509463Y-99248494D01*
X134588815Y-99345185D01*
X134685506Y-99424537D01*
X134795820Y-99483502D01*
X134915518Y-99519812D01*
X135040000Y-99532072D01*
X136740000Y-99532072D01*
X136864482Y-99519812D01*
X136984180Y-99483502D01*
X137094494Y-99424537D01*
X137191185Y-99345185D01*
X137270537Y-99248494D01*
X137329502Y-99138180D01*
X137351513Y-99065620D01*
X137483368Y-99197475D01*
X137726589Y-99359990D01*
X137996842Y-99471932D01*
X138283740Y-99529000D01*
X138576260Y-99529000D01*
X138863158Y-99471932D01*
X139133411Y-99359990D01*
X139376632Y-99197475D01*
X139583475Y-98990632D01*
X139700000Y-98816240D01*
X139765140Y-98913729D01*
X138834660Y-99844209D01*
X138791352Y-99879751D01*
X138649517Y-100052577D01*
X138544124Y-100249753D01*
X138479223Y-100463701D01*
X138467837Y-100579307D01*
X138465552Y-100602507D01*
X138433761Y-100634298D01*
X138327800Y-100792881D01*
X138221839Y-100634298D01*
X138013102Y-100425561D01*
X137767653Y-100261558D01*
X137494925Y-100148590D01*
X137205399Y-100091000D01*
X136910201Y-100091000D01*
X136620675Y-100148590D01*
X136347947Y-100261558D01*
X136102498Y-100425561D01*
X135893761Y-100634298D01*
X135787800Y-100792881D01*
X135681839Y-100634298D01*
X135473102Y-100425561D01*
X135227653Y-100261558D01*
X134954925Y-100148590D01*
X134665399Y-100091000D01*
X134370201Y-100091000D01*
X134080675Y-100148590D01*
X133807947Y-100261558D01*
X133562498Y-100425561D01*
X133353761Y-100634298D01*
X133247800Y-100792881D01*
X133141839Y-100634298D01*
X132933102Y-100425561D01*
X132687653Y-100261558D01*
X132414925Y-100148590D01*
X132125399Y-100091000D01*
X131830201Y-100091000D01*
X131540675Y-100148590D01*
X131267947Y-100261558D01*
X131022498Y-100425561D01*
X130813761Y-100634298D01*
X130707800Y-100792881D01*
X130601839Y-100634298D01*
X130393102Y-100425561D01*
X130147653Y-100261558D01*
X129874925Y-100148590D01*
X129585399Y-100091000D01*
X129290201Y-100091000D01*
X129000675Y-100148590D01*
X128727947Y-100261558D01*
X128482498Y-100425561D01*
X128273761Y-100634298D01*
X128109758Y-100879747D01*
X127996790Y-101152475D01*
X127939200Y-101442001D01*
X127939200Y-101737199D01*
X127996790Y-102026725D01*
X128109758Y-102299453D01*
X128273761Y-102544902D01*
X128482498Y-102753639D01*
X128661135Y-102873000D01*
X117298271Y-102873000D01*
X117448431Y-102648269D01*
X117616910Y-102241525D01*
X117702800Y-101809728D01*
X117702800Y-101369472D01*
X117616910Y-100937675D01*
X117448431Y-100530931D01*
X117203838Y-100164871D01*
X116892529Y-99853562D01*
X116526469Y-99608969D01*
X116119725Y-99440490D01*
X115687928Y-99354600D01*
X115247672Y-99354600D01*
X114815875Y-99440490D01*
X114409131Y-99608969D01*
X114043071Y-99853562D01*
X113731762Y-100164871D01*
X113487169Y-100530931D01*
X113318690Y-100937675D01*
X113232800Y-101369472D01*
X113232800Y-101809728D01*
X113318690Y-102241525D01*
X113487169Y-102648269D01*
X113637329Y-102873000D01*
X111051975Y-102873000D01*
X111049000Y-101454950D01*
X110890250Y-101296200D01*
X108791000Y-101296200D01*
X108791000Y-101316200D01*
X108537000Y-101316200D01*
X108537000Y-101296200D01*
X106437750Y-101296200D01*
X106279000Y-101454950D01*
X106276025Y-102873000D01*
X102627000Y-102873000D01*
X102627000Y-98219200D01*
X103525928Y-98219200D01*
X103538188Y-98343682D01*
X103574498Y-98463380D01*
X103633463Y-98573694D01*
X103712815Y-98670385D01*
X103809506Y-98749737D01*
X103919820Y-98808702D01*
X104039518Y-98845012D01*
X104164000Y-98857272D01*
X105378250Y-98854200D01*
X105537000Y-98695450D01*
X105537000Y-96596200D01*
X105791000Y-96596200D01*
X105791000Y-98695450D01*
X105949750Y-98854200D01*
X106620805Y-98855898D01*
X106559506Y-98888663D01*
X106462815Y-98968015D01*
X106383463Y-99064706D01*
X106324498Y-99175020D01*
X106288188Y-99294718D01*
X106275928Y-99419200D01*
X106279000Y-100883450D01*
X106437750Y-101042200D01*
X108537000Y-101042200D01*
X108537000Y-98942950D01*
X108791000Y-98942950D01*
X108791000Y-101042200D01*
X110890250Y-101042200D01*
X111049000Y-100883450D01*
X111052072Y-99419200D01*
X111039812Y-99294718D01*
X111003502Y-99175020D01*
X110944537Y-99064706D01*
X110865185Y-98968015D01*
X110768494Y-98888663D01*
X110709767Y-98857272D01*
X113414000Y-98857272D01*
X113538482Y-98845012D01*
X113658180Y-98808702D01*
X113768494Y-98749737D01*
X113865185Y-98670385D01*
X113944537Y-98573694D01*
X114003502Y-98463380D01*
X114039812Y-98343682D01*
X114052072Y-98219200D01*
X114052072Y-94719200D01*
X114039812Y-94594718D01*
X114003502Y-94475020D01*
X113944537Y-94364706D01*
X113865185Y-94268015D01*
X113768494Y-94188663D01*
X113658180Y-94129698D01*
X113538482Y-94093388D01*
X113414000Y-94081128D01*
X112564800Y-94081128D01*
X112564800Y-90285672D01*
X112679800Y-90285672D01*
X112804282Y-90273412D01*
X112923980Y-90237102D01*
X113034294Y-90178137D01*
X113130985Y-90098785D01*
X113210337Y-90002094D01*
X113269302Y-89891780D01*
X113305612Y-89772082D01*
X113317872Y-89647600D01*
X113317872Y-87847600D01*
X113305612Y-87723118D01*
X113269302Y-87603420D01*
X113210337Y-87493106D01*
X113130985Y-87396415D01*
X113034294Y-87317063D01*
X112923980Y-87258098D01*
X112804282Y-87221788D01*
X112679800Y-87209528D01*
X110179800Y-87209528D01*
X110055318Y-87221788D01*
X109935620Y-87258098D01*
X109825306Y-87317063D01*
X109728615Y-87396415D01*
X109649263Y-87493106D01*
X109590298Y-87603420D01*
X109553988Y-87723118D01*
X109541728Y-87847600D01*
X109541728Y-89647600D01*
X109553988Y-89772082D01*
X109590298Y-89891780D01*
X109649263Y-90002094D01*
X109728615Y-90098785D01*
X109825306Y-90178137D01*
X109935620Y-90237102D01*
X110055318Y-90273412D01*
X110179800Y-90285672D01*
X110294800Y-90285672D01*
X110294801Y-94081128D01*
X109914000Y-94081128D01*
X109789518Y-94093388D01*
X109669820Y-94129698D01*
X109559506Y-94188663D01*
X109462815Y-94268015D01*
X109383463Y-94364706D01*
X109324498Y-94475020D01*
X109288188Y-94594718D01*
X109275928Y-94719200D01*
X109275928Y-98219200D01*
X109288188Y-98343682D01*
X109324498Y-98463380D01*
X109383463Y-98573694D01*
X109462815Y-98670385D01*
X109559506Y-98749737D01*
X109621345Y-98782791D01*
X108949750Y-98784200D01*
X108791000Y-98942950D01*
X108537000Y-98942950D01*
X108378250Y-98784200D01*
X107457633Y-98782269D01*
X107518494Y-98749737D01*
X107615185Y-98670385D01*
X107694537Y-98573694D01*
X107753502Y-98463380D01*
X107789812Y-98343682D01*
X107802072Y-98219200D01*
X107799000Y-96754950D01*
X107640250Y-96596200D01*
X105791000Y-96596200D01*
X105537000Y-96596200D01*
X103687750Y-96596200D01*
X103529000Y-96754950D01*
X103525928Y-98219200D01*
X102627000Y-98219200D01*
X102627000Y-94719200D01*
X103525928Y-94719200D01*
X103529000Y-96183450D01*
X103687750Y-96342200D01*
X105537000Y-96342200D01*
X105537000Y-94242950D01*
X105791000Y-94242950D01*
X105791000Y-96342200D01*
X107640250Y-96342200D01*
X107799000Y-96183450D01*
X107802072Y-94719200D01*
X107789812Y-94594718D01*
X107753502Y-94475020D01*
X107694537Y-94364706D01*
X107615185Y-94268015D01*
X107518494Y-94188663D01*
X107408180Y-94129698D01*
X107288482Y-94093388D01*
X107164000Y-94081128D01*
X105949750Y-94084200D01*
X105791000Y-94242950D01*
X105537000Y-94242950D01*
X105378250Y-94084200D01*
X104164000Y-94081128D01*
X104039518Y-94093388D01*
X103919820Y-94129698D01*
X103809506Y-94188663D01*
X103712815Y-94268015D01*
X103633463Y-94364706D01*
X103574498Y-94475020D01*
X103538188Y-94594718D01*
X103525928Y-94719200D01*
X102627000Y-94719200D01*
X102627000Y-84409726D01*
X102756226Y-84463253D01*
X103033465Y-84518400D01*
X103316135Y-84518400D01*
X103593374Y-84463253D01*
X103854527Y-84355080D01*
X104089559Y-84198037D01*
X104289437Y-83998159D01*
X104444800Y-83765641D01*
X104600163Y-83998159D01*
X104800041Y-84198037D01*
X105035073Y-84355080D01*
X105296226Y-84463253D01*
X105573465Y-84518400D01*
X105856135Y-84518400D01*
X106133374Y-84463253D01*
X106394527Y-84355080D01*
X106629559Y-84198037D01*
X106829437Y-83998159D01*
X106984800Y-83765641D01*
X107140163Y-83998159D01*
X107340041Y-84198037D01*
X107575073Y-84355080D01*
X107836226Y-84463253D01*
X108113465Y-84518400D01*
X108396135Y-84518400D01*
X108673374Y-84463253D01*
X108934527Y-84355080D01*
X109169559Y-84198037D01*
X109369437Y-83998159D01*
X109524800Y-83765641D01*
X109680163Y-83998159D01*
X109880041Y-84198037D01*
X110115073Y-84355080D01*
X110376226Y-84463253D01*
X110653465Y-84518400D01*
X110936135Y-84518400D01*
X111213374Y-84463253D01*
X111474527Y-84355080D01*
X111709559Y-84198037D01*
X111909437Y-83998159D01*
X112064800Y-83765641D01*
X112220163Y-83998159D01*
G36*
X184562114Y-92178603D02*
G01*
X184673767Y-92189600D01*
X184673776Y-92189600D01*
X184711099Y-92193276D01*
X184748422Y-92189600D01*
X194183265Y-92189600D01*
X194313761Y-92384902D01*
X194522498Y-92593639D01*
X194681081Y-92699600D01*
X194522498Y-92805561D01*
X194313761Y-93014298D01*
X194149758Y-93259747D01*
X194036790Y-93532475D01*
X193979200Y-93822001D01*
X193979200Y-94117199D01*
X194036790Y-94406725D01*
X194149758Y-94679453D01*
X194313761Y-94924902D01*
X194522498Y-95133639D01*
X194687903Y-95244159D01*
X194589312Y-95302783D01*
X194370946Y-95499307D01*
X194195116Y-95734656D01*
X194068578Y-95999786D01*
X194022842Y-96150574D01*
X194143983Y-96382600D01*
X195350800Y-96382600D01*
X195350800Y-96362600D01*
X195604800Y-96362600D01*
X195604800Y-96382600D01*
X197890800Y-96382600D01*
X197890800Y-96362600D01*
X198144800Y-96362600D01*
X198144800Y-96382600D01*
X198164800Y-96382600D01*
X198164800Y-96636600D01*
X198144800Y-96636600D01*
X198144800Y-97844064D01*
X198376827Y-97964563D01*
X198653778Y-97866564D01*
X198906288Y-97716417D01*
X199124654Y-97519893D01*
X199300484Y-97284544D01*
X199427022Y-97019414D01*
X199472758Y-96868626D01*
X199351618Y-96636602D01*
X199503717Y-96636602D01*
X199513681Y-99924714D01*
X199442529Y-99853562D01*
X199076469Y-99608969D01*
X198669725Y-99440490D01*
X198237928Y-99354600D01*
X197797672Y-99354600D01*
X197365875Y-99440490D01*
X196959131Y-99608969D01*
X196593071Y-99853562D01*
X196281762Y-100164871D01*
X196037169Y-100530931D01*
X195868690Y-100937675D01*
X195782800Y-101369472D01*
X195782800Y-101809728D01*
X195868690Y-102241525D01*
X196037169Y-102648269D01*
X196187329Y-102873000D01*
X193714465Y-102873000D01*
X193893102Y-102753639D01*
X194101839Y-102544902D01*
X194265842Y-102299453D01*
X194378810Y-102026725D01*
X194436400Y-101737199D01*
X194436400Y-101442001D01*
X194378810Y-101152475D01*
X194265842Y-100879747D01*
X194101839Y-100634298D01*
X193893102Y-100425561D01*
X193647653Y-100261558D01*
X193374925Y-100148590D01*
X193085399Y-100091000D01*
X192790201Y-100091000D01*
X192552257Y-100138330D01*
X189250038Y-96868626D01*
X194022842Y-96868626D01*
X194068578Y-97019414D01*
X194195116Y-97284544D01*
X194370946Y-97519893D01*
X194589312Y-97716417D01*
X194841822Y-97866564D01*
X195118773Y-97964563D01*
X195350800Y-97844064D01*
X195350800Y-96636600D01*
X195604800Y-96636600D01*
X195604800Y-97844064D01*
X195836827Y-97964563D01*
X196113778Y-97866564D01*
X196366288Y-97716417D01*
X196584654Y-97519893D01*
X196747800Y-97301522D01*
X196910946Y-97519893D01*
X197129312Y-97716417D01*
X197381822Y-97866564D01*
X197658773Y-97964563D01*
X197890800Y-97844064D01*
X197890800Y-96636600D01*
X195604800Y-96636600D01*
X195350800Y-96636600D01*
X194143983Y-96636600D01*
X194022842Y-96868626D01*
X189250038Y-96868626D01*
X184491848Y-92157288D01*
X184562114Y-92178603D01*
G37*
X184562114Y-92178603D02*
X184673767Y-92189600D01*
X184673776Y-92189600D01*
X184711099Y-92193276D01*
X184748422Y-92189600D01*
X194183265Y-92189600D01*
X194313761Y-92384902D01*
X194522498Y-92593639D01*
X194681081Y-92699600D01*
X194522498Y-92805561D01*
X194313761Y-93014298D01*
X194149758Y-93259747D01*
X194036790Y-93532475D01*
X193979200Y-93822001D01*
X193979200Y-94117199D01*
X194036790Y-94406725D01*
X194149758Y-94679453D01*
X194313761Y-94924902D01*
X194522498Y-95133639D01*
X194687903Y-95244159D01*
X194589312Y-95302783D01*
X194370946Y-95499307D01*
X194195116Y-95734656D01*
X194068578Y-95999786D01*
X194022842Y-96150574D01*
X194143983Y-96382600D01*
X195350800Y-96382600D01*
X195350800Y-96362600D01*
X195604800Y-96362600D01*
X195604800Y-96382600D01*
X197890800Y-96382600D01*
X197890800Y-96362600D01*
X198144800Y-96362600D01*
X198144800Y-96382600D01*
X198164800Y-96382600D01*
X198164800Y-96636600D01*
X198144800Y-96636600D01*
X198144800Y-97844064D01*
X198376827Y-97964563D01*
X198653778Y-97866564D01*
X198906288Y-97716417D01*
X199124654Y-97519893D01*
X199300484Y-97284544D01*
X199427022Y-97019414D01*
X199472758Y-96868626D01*
X199351618Y-96636602D01*
X199503717Y-96636602D01*
X199513681Y-99924714D01*
X199442529Y-99853562D01*
X199076469Y-99608969D01*
X198669725Y-99440490D01*
X198237928Y-99354600D01*
X197797672Y-99354600D01*
X197365875Y-99440490D01*
X196959131Y-99608969D01*
X196593071Y-99853562D01*
X196281762Y-100164871D01*
X196037169Y-100530931D01*
X195868690Y-100937675D01*
X195782800Y-101369472D01*
X195782800Y-101809728D01*
X195868690Y-102241525D01*
X196037169Y-102648269D01*
X196187329Y-102873000D01*
X193714465Y-102873000D01*
X193893102Y-102753639D01*
X194101839Y-102544902D01*
X194265842Y-102299453D01*
X194378810Y-102026725D01*
X194436400Y-101737199D01*
X194436400Y-101442001D01*
X194378810Y-101152475D01*
X194265842Y-100879747D01*
X194101839Y-100634298D01*
X193893102Y-100425561D01*
X193647653Y-100261558D01*
X193374925Y-100148590D01*
X193085399Y-100091000D01*
X192790201Y-100091000D01*
X192552257Y-100138330D01*
X189250038Y-96868626D01*
X194022842Y-96868626D01*
X194068578Y-97019414D01*
X194195116Y-97284544D01*
X194370946Y-97519893D01*
X194589312Y-97716417D01*
X194841822Y-97866564D01*
X195118773Y-97964563D01*
X195350800Y-97844064D01*
X195350800Y-96636600D01*
X195604800Y-96636600D01*
X195604800Y-97844064D01*
X195836827Y-97964563D01*
X196113778Y-97866564D01*
X196366288Y-97716417D01*
X196584654Y-97519893D01*
X196747800Y-97301522D01*
X196910946Y-97519893D01*
X197129312Y-97716417D01*
X197381822Y-97866564D01*
X197658773Y-97964563D01*
X197890800Y-97844064D01*
X197890800Y-96636600D01*
X195604800Y-96636600D01*
X195350800Y-96636600D01*
X194143983Y-96636600D01*
X194022842Y-96868626D01*
X189250038Y-96868626D01*
X184491848Y-92157288D01*
X184562114Y-92178603D01*
G36*
X118606067Y-89152000D02*
G01*
X118606076Y-89152000D01*
X118643399Y-89155676D01*
X118680722Y-89152000D01*
X124467128Y-89152000D01*
X124467128Y-89420151D01*
X124379525Y-89373326D01*
X124232157Y-89328623D01*
X124078900Y-89313528D01*
X123783900Y-89313528D01*
X123630643Y-89328623D01*
X123483275Y-89373326D01*
X123347460Y-89445921D01*
X123228417Y-89543617D01*
X123130721Y-89662660D01*
X123058126Y-89798475D01*
X123013423Y-89945843D01*
X122998328Y-90099100D01*
X122998328Y-90444100D01*
X123013423Y-90597357D01*
X123058126Y-90744725D01*
X123130721Y-90880540D01*
X123228417Y-90999583D01*
X123347460Y-91097279D01*
X123465925Y-91160600D01*
X123347460Y-91223921D01*
X123228417Y-91321617D01*
X123130721Y-91440660D01*
X123058126Y-91576475D01*
X123013423Y-91723843D01*
X122998328Y-91877100D01*
X122998328Y-92222100D01*
X123013423Y-92375357D01*
X123058126Y-92522725D01*
X123130721Y-92658540D01*
X123228417Y-92777583D01*
X123347460Y-92875279D01*
X123483275Y-92947874D01*
X123630643Y-92992577D01*
X123783900Y-93007672D01*
X124078900Y-93007672D01*
X124232157Y-92992577D01*
X124379525Y-92947874D01*
X124512011Y-92877058D01*
X124514988Y-92907282D01*
X124551298Y-93026980D01*
X124610263Y-93137294D01*
X124689615Y-93233985D01*
X124786306Y-93313337D01*
X124860135Y-93352800D01*
X124786306Y-93392263D01*
X124744760Y-93426359D01*
X124650647Y-93376054D01*
X124507386Y-93332597D01*
X124466614Y-93328581D01*
X124408540Y-93280921D01*
X124272725Y-93208326D01*
X124125357Y-93163623D01*
X123972100Y-93148528D01*
X123627100Y-93148528D01*
X123473843Y-93163623D01*
X123326475Y-93208326D01*
X123190660Y-93280921D01*
X123071617Y-93378617D01*
X122973921Y-93497660D01*
X122937404Y-93565978D01*
X118514397Y-89142971D01*
X118606067Y-89152000D01*
G37*
X118606067Y-89152000D02*
X118606076Y-89152000D01*
X118643399Y-89155676D01*
X118680722Y-89152000D01*
X124467128Y-89152000D01*
X124467128Y-89420151D01*
X124379525Y-89373326D01*
X124232157Y-89328623D01*
X124078900Y-89313528D01*
X123783900Y-89313528D01*
X123630643Y-89328623D01*
X123483275Y-89373326D01*
X123347460Y-89445921D01*
X123228417Y-89543617D01*
X123130721Y-89662660D01*
X123058126Y-89798475D01*
X123013423Y-89945843D01*
X122998328Y-90099100D01*
X122998328Y-90444100D01*
X123013423Y-90597357D01*
X123058126Y-90744725D01*
X123130721Y-90880540D01*
X123228417Y-90999583D01*
X123347460Y-91097279D01*
X123465925Y-91160600D01*
X123347460Y-91223921D01*
X123228417Y-91321617D01*
X123130721Y-91440660D01*
X123058126Y-91576475D01*
X123013423Y-91723843D01*
X122998328Y-91877100D01*
X122998328Y-92222100D01*
X123013423Y-92375357D01*
X123058126Y-92522725D01*
X123130721Y-92658540D01*
X123228417Y-92777583D01*
X123347460Y-92875279D01*
X123483275Y-92947874D01*
X123630643Y-92992577D01*
X123783900Y-93007672D01*
X124078900Y-93007672D01*
X124232157Y-92992577D01*
X124379525Y-92947874D01*
X124512011Y-92877058D01*
X124514988Y-92907282D01*
X124551298Y-93026980D01*
X124610263Y-93137294D01*
X124689615Y-93233985D01*
X124786306Y-93313337D01*
X124860135Y-93352800D01*
X124786306Y-93392263D01*
X124744760Y-93426359D01*
X124650647Y-93376054D01*
X124507386Y-93332597D01*
X124466614Y-93328581D01*
X124408540Y-93280921D01*
X124272725Y-93208326D01*
X124125357Y-93163623D01*
X123972100Y-93148528D01*
X123627100Y-93148528D01*
X123473843Y-93163623D01*
X123326475Y-93208326D01*
X123190660Y-93280921D01*
X123071617Y-93378617D01*
X122973921Y-93497660D01*
X122937404Y-93565978D01*
X118514397Y-89142971D01*
X118606067Y-89152000D01*
G36*
X126849528Y-90444100D02*
G01*
X126864623Y-90597357D01*
X126909326Y-90744725D01*
X126959119Y-90837880D01*
X126854798Y-90942201D01*
X126825800Y-90965999D01*
X126802002Y-90994997D01*
X126802001Y-90994998D01*
X126730826Y-91081724D01*
X126660359Y-91213557D01*
X126589615Y-91271615D01*
X126510263Y-91368306D01*
X126451298Y-91478620D01*
X126415800Y-91595641D01*
X126380302Y-91478620D01*
X126321337Y-91368306D01*
X126241985Y-91271615D01*
X126225800Y-91258332D01*
X126225800Y-90865499D01*
X126250879Y-90834940D01*
X126323474Y-90699125D01*
X126368177Y-90551757D01*
X126383272Y-90398500D01*
X126383272Y-90166000D01*
X126849528Y-90166000D01*
X126849528Y-90444100D01*
G37*
X126849528Y-90444100D02*
X126864623Y-90597357D01*
X126909326Y-90744725D01*
X126959119Y-90837880D01*
X126854798Y-90942201D01*
X126825800Y-90965999D01*
X126802002Y-90994997D01*
X126802001Y-90994998D01*
X126730826Y-91081724D01*
X126660359Y-91213557D01*
X126589615Y-91271615D01*
X126510263Y-91368306D01*
X126451298Y-91478620D01*
X126415800Y-91595641D01*
X126380302Y-91478620D01*
X126321337Y-91368306D01*
X126241985Y-91271615D01*
X126225800Y-91258332D01*
X126225800Y-90865499D01*
X126250879Y-90834940D01*
X126323474Y-90699125D01*
X126368177Y-90551757D01*
X126383272Y-90398500D01*
X126383272Y-90166000D01*
X126849528Y-90166000D01*
X126849528Y-90444100D01*
G36*
X126228548Y-83069258D02*
G01*
X126214405Y-83083400D01*
X126228548Y-83097543D01*
X126048943Y-83277148D01*
X126034800Y-83263005D01*
X126020658Y-83277148D01*
X125841053Y-83097543D01*
X125855195Y-83083400D01*
X125841053Y-83069258D01*
X126020658Y-82889653D01*
X126034800Y-82903795D01*
X126048943Y-82889653D01*
X126228548Y-83069258D01*
G37*
X126228548Y-83069258D02*
X126214405Y-83083400D01*
X126228548Y-83097543D01*
X126048943Y-83277148D01*
X126034800Y-83263005D01*
X126020658Y-83277148D01*
X125841053Y-83097543D01*
X125855195Y-83083400D01*
X125841053Y-83069258D01*
X126020658Y-82889653D01*
X126034800Y-82903795D01*
X126048943Y-82889653D01*
X126228548Y-83069258D01*
G36*
X159248548Y-83069258D02*
G01*
X159234405Y-83083400D01*
X159248548Y-83097543D01*
X159068943Y-83277148D01*
X159054800Y-83263005D01*
X159040658Y-83277148D01*
X158861053Y-83097543D01*
X158875195Y-83083400D01*
X158861053Y-83069258D01*
X159040658Y-82889653D01*
X159054800Y-82903795D01*
X159068943Y-82889653D01*
X159248548Y-83069258D01*
G37*
X159248548Y-83069258D02*
X159234405Y-83083400D01*
X159248548Y-83097543D01*
X159068943Y-83277148D01*
X159054800Y-83263005D01*
X159040658Y-83277148D01*
X158861053Y-83097543D01*
X158875195Y-83083400D01*
X158861053Y-83069258D01*
X159040658Y-82889653D01*
X159054800Y-82903795D01*
X159068943Y-82889653D01*
X159248548Y-83069258D01*
G36*
X116068548Y-75449258D02*
G01*
X116054405Y-75463400D01*
X116068548Y-75477543D01*
X115888943Y-75657148D01*
X115874800Y-75643005D01*
X115860658Y-75657148D01*
X115681053Y-75477543D01*
X115695195Y-75463400D01*
X115681053Y-75449258D01*
X115860658Y-75269653D01*
X115874800Y-75283795D01*
X115888943Y-75269653D01*
X116068548Y-75449258D01*
G37*
X116068548Y-75449258D02*
X116054405Y-75463400D01*
X116068548Y-75477543D01*
X115888943Y-75657148D01*
X115874800Y-75643005D01*
X115860658Y-75657148D01*
X115681053Y-75477543D01*
X115695195Y-75463400D01*
X115681053Y-75449258D01*
X115860658Y-75269653D01*
X115874800Y-75283795D01*
X115888943Y-75269653D01*
X116068548Y-75449258D01*
G36*
X166479131Y-66588969D02*
G01*
X166113071Y-66833562D01*
X165801762Y-67144871D01*
X165557169Y-67510931D01*
X165388690Y-67917675D01*
X165302800Y-68349472D01*
X165302800Y-68789728D01*
X165388690Y-69221525D01*
X165557169Y-69628269D01*
X165801762Y-69994329D01*
X166113071Y-70305638D01*
X166479131Y-70550231D01*
X166633083Y-70614000D01*
X165364002Y-70614000D01*
X163479404Y-68729403D01*
X163455601Y-68700399D01*
X163339876Y-68605426D01*
X163207847Y-68534854D01*
X163064586Y-68491397D01*
X163031945Y-68488182D01*
X163029800Y-68129150D01*
X162871050Y-67970400D01*
X161721800Y-67970400D01*
X161721800Y-67990400D01*
X161467800Y-67990400D01*
X161467800Y-67970400D01*
X161447800Y-67970400D01*
X161447800Y-67716400D01*
X161467800Y-67716400D01*
X161467800Y-67696400D01*
X161721800Y-67696400D01*
X161721800Y-67716400D01*
X162871050Y-67716400D01*
X163029800Y-67557650D01*
X163032872Y-67043400D01*
X163020612Y-66918918D01*
X162984302Y-66799220D01*
X162925337Y-66688906D01*
X162845985Y-66592215D01*
X162789672Y-66546000D01*
X166582867Y-66546000D01*
X166479131Y-66588969D01*
G37*
X166479131Y-66588969D02*
X166113071Y-66833562D01*
X165801762Y-67144871D01*
X165557169Y-67510931D01*
X165388690Y-67917675D01*
X165302800Y-68349472D01*
X165302800Y-68789728D01*
X165388690Y-69221525D01*
X165557169Y-69628269D01*
X165801762Y-69994329D01*
X166113071Y-70305638D01*
X166479131Y-70550231D01*
X166633083Y-70614000D01*
X165364002Y-70614000D01*
X163479404Y-68729403D01*
X163455601Y-68700399D01*
X163339876Y-68605426D01*
X163207847Y-68534854D01*
X163064586Y-68491397D01*
X163031945Y-68488182D01*
X163029800Y-68129150D01*
X162871050Y-67970400D01*
X161721800Y-67970400D01*
X161721800Y-67990400D01*
X161467800Y-67990400D01*
X161467800Y-67970400D01*
X161447800Y-67970400D01*
X161447800Y-67716400D01*
X161467800Y-67716400D01*
X161467800Y-67696400D01*
X161721800Y-67696400D01*
X161721800Y-67716400D01*
X162871050Y-67716400D01*
X163029800Y-67557650D01*
X163032872Y-67043400D01*
X163020612Y-66918918D01*
X162984302Y-66799220D01*
X162925337Y-66688906D01*
X162845985Y-66592215D01*
X162789672Y-66546000D01*
X166582867Y-66546000D01*
X166479131Y-66588969D01*
G36*
X114757169Y-52270931D02*
G01*
X114588690Y-52677675D01*
X114502800Y-53109472D01*
X114502800Y-53549728D01*
X114588690Y-53981525D01*
X114757169Y-54388269D01*
X115001762Y-54754329D01*
X115313071Y-55065638D01*
X115679131Y-55310231D01*
X116085875Y-55478710D01*
X116517672Y-55564600D01*
X116957928Y-55564600D01*
X117389725Y-55478710D01*
X117796469Y-55310231D01*
X118162529Y-55065638D01*
X118473838Y-54754329D01*
X118718431Y-54388269D01*
X118886910Y-53981525D01*
X118904706Y-53892060D01*
X118965758Y-54039453D01*
X119129761Y-54284902D01*
X119338498Y-54493639D01*
X119583947Y-54657642D01*
X119856675Y-54770610D01*
X120146201Y-54828200D01*
X120441399Y-54828200D01*
X120730925Y-54770610D01*
X121003653Y-54657642D01*
X121249102Y-54493639D01*
X121457839Y-54284902D01*
X121563800Y-54126319D01*
X121669761Y-54284902D01*
X121878498Y-54493639D01*
X122123947Y-54657642D01*
X122396675Y-54770610D01*
X122686201Y-54828200D01*
X122981399Y-54828200D01*
X123270925Y-54770610D01*
X123543653Y-54657642D01*
X123789102Y-54493639D01*
X123997839Y-54284902D01*
X124103800Y-54126319D01*
X124209761Y-54284902D01*
X124418498Y-54493639D01*
X124663947Y-54657642D01*
X124936675Y-54770610D01*
X125226201Y-54828200D01*
X125521399Y-54828200D01*
X125810925Y-54770610D01*
X126083653Y-54657642D01*
X126329102Y-54493639D01*
X126537839Y-54284902D01*
X126645492Y-54123787D01*
X126806946Y-54339893D01*
X127025312Y-54536417D01*
X127277822Y-54686564D01*
X127554773Y-54784563D01*
X127786800Y-54664064D01*
X127786800Y-53456600D01*
X127766800Y-53456600D01*
X127766800Y-53202600D01*
X127786800Y-53202600D01*
X127786800Y-53182600D01*
X128040800Y-53182600D01*
X128040800Y-53202600D01*
X128060800Y-53202600D01*
X128060800Y-53456600D01*
X128040800Y-53456600D01*
X128040800Y-54664064D01*
X128272827Y-54784563D01*
X128549778Y-54686564D01*
X128802288Y-54536417D01*
X129020654Y-54339893D01*
X129182108Y-54123787D01*
X129289761Y-54284902D01*
X129498498Y-54493639D01*
X129743947Y-54657642D01*
X130016675Y-54770610D01*
X130306201Y-54828200D01*
X130601399Y-54828200D01*
X130890925Y-54770610D01*
X131163653Y-54657642D01*
X131409102Y-54493639D01*
X131617839Y-54284902D01*
X131723800Y-54126319D01*
X131829761Y-54284902D01*
X132038498Y-54493639D01*
X132283947Y-54657642D01*
X132556675Y-54770610D01*
X132846201Y-54828200D01*
X133141399Y-54828200D01*
X133430925Y-54770610D01*
X133703653Y-54657642D01*
X133949102Y-54493639D01*
X134157839Y-54284902D01*
X134263800Y-54126319D01*
X134369761Y-54284902D01*
X134578498Y-54493639D01*
X134823947Y-54657642D01*
X135096675Y-54770610D01*
X135386201Y-54828200D01*
X135681399Y-54828200D01*
X135970925Y-54770610D01*
X136243653Y-54657642D01*
X136489102Y-54493639D01*
X136697839Y-54284902D01*
X136803800Y-54126319D01*
X136909761Y-54284902D01*
X137118498Y-54493639D01*
X137363947Y-54657642D01*
X137636675Y-54770610D01*
X137926201Y-54828200D01*
X138221399Y-54828200D01*
X138510925Y-54770610D01*
X138783653Y-54657642D01*
X139029102Y-54493639D01*
X139237839Y-54284902D01*
X139343800Y-54126319D01*
X139449761Y-54284902D01*
X139658498Y-54493639D01*
X139903947Y-54657642D01*
X140176675Y-54770610D01*
X140466201Y-54828200D01*
X140761399Y-54828200D01*
X141050925Y-54770610D01*
X141323653Y-54657642D01*
X141569102Y-54493639D01*
X141777839Y-54284902D01*
X141883800Y-54126319D01*
X141989761Y-54284902D01*
X142198498Y-54493639D01*
X142443947Y-54657642D01*
X142716675Y-54770610D01*
X143006201Y-54828200D01*
X143301399Y-54828200D01*
X143590925Y-54770610D01*
X143863653Y-54657642D01*
X144109102Y-54493639D01*
X144317839Y-54284902D01*
X144481842Y-54039453D01*
X144594810Y-53766725D01*
X144652400Y-53477199D01*
X144652400Y-53182001D01*
X144594810Y-52892475D01*
X144481842Y-52619747D01*
X144317839Y-52374298D01*
X144109102Y-52165561D01*
X144051391Y-52127000D01*
X146320209Y-52127000D01*
X146262498Y-52165561D01*
X146053761Y-52374298D01*
X145889758Y-52619747D01*
X145776790Y-52892475D01*
X145719200Y-53182001D01*
X145719200Y-53477199D01*
X145776790Y-53766725D01*
X145889758Y-54039453D01*
X146053761Y-54284902D01*
X146262498Y-54493639D01*
X146507947Y-54657642D01*
X146780675Y-54770610D01*
X147070201Y-54828200D01*
X147365399Y-54828200D01*
X147654925Y-54770610D01*
X147927653Y-54657642D01*
X148173102Y-54493639D01*
X148381839Y-54284902D01*
X148487800Y-54126319D01*
X148593761Y-54284902D01*
X148802498Y-54493639D01*
X149047947Y-54657642D01*
X149320675Y-54770610D01*
X149610201Y-54828200D01*
X149905399Y-54828200D01*
X150194925Y-54770610D01*
X150467653Y-54657642D01*
X150713102Y-54493639D01*
X150921839Y-54284902D01*
X151027800Y-54126319D01*
X151133761Y-54284902D01*
X151342498Y-54493639D01*
X151587947Y-54657642D01*
X151860675Y-54770610D01*
X152150201Y-54828200D01*
X152445399Y-54828200D01*
X152734925Y-54770610D01*
X153007653Y-54657642D01*
X153253102Y-54493639D01*
X153461839Y-54284902D01*
X153567800Y-54126319D01*
X153673761Y-54284902D01*
X153882498Y-54493639D01*
X154127947Y-54657642D01*
X154400675Y-54770610D01*
X154690201Y-54828200D01*
X154985399Y-54828200D01*
X155274925Y-54770610D01*
X155547653Y-54657642D01*
X155793102Y-54493639D01*
X156001839Y-54284902D01*
X156107800Y-54126319D01*
X156213761Y-54284902D01*
X156422498Y-54493639D01*
X156667947Y-54657642D01*
X156940675Y-54770610D01*
X157230201Y-54828200D01*
X157525399Y-54828200D01*
X157814925Y-54770610D01*
X158087653Y-54657642D01*
X158333102Y-54493639D01*
X158541839Y-54284902D01*
X158647800Y-54126319D01*
X158753761Y-54284902D01*
X158962498Y-54493639D01*
X159207947Y-54657642D01*
X159480675Y-54770610D01*
X159770201Y-54828200D01*
X160065399Y-54828200D01*
X160354925Y-54770610D01*
X160627653Y-54657642D01*
X160873102Y-54493639D01*
X161081839Y-54284902D01*
X161187800Y-54126319D01*
X161293761Y-54284902D01*
X161502498Y-54493639D01*
X161747947Y-54657642D01*
X162020675Y-54770610D01*
X162310201Y-54828200D01*
X162605399Y-54828200D01*
X162894925Y-54770610D01*
X163167653Y-54657642D01*
X163413102Y-54493639D01*
X163621839Y-54284902D01*
X163727800Y-54126319D01*
X163833761Y-54284902D01*
X164042498Y-54493639D01*
X164287947Y-54657642D01*
X164560675Y-54770610D01*
X164850201Y-54828200D01*
X165145399Y-54828200D01*
X165434925Y-54770610D01*
X165707653Y-54657642D01*
X165953102Y-54493639D01*
X166161839Y-54284902D01*
X166325842Y-54039453D01*
X166438810Y-53766725D01*
X166496400Y-53477199D01*
X166496400Y-53182001D01*
X166438810Y-52892475D01*
X166325842Y-52619747D01*
X166161839Y-52374298D01*
X165953102Y-52165561D01*
X165895391Y-52127000D01*
X169180209Y-52127000D01*
X169122498Y-52165561D01*
X168913761Y-52374298D01*
X168749758Y-52619747D01*
X168636790Y-52892475D01*
X168579200Y-53182001D01*
X168579200Y-53477199D01*
X168636790Y-53766725D01*
X168749758Y-54039453D01*
X168913761Y-54284902D01*
X169122498Y-54493639D01*
X169367947Y-54657642D01*
X169640675Y-54770610D01*
X169930201Y-54828200D01*
X170225399Y-54828200D01*
X170514925Y-54770610D01*
X170787653Y-54657642D01*
X171033102Y-54493639D01*
X171241839Y-54284902D01*
X171347800Y-54126319D01*
X171453761Y-54284902D01*
X171662498Y-54493639D01*
X171907947Y-54657642D01*
X172180675Y-54770610D01*
X172470201Y-54828200D01*
X172765399Y-54828200D01*
X173054925Y-54770610D01*
X173327653Y-54657642D01*
X173573102Y-54493639D01*
X173781839Y-54284902D01*
X173887800Y-54126319D01*
X173993761Y-54284902D01*
X174202498Y-54493639D01*
X174447947Y-54657642D01*
X174720675Y-54770610D01*
X175010201Y-54828200D01*
X175305399Y-54828200D01*
X175594925Y-54770610D01*
X175867653Y-54657642D01*
X176113102Y-54493639D01*
X176321839Y-54284902D01*
X176427800Y-54126319D01*
X176533761Y-54284902D01*
X176742498Y-54493639D01*
X176987947Y-54657642D01*
X177260675Y-54770610D01*
X177550201Y-54828200D01*
X177664399Y-54828200D01*
X176585199Y-55907400D01*
X128389511Y-55907400D01*
X128345574Y-55863463D01*
X128176056Y-55750195D01*
X127987698Y-55672174D01*
X127787739Y-55632400D01*
X127583861Y-55632400D01*
X127383902Y-55672174D01*
X127195544Y-55750195D01*
X127026026Y-55863463D01*
X126881863Y-56007626D01*
X126768595Y-56177144D01*
X126690574Y-56365502D01*
X126650800Y-56565461D01*
X126650800Y-56769339D01*
X126690574Y-56969298D01*
X126768595Y-57157656D01*
X126881863Y-57327174D01*
X127026026Y-57471337D01*
X127195544Y-57584605D01*
X127383902Y-57662626D01*
X127583861Y-57702400D01*
X127787739Y-57702400D01*
X127987698Y-57662626D01*
X128176056Y-57584605D01*
X128345574Y-57471337D01*
X128389511Y-57427400D01*
X128484844Y-57427400D01*
X128454200Y-57581461D01*
X128454200Y-57785339D01*
X128493974Y-57985298D01*
X128538089Y-58091800D01*
X122953911Y-58091800D01*
X122909974Y-58047863D01*
X122740456Y-57934595D01*
X122552098Y-57856574D01*
X122352139Y-57816800D01*
X122148261Y-57816800D01*
X121948302Y-57856574D01*
X121759944Y-57934595D01*
X121590426Y-58047863D01*
X121446263Y-58192026D01*
X121332995Y-58361544D01*
X121254974Y-58549902D01*
X121215200Y-58749861D01*
X121215200Y-58953739D01*
X121236111Y-59058864D01*
X120062259Y-57885013D01*
X120039238Y-57856962D01*
X119927320Y-57765113D01*
X119799633Y-57696863D01*
X119661085Y-57654835D01*
X119553105Y-57644200D01*
X119517000Y-57640644D01*
X119480895Y-57644200D01*
X115934612Y-57644200D01*
X116005824Y-57537624D01*
X116091383Y-57331067D01*
X116135000Y-57111788D01*
X116135000Y-56888212D01*
X116091383Y-56668933D01*
X116005824Y-56462376D01*
X115881612Y-56276480D01*
X115723520Y-56118388D01*
X115537624Y-55994176D01*
X115331067Y-55908617D01*
X115111788Y-55865000D01*
X114888212Y-55865000D01*
X114668933Y-55908617D01*
X114462376Y-55994176D01*
X114276480Y-56118388D01*
X114118388Y-56276480D01*
X113994176Y-56462376D01*
X113970639Y-56519200D01*
X109979392Y-56519200D01*
X109948200Y-56516128D01*
X107948200Y-56516128D01*
X107823718Y-56528388D01*
X107704020Y-56564698D01*
X107593706Y-56623663D01*
X107497015Y-56703015D01*
X107417663Y-56799706D01*
X107383200Y-56864181D01*
X107383200Y-56692412D01*
X107339583Y-56473133D01*
X107254024Y-56266576D01*
X107129812Y-56080680D01*
X106971720Y-55922588D01*
X106785824Y-55798376D01*
X106579267Y-55712817D01*
X106359988Y-55669200D01*
X106136412Y-55669200D01*
X105917133Y-55712817D01*
X105710576Y-55798376D01*
X105524680Y-55922588D01*
X105366588Y-56080680D01*
X105242376Y-56266576D01*
X105156817Y-56473133D01*
X105113200Y-56692412D01*
X105113200Y-56915988D01*
X105156817Y-57135267D01*
X105242376Y-57341824D01*
X105366588Y-57527720D01*
X105524680Y-57685812D01*
X105710576Y-57810024D01*
X105917133Y-57895583D01*
X106136412Y-57939200D01*
X106359988Y-57939200D01*
X106579267Y-57895583D01*
X106785824Y-57810024D01*
X106971720Y-57685812D01*
X107129812Y-57527720D01*
X107254024Y-57341824D01*
X107310128Y-57206377D01*
X107310128Y-57654200D01*
X107322388Y-57778682D01*
X107330129Y-57804200D01*
X107322388Y-57829718D01*
X107310128Y-57954200D01*
X107310128Y-58454200D01*
X107322388Y-58578682D01*
X107330129Y-58604200D01*
X107322388Y-58629718D01*
X107310128Y-58754200D01*
X107310128Y-59254200D01*
X107322388Y-59378682D01*
X107330129Y-59404200D01*
X107322388Y-59429718D01*
X107310128Y-59554200D01*
X107310128Y-60054200D01*
X107322388Y-60178682D01*
X107358698Y-60298380D01*
X107417663Y-60408694D01*
X107497015Y-60505385D01*
X107593706Y-60584737D01*
X107704020Y-60643702D01*
X107823718Y-60680012D01*
X107948200Y-60692272D01*
X109948200Y-60692272D01*
X110072682Y-60680012D01*
X110192380Y-60643702D01*
X110302694Y-60584737D01*
X110399385Y-60505385D01*
X110478737Y-60408694D01*
X110537702Y-60298380D01*
X110574012Y-60178682D01*
X110586272Y-60054200D01*
X110586272Y-59729157D01*
X110592286Y-59728565D01*
X110730834Y-59686537D01*
X110858521Y-59618287D01*
X110924426Y-59564200D01*
X119078354Y-59564200D01*
X125068330Y-65554177D01*
X125068331Y-66140764D01*
X124444946Y-66764150D01*
X124409559Y-66728763D01*
X124174527Y-66571720D01*
X123913374Y-66463547D01*
X123636135Y-66408400D01*
X123353465Y-66408400D01*
X123076226Y-66463547D01*
X122815073Y-66571720D01*
X122580041Y-66728763D01*
X122380163Y-66928641D01*
X122224800Y-67161159D01*
X122069437Y-66928641D01*
X121869559Y-66728763D01*
X121634527Y-66571720D01*
X121373374Y-66463547D01*
X121096135Y-66408400D01*
X120813465Y-66408400D01*
X120536226Y-66463547D01*
X120275073Y-66571720D01*
X120040041Y-66728763D01*
X119840163Y-66928641D01*
X119684800Y-67161159D01*
X119529437Y-66928641D01*
X119329559Y-66728763D01*
X119094527Y-66571720D01*
X118833374Y-66463547D01*
X118556135Y-66408400D01*
X118273465Y-66408400D01*
X117996226Y-66463547D01*
X117735073Y-66571720D01*
X117500041Y-66728763D01*
X117300163Y-66928641D01*
X117144800Y-67161159D01*
X116989437Y-66928641D01*
X116789559Y-66728763D01*
X116554527Y-66571720D01*
X116293374Y-66463547D01*
X116016135Y-66408400D01*
X115733465Y-66408400D01*
X115456226Y-66463547D01*
X115195073Y-66571720D01*
X114960041Y-66728763D01*
X114760163Y-66928641D01*
X114604800Y-67161159D01*
X114449437Y-66928641D01*
X114249559Y-66728763D01*
X114014527Y-66571720D01*
X113753374Y-66463547D01*
X113476135Y-66408400D01*
X113193465Y-66408400D01*
X112916226Y-66463547D01*
X112655073Y-66571720D01*
X112420041Y-66728763D01*
X112220163Y-66928641D01*
X112064800Y-67161159D01*
X111909437Y-66928641D01*
X111709559Y-66728763D01*
X111474527Y-66571720D01*
X111213374Y-66463547D01*
X110936135Y-66408400D01*
X110653465Y-66408400D01*
X110376226Y-66463547D01*
X110115073Y-66571720D01*
X109880041Y-66728763D01*
X109680163Y-66928641D01*
X109524800Y-67161159D01*
X109369437Y-66928641D01*
X109169559Y-66728763D01*
X108934527Y-66571720D01*
X108673374Y-66463547D01*
X108396135Y-66408400D01*
X108113465Y-66408400D01*
X107836226Y-66463547D01*
X107575073Y-66571720D01*
X107340041Y-66728763D01*
X107140163Y-66928641D01*
X106984800Y-67161159D01*
X106829437Y-66928641D01*
X106629559Y-66728763D01*
X106394527Y-66571720D01*
X106133374Y-66463547D01*
X105856135Y-66408400D01*
X105573465Y-66408400D01*
X105296226Y-66463547D01*
X105035073Y-66571720D01*
X104800041Y-66728763D01*
X104600163Y-66928641D01*
X104444800Y-67161159D01*
X104289437Y-66928641D01*
X104089559Y-66728763D01*
X103854527Y-66571720D01*
X103593374Y-66463547D01*
X103316135Y-66408400D01*
X103033465Y-66408400D01*
X102756226Y-66463547D01*
X102627000Y-66517074D01*
X102627000Y-61092412D01*
X105113200Y-61092412D01*
X105113200Y-61315988D01*
X105156817Y-61535267D01*
X105242376Y-61741824D01*
X105366588Y-61927720D01*
X105524680Y-62085812D01*
X105710576Y-62210024D01*
X105917133Y-62295583D01*
X106136412Y-62339200D01*
X106359988Y-62339200D01*
X106579267Y-62295583D01*
X106785824Y-62210024D01*
X106971720Y-62085812D01*
X107129812Y-61927720D01*
X107254024Y-61741824D01*
X107339583Y-61535267D01*
X107383200Y-61315988D01*
X107383200Y-61092412D01*
X107339583Y-60873133D01*
X107254024Y-60666576D01*
X107129812Y-60480680D01*
X106971720Y-60322588D01*
X106785824Y-60198376D01*
X106579267Y-60112817D01*
X106359988Y-60069200D01*
X106136412Y-60069200D01*
X105917133Y-60112817D01*
X105710576Y-60198376D01*
X105524680Y-60322588D01*
X105366588Y-60480680D01*
X105242376Y-60666576D01*
X105156817Y-60873133D01*
X105113200Y-61092412D01*
X102627000Y-61092412D01*
X102627000Y-52127000D01*
X114853340Y-52127000D01*
X114757169Y-52270931D01*
G37*
X114757169Y-52270931D02*
X114588690Y-52677675D01*
X114502800Y-53109472D01*
X114502800Y-53549728D01*
X114588690Y-53981525D01*
X114757169Y-54388269D01*
X115001762Y-54754329D01*
X115313071Y-55065638D01*
X115679131Y-55310231D01*
X116085875Y-55478710D01*
X116517672Y-55564600D01*
X116957928Y-55564600D01*
X117389725Y-55478710D01*
X117796469Y-55310231D01*
X118162529Y-55065638D01*
X118473838Y-54754329D01*
X118718431Y-54388269D01*
X118886910Y-53981525D01*
X118904706Y-53892060D01*
X118965758Y-54039453D01*
X119129761Y-54284902D01*
X119338498Y-54493639D01*
X119583947Y-54657642D01*
X119856675Y-54770610D01*
X120146201Y-54828200D01*
X120441399Y-54828200D01*
X120730925Y-54770610D01*
X121003653Y-54657642D01*
X121249102Y-54493639D01*
X121457839Y-54284902D01*
X121563800Y-54126319D01*
X121669761Y-54284902D01*
X121878498Y-54493639D01*
X122123947Y-54657642D01*
X122396675Y-54770610D01*
X122686201Y-54828200D01*
X122981399Y-54828200D01*
X123270925Y-54770610D01*
X123543653Y-54657642D01*
X123789102Y-54493639D01*
X123997839Y-54284902D01*
X124103800Y-54126319D01*
X124209761Y-54284902D01*
X124418498Y-54493639D01*
X124663947Y-54657642D01*
X124936675Y-54770610D01*
X125226201Y-54828200D01*
X125521399Y-54828200D01*
X125810925Y-54770610D01*
X126083653Y-54657642D01*
X126329102Y-54493639D01*
X126537839Y-54284902D01*
X126645492Y-54123787D01*
X126806946Y-54339893D01*
X127025312Y-54536417D01*
X127277822Y-54686564D01*
X127554773Y-54784563D01*
X127786800Y-54664064D01*
X127786800Y-53456600D01*
X127766800Y-53456600D01*
X127766800Y-53202600D01*
X127786800Y-53202600D01*
X127786800Y-53182600D01*
X128040800Y-53182600D01*
X128040800Y-53202600D01*
X128060800Y-53202600D01*
X128060800Y-53456600D01*
X128040800Y-53456600D01*
X128040800Y-54664064D01*
X128272827Y-54784563D01*
X128549778Y-54686564D01*
X128802288Y-54536417D01*
X129020654Y-54339893D01*
X129182108Y-54123787D01*
X129289761Y-54284902D01*
X129498498Y-54493639D01*
X129743947Y-54657642D01*
X130016675Y-54770610D01*
X130306201Y-54828200D01*
X130601399Y-54828200D01*
X130890925Y-54770610D01*
X131163653Y-54657642D01*
X131409102Y-54493639D01*
X131617839Y-54284902D01*
X131723800Y-54126319D01*
X131829761Y-54284902D01*
X132038498Y-54493639D01*
X132283947Y-54657642D01*
X132556675Y-54770610D01*
X132846201Y-54828200D01*
X133141399Y-54828200D01*
X133430925Y-54770610D01*
X133703653Y-54657642D01*
X133949102Y-54493639D01*
X134157839Y-54284902D01*
X134263800Y-54126319D01*
X134369761Y-54284902D01*
X134578498Y-54493639D01*
X134823947Y-54657642D01*
X135096675Y-54770610D01*
X135386201Y-54828200D01*
X135681399Y-54828200D01*
X135970925Y-54770610D01*
X136243653Y-54657642D01*
X136489102Y-54493639D01*
X136697839Y-54284902D01*
X136803800Y-54126319D01*
X136909761Y-54284902D01*
X137118498Y-54493639D01*
X137363947Y-54657642D01*
X137636675Y-54770610D01*
X137926201Y-54828200D01*
X138221399Y-54828200D01*
X138510925Y-54770610D01*
X138783653Y-54657642D01*
X139029102Y-54493639D01*
X139237839Y-54284902D01*
X139343800Y-54126319D01*
X139449761Y-54284902D01*
X139658498Y-54493639D01*
X139903947Y-54657642D01*
X140176675Y-54770610D01*
X140466201Y-54828200D01*
X140761399Y-54828200D01*
X141050925Y-54770610D01*
X141323653Y-54657642D01*
X141569102Y-54493639D01*
X141777839Y-54284902D01*
X141883800Y-54126319D01*
X141989761Y-54284902D01*
X142198498Y-54493639D01*
X142443947Y-54657642D01*
X142716675Y-54770610D01*
X143006201Y-54828200D01*
X143301399Y-54828200D01*
X143590925Y-54770610D01*
X143863653Y-54657642D01*
X144109102Y-54493639D01*
X144317839Y-54284902D01*
X144481842Y-54039453D01*
X144594810Y-53766725D01*
X144652400Y-53477199D01*
X144652400Y-53182001D01*
X144594810Y-52892475D01*
X144481842Y-52619747D01*
X144317839Y-52374298D01*
X144109102Y-52165561D01*
X144051391Y-52127000D01*
X146320209Y-52127000D01*
X146262498Y-52165561D01*
X146053761Y-52374298D01*
X145889758Y-52619747D01*
X145776790Y-52892475D01*
X145719200Y-53182001D01*
X145719200Y-53477199D01*
X145776790Y-53766725D01*
X145889758Y-54039453D01*
X146053761Y-54284902D01*
X146262498Y-54493639D01*
X146507947Y-54657642D01*
X146780675Y-54770610D01*
X147070201Y-54828200D01*
X147365399Y-54828200D01*
X147654925Y-54770610D01*
X147927653Y-54657642D01*
X148173102Y-54493639D01*
X148381839Y-54284902D01*
X148487800Y-54126319D01*
X148593761Y-54284902D01*
X148802498Y-54493639D01*
X149047947Y-54657642D01*
X149320675Y-54770610D01*
X149610201Y-54828200D01*
X149905399Y-54828200D01*
X150194925Y-54770610D01*
X150467653Y-54657642D01*
X150713102Y-54493639D01*
X150921839Y-54284902D01*
X151027800Y-54126319D01*
X151133761Y-54284902D01*
X151342498Y-54493639D01*
X151587947Y-54657642D01*
X151860675Y-54770610D01*
X152150201Y-54828200D01*
X152445399Y-54828200D01*
X152734925Y-54770610D01*
X153007653Y-54657642D01*
X153253102Y-54493639D01*
X153461839Y-54284902D01*
X153567800Y-54126319D01*
X153673761Y-54284902D01*
X153882498Y-54493639D01*
X154127947Y-54657642D01*
X154400675Y-54770610D01*
X154690201Y-54828200D01*
X154985399Y-54828200D01*
X155274925Y-54770610D01*
X155547653Y-54657642D01*
X155793102Y-54493639D01*
X156001839Y-54284902D01*
X156107800Y-54126319D01*
X156213761Y-54284902D01*
X156422498Y-54493639D01*
X156667947Y-54657642D01*
X156940675Y-54770610D01*
X157230201Y-54828200D01*
X157525399Y-54828200D01*
X157814925Y-54770610D01*
X158087653Y-54657642D01*
X158333102Y-54493639D01*
X158541839Y-54284902D01*
X158647800Y-54126319D01*
X158753761Y-54284902D01*
X158962498Y-54493639D01*
X159207947Y-54657642D01*
X159480675Y-54770610D01*
X159770201Y-54828200D01*
X160065399Y-54828200D01*
X160354925Y-54770610D01*
X160627653Y-54657642D01*
X160873102Y-54493639D01*
X161081839Y-54284902D01*
X161187800Y-54126319D01*
X161293761Y-54284902D01*
X161502498Y-54493639D01*
X161747947Y-54657642D01*
X162020675Y-54770610D01*
X162310201Y-54828200D01*
X162605399Y-54828200D01*
X162894925Y-54770610D01*
X163167653Y-54657642D01*
X163413102Y-54493639D01*
X163621839Y-54284902D01*
X163727800Y-54126319D01*
X163833761Y-54284902D01*
X164042498Y-54493639D01*
X164287947Y-54657642D01*
X164560675Y-54770610D01*
X164850201Y-54828200D01*
X165145399Y-54828200D01*
X165434925Y-54770610D01*
X165707653Y-54657642D01*
X165953102Y-54493639D01*
X166161839Y-54284902D01*
X166325842Y-54039453D01*
X166438810Y-53766725D01*
X166496400Y-53477199D01*
X166496400Y-53182001D01*
X166438810Y-52892475D01*
X166325842Y-52619747D01*
X166161839Y-52374298D01*
X165953102Y-52165561D01*
X165895391Y-52127000D01*
X169180209Y-52127000D01*
X169122498Y-52165561D01*
X168913761Y-52374298D01*
X168749758Y-52619747D01*
X168636790Y-52892475D01*
X168579200Y-53182001D01*
X168579200Y-53477199D01*
X168636790Y-53766725D01*
X168749758Y-54039453D01*
X168913761Y-54284902D01*
X169122498Y-54493639D01*
X169367947Y-54657642D01*
X169640675Y-54770610D01*
X169930201Y-54828200D01*
X170225399Y-54828200D01*
X170514925Y-54770610D01*
X170787653Y-54657642D01*
X171033102Y-54493639D01*
X171241839Y-54284902D01*
X171347800Y-54126319D01*
X171453761Y-54284902D01*
X171662498Y-54493639D01*
X171907947Y-54657642D01*
X172180675Y-54770610D01*
X172470201Y-54828200D01*
X172765399Y-54828200D01*
X173054925Y-54770610D01*
X173327653Y-54657642D01*
X173573102Y-54493639D01*
X173781839Y-54284902D01*
X173887800Y-54126319D01*
X173993761Y-54284902D01*
X174202498Y-54493639D01*
X174447947Y-54657642D01*
X174720675Y-54770610D01*
X175010201Y-54828200D01*
X175305399Y-54828200D01*
X175594925Y-54770610D01*
X175867653Y-54657642D01*
X176113102Y-54493639D01*
X176321839Y-54284902D01*
X176427800Y-54126319D01*
X176533761Y-54284902D01*
X176742498Y-54493639D01*
X176987947Y-54657642D01*
X177260675Y-54770610D01*
X177550201Y-54828200D01*
X177664399Y-54828200D01*
X176585199Y-55907400D01*
X128389511Y-55907400D01*
X128345574Y-55863463D01*
X128176056Y-55750195D01*
X127987698Y-55672174D01*
X127787739Y-55632400D01*
X127583861Y-55632400D01*
X127383902Y-55672174D01*
X127195544Y-55750195D01*
X127026026Y-55863463D01*
X126881863Y-56007626D01*
X126768595Y-56177144D01*
X126690574Y-56365502D01*
X126650800Y-56565461D01*
X126650800Y-56769339D01*
X126690574Y-56969298D01*
X126768595Y-57157656D01*
X126881863Y-57327174D01*
X127026026Y-57471337D01*
X127195544Y-57584605D01*
X127383902Y-57662626D01*
X127583861Y-57702400D01*
X127787739Y-57702400D01*
X127987698Y-57662626D01*
X128176056Y-57584605D01*
X128345574Y-57471337D01*
X128389511Y-57427400D01*
X128484844Y-57427400D01*
X128454200Y-57581461D01*
X128454200Y-57785339D01*
X128493974Y-57985298D01*
X128538089Y-58091800D01*
X122953911Y-58091800D01*
X122909974Y-58047863D01*
X122740456Y-57934595D01*
X122552098Y-57856574D01*
X122352139Y-57816800D01*
X122148261Y-57816800D01*
X121948302Y-57856574D01*
X121759944Y-57934595D01*
X121590426Y-58047863D01*
X121446263Y-58192026D01*
X121332995Y-58361544D01*
X121254974Y-58549902D01*
X121215200Y-58749861D01*
X121215200Y-58953739D01*
X121236111Y-59058864D01*
X120062259Y-57885013D01*
X120039238Y-57856962D01*
X119927320Y-57765113D01*
X119799633Y-57696863D01*
X119661085Y-57654835D01*
X119553105Y-57644200D01*
X119517000Y-57640644D01*
X119480895Y-57644200D01*
X115934612Y-57644200D01*
X116005824Y-57537624D01*
X116091383Y-57331067D01*
X116135000Y-57111788D01*
X116135000Y-56888212D01*
X116091383Y-56668933D01*
X116005824Y-56462376D01*
X115881612Y-56276480D01*
X115723520Y-56118388D01*
X115537624Y-55994176D01*
X115331067Y-55908617D01*
X115111788Y-55865000D01*
X114888212Y-55865000D01*
X114668933Y-55908617D01*
X114462376Y-55994176D01*
X114276480Y-56118388D01*
X114118388Y-56276480D01*
X113994176Y-56462376D01*
X113970639Y-56519200D01*
X109979392Y-56519200D01*
X109948200Y-56516128D01*
X107948200Y-56516128D01*
X107823718Y-56528388D01*
X107704020Y-56564698D01*
X107593706Y-56623663D01*
X107497015Y-56703015D01*
X107417663Y-56799706D01*
X107383200Y-56864181D01*
X107383200Y-56692412D01*
X107339583Y-56473133D01*
X107254024Y-56266576D01*
X107129812Y-56080680D01*
X106971720Y-55922588D01*
X106785824Y-55798376D01*
X106579267Y-55712817D01*
X106359988Y-55669200D01*
X106136412Y-55669200D01*
X105917133Y-55712817D01*
X105710576Y-55798376D01*
X105524680Y-55922588D01*
X105366588Y-56080680D01*
X105242376Y-56266576D01*
X105156817Y-56473133D01*
X105113200Y-56692412D01*
X105113200Y-56915988D01*
X105156817Y-57135267D01*
X105242376Y-57341824D01*
X105366588Y-57527720D01*
X105524680Y-57685812D01*
X105710576Y-57810024D01*
X105917133Y-57895583D01*
X106136412Y-57939200D01*
X106359988Y-57939200D01*
X106579267Y-57895583D01*
X106785824Y-57810024D01*
X106971720Y-57685812D01*
X107129812Y-57527720D01*
X107254024Y-57341824D01*
X107310128Y-57206377D01*
X107310128Y-57654200D01*
X107322388Y-57778682D01*
X107330129Y-57804200D01*
X107322388Y-57829718D01*
X107310128Y-57954200D01*
X107310128Y-58454200D01*
X107322388Y-58578682D01*
X107330129Y-58604200D01*
X107322388Y-58629718D01*
X107310128Y-58754200D01*
X107310128Y-59254200D01*
X107322388Y-59378682D01*
X107330129Y-59404200D01*
X107322388Y-59429718D01*
X107310128Y-59554200D01*
X107310128Y-60054200D01*
X107322388Y-60178682D01*
X107358698Y-60298380D01*
X107417663Y-60408694D01*
X107497015Y-60505385D01*
X107593706Y-60584737D01*
X107704020Y-60643702D01*
X107823718Y-60680012D01*
X107948200Y-60692272D01*
X109948200Y-60692272D01*
X110072682Y-60680012D01*
X110192380Y-60643702D01*
X110302694Y-60584737D01*
X110399385Y-60505385D01*
X110478737Y-60408694D01*
X110537702Y-60298380D01*
X110574012Y-60178682D01*
X110586272Y-60054200D01*
X110586272Y-59729157D01*
X110592286Y-59728565D01*
X110730834Y-59686537D01*
X110858521Y-59618287D01*
X110924426Y-59564200D01*
X119078354Y-59564200D01*
X125068330Y-65554177D01*
X125068331Y-66140764D01*
X124444946Y-66764150D01*
X124409559Y-66728763D01*
X124174527Y-66571720D01*
X123913374Y-66463547D01*
X123636135Y-66408400D01*
X123353465Y-66408400D01*
X123076226Y-66463547D01*
X122815073Y-66571720D01*
X122580041Y-66728763D01*
X122380163Y-66928641D01*
X122224800Y-67161159D01*
X122069437Y-66928641D01*
X121869559Y-66728763D01*
X121634527Y-66571720D01*
X121373374Y-66463547D01*
X121096135Y-66408400D01*
X120813465Y-66408400D01*
X120536226Y-66463547D01*
X120275073Y-66571720D01*
X120040041Y-66728763D01*
X119840163Y-66928641D01*
X119684800Y-67161159D01*
X119529437Y-66928641D01*
X119329559Y-66728763D01*
X119094527Y-66571720D01*
X118833374Y-66463547D01*
X118556135Y-66408400D01*
X118273465Y-66408400D01*
X117996226Y-66463547D01*
X117735073Y-66571720D01*
X117500041Y-66728763D01*
X117300163Y-66928641D01*
X117144800Y-67161159D01*
X116989437Y-66928641D01*
X116789559Y-66728763D01*
X116554527Y-66571720D01*
X116293374Y-66463547D01*
X116016135Y-66408400D01*
X115733465Y-66408400D01*
X115456226Y-66463547D01*
X115195073Y-66571720D01*
X114960041Y-66728763D01*
X114760163Y-66928641D01*
X114604800Y-67161159D01*
X114449437Y-66928641D01*
X114249559Y-66728763D01*
X114014527Y-66571720D01*
X113753374Y-66463547D01*
X113476135Y-66408400D01*
X113193465Y-66408400D01*
X112916226Y-66463547D01*
X112655073Y-66571720D01*
X112420041Y-66728763D01*
X112220163Y-66928641D01*
X112064800Y-67161159D01*
X111909437Y-66928641D01*
X111709559Y-66728763D01*
X111474527Y-66571720D01*
X111213374Y-66463547D01*
X110936135Y-66408400D01*
X110653465Y-66408400D01*
X110376226Y-66463547D01*
X110115073Y-66571720D01*
X109880041Y-66728763D01*
X109680163Y-66928641D01*
X109524800Y-67161159D01*
X109369437Y-66928641D01*
X109169559Y-66728763D01*
X108934527Y-66571720D01*
X108673374Y-66463547D01*
X108396135Y-66408400D01*
X108113465Y-66408400D01*
X107836226Y-66463547D01*
X107575073Y-66571720D01*
X107340041Y-66728763D01*
X107140163Y-66928641D01*
X106984800Y-67161159D01*
X106829437Y-66928641D01*
X106629559Y-66728763D01*
X106394527Y-66571720D01*
X106133374Y-66463547D01*
X105856135Y-66408400D01*
X105573465Y-66408400D01*
X105296226Y-66463547D01*
X105035073Y-66571720D01*
X104800041Y-66728763D01*
X104600163Y-66928641D01*
X104444800Y-67161159D01*
X104289437Y-66928641D01*
X104089559Y-66728763D01*
X103854527Y-66571720D01*
X103593374Y-66463547D01*
X103316135Y-66408400D01*
X103033465Y-66408400D01*
X102756226Y-66463547D01*
X102627000Y-66517074D01*
X102627000Y-61092412D01*
X105113200Y-61092412D01*
X105113200Y-61315988D01*
X105156817Y-61535267D01*
X105242376Y-61741824D01*
X105366588Y-61927720D01*
X105524680Y-62085812D01*
X105710576Y-62210024D01*
X105917133Y-62295583D01*
X106136412Y-62339200D01*
X106359988Y-62339200D01*
X106579267Y-62295583D01*
X106785824Y-62210024D01*
X106971720Y-62085812D01*
X107129812Y-61927720D01*
X107254024Y-61741824D01*
X107339583Y-61535267D01*
X107383200Y-61315988D01*
X107383200Y-61092412D01*
X107339583Y-60873133D01*
X107254024Y-60666576D01*
X107129812Y-60480680D01*
X106971720Y-60322588D01*
X106785824Y-60198376D01*
X106579267Y-60112817D01*
X106359988Y-60069200D01*
X106136412Y-60069200D01*
X105917133Y-60112817D01*
X105710576Y-60198376D01*
X105524680Y-60322588D01*
X105366588Y-60480680D01*
X105242376Y-60666576D01*
X105156817Y-60873133D01*
X105113200Y-61092412D01*
X102627000Y-61092412D01*
X102627000Y-52127000D01*
X114853340Y-52127000D01*
X114757169Y-52270931D01*
G36*
X132073000Y-94973000D02*
G01*
X129200000Y-94973000D01*
X129175224Y-94975440D01*
X129151399Y-94982667D01*
X129129443Y-94994403D01*
X129110197Y-95010197D01*
X129094403Y-95029443D01*
X129082667Y-95051399D01*
X129075440Y-95075224D01*
X129073000Y-95100000D01*
X129073000Y-98373000D01*
X127227000Y-98373000D01*
X127227000Y-95990750D01*
X127237389Y-95971313D01*
X127287995Y-95804490D01*
X127300800Y-95674477D01*
X127300800Y-95674467D01*
X127305081Y-95631001D01*
X127300800Y-95587535D01*
X127300800Y-95282173D01*
X127330302Y-95226980D01*
X127366612Y-95107282D01*
X127378872Y-94982800D01*
X127378872Y-93927000D01*
X127900000Y-93927000D01*
X127924776Y-93924560D01*
X127948601Y-93917333D01*
X127970557Y-93905597D01*
X127989803Y-93889803D01*
X128489803Y-93389803D01*
X128505597Y-93370557D01*
X128517333Y-93348601D01*
X128524560Y-93324776D01*
X128527000Y-93300000D01*
X128527000Y-91253360D01*
X128531603Y-91238186D01*
X128542600Y-91126533D01*
X128542600Y-91126524D01*
X128546276Y-91089201D01*
X128542600Y-91051878D01*
X128542600Y-90930108D01*
X128583279Y-90880540D01*
X128655874Y-90744725D01*
X128700577Y-90597357D01*
X128715672Y-90444100D01*
X128715672Y-90166000D01*
X132073000Y-90166000D01*
X132073000Y-94973000D01*
G37*
X132073000Y-94973000D02*
X129200000Y-94973000D01*
X129175224Y-94975440D01*
X129151399Y-94982667D01*
X129129443Y-94994403D01*
X129110197Y-95010197D01*
X129094403Y-95029443D01*
X129082667Y-95051399D01*
X129075440Y-95075224D01*
X129073000Y-95100000D01*
X129073000Y-98373000D01*
X127227000Y-98373000D01*
X127227000Y-95990750D01*
X127237389Y-95971313D01*
X127287995Y-95804490D01*
X127300800Y-95674477D01*
X127300800Y-95674467D01*
X127305081Y-95631001D01*
X127300800Y-95587535D01*
X127300800Y-95282173D01*
X127330302Y-95226980D01*
X127366612Y-95107282D01*
X127378872Y-94982800D01*
X127378872Y-93927000D01*
X127900000Y-93927000D01*
X127924776Y-93924560D01*
X127948601Y-93917333D01*
X127970557Y-93905597D01*
X127989803Y-93889803D01*
X128489803Y-93389803D01*
X128505597Y-93370557D01*
X128517333Y-93348601D01*
X128524560Y-93324776D01*
X128527000Y-93300000D01*
X128527000Y-91253360D01*
X128531603Y-91238186D01*
X128542600Y-91126533D01*
X128542600Y-91126524D01*
X128546276Y-91089201D01*
X128542600Y-91051878D01*
X128542600Y-90930108D01*
X128583279Y-90880540D01*
X128655874Y-90744725D01*
X128700577Y-90597357D01*
X128715672Y-90444100D01*
X128715672Y-90166000D01*
X132073000Y-90166000D01*
X132073000Y-94973000D01*
M02*
