M48
; DRILL file {KiCad (5.1.5)-3} date 10/16/2020 7:19:33 PM
; FORMAT={-:-/ absolute / metric / decimal}
; #@! TF.CreationDate,2020-10-16T19:19:33-07:00
; #@! TF.GenerationSoftware,Kicad,Pcbnew,(5.1.5)-3
; #@! TF.FileFunction,Plated,1,4,PTH
FMAT,2
METRIC
T1C0.400
T2C0.600
T3C0.800
T4C1.000
T5C1.016
T6C1.100
%
G90
G05
T1
X118.44Y-80.772
X122.25Y-58.852
X122.301Y-87.554
X123.063Y-60.096
X124.054Y-87.579
X127.686Y-56.667
X129.489Y-57.683
X136.195Y-70.536
X137.8Y-89.25
X142.57Y-64.719
X145.034Y-65.786
X153.772Y-93.853
X154.584Y-96.977
X157.378Y-98.273
X157.988Y-91.77
X169.926Y-62.586
X179.349Y-64.668
X180.873Y-65.786
X184.074Y-80.467
X185.598Y-81.788
X188.189Y-71.12
T2
X104.394Y-85.852
X105.0Y-54.5
X105.0Y-63.5
X107.0Y-63.5
X107.5Y-90.0
X110.5Y-54.5
X111.0Y-60.5
X112.014Y-85.725
X115.0Y-57.0
X118.872Y-55.245
X120.091Y-97.663
X120.6Y-89.9
X121.9Y-91.1
X122.5Y-65.0
X123.0Y-101.5
X124.968Y-97.663
X126.5Y-91.0
X133.096Y-97.028
X136.246Y-92.837
X136.246Y-94.132
X136.271Y-91.643
X142.0Y-94.5
X143.5Y-94.5
X145.034Y-55.118
X156.0Y-95.5
X156.718Y-62.738
X167.5Y-55.0
X168.5Y-99.5
X186.944Y-93.218
X189.0Y-95.0
X192.532Y-93.091
T3
X146.625Y-76.645
X146.625Y-78.645
X146.625Y-80.645
X148.625Y-76.645
X148.625Y-78.645
X148.625Y-80.645
X160.865Y-74.193
X160.865Y-76.733
T4
X135.89Y-98.044
X138.43Y-98.044
X140.97Y-98.044
T5
X120.294Y-53.33
X122.834Y-53.33
X125.374Y-53.33
X127.914Y-53.33
X129.438Y-101.59
X130.454Y-53.33
X131.978Y-101.59
X132.994Y-53.33
X134.518Y-101.59
X135.534Y-53.33
X137.058Y-101.59
X138.074Y-53.33
X139.598Y-101.59
X140.614Y-53.33
X142.138Y-101.59
X143.154Y-53.33
X144.678Y-101.59
X147.218Y-53.33
X147.218Y-101.59
X149.758Y-53.33
X152.298Y-53.33
X152.298Y-101.59
X154.838Y-53.33
X154.838Y-101.59
X157.378Y-53.33
X157.378Y-101.59
X159.918Y-53.33
X159.918Y-101.59
X162.458Y-53.33
X162.458Y-101.59
X164.998Y-53.33
X164.998Y-101.59
X165.125Y-73.65
X165.125Y-76.19
X165.125Y-78.73
X167.538Y-101.59
X167.665Y-73.65
X167.665Y-76.19
X167.665Y-78.73
X170.078Y-53.33
X170.078Y-101.59
X172.618Y-53.33
X175.158Y-53.33
X175.158Y-101.59
X177.698Y-53.33
X177.698Y-101.59
X180.238Y-53.33
X180.238Y-101.59
X182.778Y-53.33
X182.778Y-101.59
X185.318Y-53.33
X185.318Y-101.59
X187.858Y-53.33
X187.858Y-101.59
X190.398Y-101.59
X192.938Y-101.59
X195.478Y-53.33
X195.478Y-55.87
X195.478Y-58.41
X195.478Y-60.95
X195.478Y-63.49
X195.478Y-66.03
X195.478Y-68.57
X195.478Y-71.11
X195.478Y-73.65
X195.478Y-76.19
X195.478Y-78.73
X195.478Y-81.27
X195.478Y-83.81
X195.478Y-86.35
X195.478Y-88.89
X195.478Y-91.43
X195.478Y-93.97
X195.478Y-96.51
X198.018Y-53.33
X198.018Y-55.87
X198.018Y-58.41
X198.018Y-60.95
X198.018Y-63.49
X198.018Y-66.03
X198.018Y-68.57
X198.018Y-71.11
X198.018Y-73.65
X198.018Y-76.19
X198.018Y-78.73
X198.018Y-81.27
X198.018Y-83.81
X198.018Y-86.35
X198.018Y-88.89
X198.018Y-91.43
X198.018Y-93.97
X198.018Y-96.51
T6
X103.175Y-67.843
X103.175Y-83.083
X105.715Y-67.843
X105.715Y-83.083
X108.255Y-67.843
X108.255Y-83.083
X110.795Y-67.843
X110.795Y-83.083
X113.335Y-67.843
X113.335Y-83.083
X115.875Y-67.843
X115.875Y-70.383
X115.875Y-72.923
X115.875Y-75.463
X115.875Y-78.003
X115.875Y-80.543
X115.875Y-83.083
X118.415Y-67.843
X118.415Y-83.083
X120.955Y-67.843
X120.955Y-83.083
X123.495Y-67.843
X123.495Y-83.083
X126.035Y-67.843
X126.035Y-83.083
X128.575Y-67.843
X128.575Y-83.083
X131.115Y-67.843
X131.115Y-83.083
X133.655Y-67.843
X133.655Y-83.083
X136.195Y-67.843
X136.195Y-83.083
X138.735Y-67.843
X138.735Y-83.083
X141.275Y-67.843
X141.275Y-83.083
X143.815Y-67.843
X143.815Y-83.083
X145.136Y-70.894
X146.355Y-67.843
X146.355Y-83.083
X147.676Y-70.894
X148.895Y-67.843
X148.895Y-83.083
X150.216Y-70.894
X151.435Y-67.843
X151.435Y-83.083
X152.756Y-70.894
X153.975Y-67.843
X153.975Y-83.083
X155.296Y-70.894
X156.515Y-67.843
X156.515Y-83.083
X159.055Y-67.843
X159.055Y-80.543
X159.055Y-83.083
X161.595Y-67.843
X161.595Y-83.083
T4
G00X105.664Y-95.469
M15
G01X105.664Y-97.469
M16
G05
G00X107.664Y-101.169
M15
G01X109.664Y-101.169
M16
G05
G00X111.664Y-95.469
M15
G01X111.664Y-97.469
M16
G05
T0
M30
